G04 EAGLE Gerber RS-274X export*
G75*
%MOMM*%
%FSLAX34Y34*%
%LPD*%
%INBottom Copper*%
%IPPOS*%
%AMOC8*
5,1,8,0,0,1.08239X$1,22.5*%
G01*
%ADD10C,1.981200*%
%ADD11C,1.508000*%
%ADD12R,1.508000X1.508000*%

G36*
X901790Y-13447D02*
X901790Y-13447D01*
X901881Y-13439D01*
X901911Y-13427D01*
X901943Y-13422D01*
X902023Y-13379D01*
X902107Y-13343D01*
X902139Y-13317D01*
X902160Y-13306D01*
X902182Y-13283D01*
X902238Y-13238D01*
X940338Y24862D01*
X940386Y24928D01*
X940392Y24934D01*
X940394Y24939D01*
X940451Y25005D01*
X940463Y25035D01*
X940482Y25061D01*
X940509Y25148D01*
X940543Y25233D01*
X940547Y25274D01*
X940554Y25297D01*
X940553Y25329D01*
X940561Y25400D01*
X940561Y647700D01*
X940547Y647790D01*
X940539Y647881D01*
X940527Y647911D01*
X940522Y647943D01*
X940479Y648023D01*
X940443Y648107D01*
X940417Y648139D01*
X940406Y648160D01*
X940383Y648182D01*
X940338Y648238D01*
X826038Y762538D01*
X825964Y762591D01*
X825895Y762651D01*
X825865Y762663D01*
X825839Y762682D01*
X825752Y762709D01*
X825667Y762743D01*
X825626Y762747D01*
X825603Y762754D01*
X825571Y762753D01*
X825500Y762761D01*
X0Y762761D01*
X-90Y762747D01*
X-181Y762739D01*
X-211Y762727D01*
X-243Y762722D01*
X-323Y762679D01*
X-407Y762643D01*
X-439Y762617D01*
X-460Y762606D01*
X-482Y762583D01*
X-538Y762538D01*
X-13238Y749838D01*
X-13282Y749778D01*
X-13318Y749739D01*
X-13325Y749725D01*
X-13351Y749695D01*
X-13363Y749665D01*
X-13382Y749639D01*
X-13409Y749552D01*
X-13443Y749467D01*
X-13447Y749426D01*
X-13454Y749403D01*
X-13453Y749371D01*
X-13461Y749300D01*
X-13461Y38100D01*
X-13447Y38010D01*
X-13439Y37919D01*
X-13427Y37889D01*
X-13422Y37857D01*
X-13379Y37777D01*
X-13343Y37693D01*
X-13317Y37661D01*
X-13306Y37640D01*
X-13283Y37618D01*
X-13238Y37562D01*
X37562Y-13238D01*
X37636Y-13291D01*
X37705Y-13351D01*
X37735Y-13363D01*
X37761Y-13382D01*
X37848Y-13409D01*
X37933Y-13443D01*
X37974Y-13447D01*
X37997Y-13454D01*
X38029Y-13453D01*
X38100Y-13461D01*
X901700Y-13461D01*
X901790Y-13447D01*
G37*
%LPC*%
G36*
X64020Y420115D02*
X64020Y420115D01*
X59819Y421856D01*
X56604Y425071D01*
X54863Y429272D01*
X54863Y433820D01*
X56604Y438021D01*
X59819Y441236D01*
X64020Y442977D01*
X88380Y442977D01*
X92581Y441236D01*
X95796Y438021D01*
X97537Y433820D01*
X97537Y429272D01*
X95796Y425071D01*
X92581Y421856D01*
X88380Y420115D01*
X64020Y420115D01*
G37*
%LPD*%
%LPC*%
G36*
X64020Y370077D02*
X64020Y370077D01*
X59819Y371818D01*
X56604Y375033D01*
X54863Y379234D01*
X54863Y383782D01*
X56604Y387983D01*
X59819Y391198D01*
X64020Y392939D01*
X88380Y392939D01*
X92581Y391198D01*
X95796Y387983D01*
X97537Y383782D01*
X97537Y379234D01*
X95796Y375033D01*
X92581Y371818D01*
X88380Y370077D01*
X64020Y370077D01*
G37*
%LPD*%
%LPC*%
G36*
X112097Y669195D02*
X112097Y669195D01*
X108765Y670575D01*
X106215Y673125D01*
X104835Y676457D01*
X104835Y695143D01*
X106215Y698475D01*
X108765Y701025D01*
X112097Y702405D01*
X115703Y702405D01*
X119035Y701025D01*
X121585Y698475D01*
X122965Y695143D01*
X122965Y676457D01*
X121585Y673125D01*
X119035Y670575D01*
X115703Y669195D01*
X112097Y669195D01*
G37*
%LPD*%
%LPC*%
G36*
X87097Y669195D02*
X87097Y669195D01*
X83765Y670575D01*
X81215Y673125D01*
X79835Y676457D01*
X79835Y695143D01*
X81215Y698475D01*
X83765Y701025D01*
X87097Y702405D01*
X90703Y702405D01*
X94035Y701025D01*
X96585Y698475D01*
X97965Y695143D01*
X97965Y676457D01*
X96585Y673125D01*
X94035Y670575D01*
X90703Y669195D01*
X87097Y669195D01*
G37*
%LPD*%
%LPC*%
G36*
X473257Y92535D02*
X473257Y92535D01*
X469925Y93915D01*
X467375Y96465D01*
X465995Y99797D01*
X465995Y103403D01*
X467375Y106735D01*
X469925Y109285D01*
X473257Y110665D01*
X491943Y110665D01*
X495275Y109285D01*
X497825Y106735D01*
X499205Y103403D01*
X499205Y99797D01*
X497825Y96465D01*
X495275Y93915D01*
X491943Y92535D01*
X473257Y92535D01*
G37*
%LPD*%
%LPC*%
G36*
X778057Y638235D02*
X778057Y638235D01*
X774725Y639615D01*
X772175Y642165D01*
X770795Y645497D01*
X770795Y649103D01*
X772175Y652435D01*
X774725Y654985D01*
X778057Y656365D01*
X796743Y656365D01*
X800075Y654985D01*
X802625Y652435D01*
X804005Y649103D01*
X804005Y645497D01*
X802625Y642165D01*
X800075Y639615D01*
X796743Y638235D01*
X778057Y638235D01*
G37*
%LPD*%
%LPC*%
G36*
X651057Y638235D02*
X651057Y638235D01*
X647725Y639615D01*
X645175Y642165D01*
X643795Y645497D01*
X643795Y649103D01*
X645175Y652435D01*
X647725Y654985D01*
X651057Y656365D01*
X669743Y656365D01*
X673075Y654985D01*
X675625Y652435D01*
X677005Y649103D01*
X677005Y645497D01*
X675625Y642165D01*
X673075Y639615D01*
X669743Y638235D01*
X651057Y638235D01*
G37*
%LPD*%
%LPC*%
G36*
X511357Y638235D02*
X511357Y638235D01*
X508025Y639615D01*
X505475Y642165D01*
X504095Y645497D01*
X504095Y649103D01*
X505475Y652435D01*
X508025Y654985D01*
X511357Y656365D01*
X530043Y656365D01*
X533375Y654985D01*
X535925Y652435D01*
X537305Y649103D01*
X537305Y645497D01*
X535925Y642165D01*
X533375Y639615D01*
X530043Y638235D01*
X511357Y638235D01*
G37*
%LPD*%
%LPC*%
G36*
X371657Y638235D02*
X371657Y638235D01*
X368325Y639615D01*
X365775Y642165D01*
X364395Y645497D01*
X364395Y649103D01*
X365775Y652435D01*
X368325Y654985D01*
X371657Y656365D01*
X390343Y656365D01*
X393675Y654985D01*
X396225Y652435D01*
X397605Y649103D01*
X397605Y645497D01*
X396225Y642165D01*
X393675Y639615D01*
X390343Y638235D01*
X371657Y638235D01*
G37*
%LPD*%
%LPC*%
G36*
X231957Y638235D02*
X231957Y638235D01*
X228625Y639615D01*
X226075Y642165D01*
X224695Y645497D01*
X224695Y649103D01*
X226075Y652435D01*
X228625Y654985D01*
X231957Y656365D01*
X250643Y656365D01*
X253975Y654985D01*
X256525Y652435D01*
X257905Y649103D01*
X257905Y645497D01*
X256525Y642165D01*
X253975Y639615D01*
X250643Y638235D01*
X231957Y638235D01*
G37*
%LPD*%
%LPC*%
G36*
X371657Y613235D02*
X371657Y613235D01*
X368325Y614615D01*
X365775Y617165D01*
X364395Y620497D01*
X364395Y624103D01*
X365775Y627435D01*
X368325Y629985D01*
X371657Y631365D01*
X390343Y631365D01*
X393675Y629985D01*
X396225Y627435D01*
X397605Y624103D01*
X397605Y620497D01*
X396225Y617165D01*
X393675Y614615D01*
X390343Y613235D01*
X371657Y613235D01*
G37*
%LPD*%
%LPC*%
G36*
X231957Y613235D02*
X231957Y613235D01*
X228625Y614615D01*
X226075Y617165D01*
X224695Y620497D01*
X224695Y624103D01*
X226075Y627435D01*
X228625Y629985D01*
X231957Y631365D01*
X250643Y631365D01*
X253975Y629985D01*
X256525Y627435D01*
X257905Y624103D01*
X257905Y620497D01*
X256525Y617165D01*
X253975Y614615D01*
X250643Y613235D01*
X231957Y613235D01*
G37*
%LPD*%
%LPC*%
G36*
X778057Y613235D02*
X778057Y613235D01*
X774725Y614615D01*
X772175Y617165D01*
X770795Y620497D01*
X770795Y624103D01*
X772175Y627435D01*
X774725Y629985D01*
X778057Y631365D01*
X796743Y631365D01*
X800075Y629985D01*
X802625Y627435D01*
X804005Y624103D01*
X804005Y620497D01*
X802625Y617165D01*
X800075Y614615D01*
X796743Y613235D01*
X778057Y613235D01*
G37*
%LPD*%
%LPC*%
G36*
X651057Y613235D02*
X651057Y613235D01*
X647725Y614615D01*
X645175Y617165D01*
X643795Y620497D01*
X643795Y624103D01*
X645175Y627435D01*
X647725Y629985D01*
X651057Y631365D01*
X669743Y631365D01*
X673075Y629985D01*
X675625Y627435D01*
X677005Y624103D01*
X677005Y620497D01*
X675625Y617165D01*
X673075Y614615D01*
X669743Y613235D01*
X651057Y613235D01*
G37*
%LPD*%
%LPC*%
G36*
X511357Y613235D02*
X511357Y613235D01*
X508025Y614615D01*
X505475Y617165D01*
X504095Y620497D01*
X504095Y624103D01*
X505475Y627435D01*
X508025Y629985D01*
X511357Y631365D01*
X530043Y631365D01*
X533375Y629985D01*
X535925Y627435D01*
X537305Y624103D01*
X537305Y620497D01*
X535925Y617165D01*
X533375Y614615D01*
X530043Y613235D01*
X511357Y613235D01*
G37*
%LPD*%
%LPC*%
G36*
X752657Y117535D02*
X752657Y117535D01*
X749325Y118915D01*
X746775Y121465D01*
X745395Y124797D01*
X745395Y128403D01*
X746775Y131735D01*
X749325Y134285D01*
X752657Y135665D01*
X771343Y135665D01*
X774675Y134285D01*
X777225Y131735D01*
X778605Y128403D01*
X778605Y124797D01*
X777225Y121465D01*
X774675Y118915D01*
X771343Y117535D01*
X752657Y117535D01*
G37*
%LPD*%
%LPC*%
G36*
X612957Y117535D02*
X612957Y117535D01*
X609625Y118915D01*
X607075Y121465D01*
X605695Y124797D01*
X605695Y128403D01*
X607075Y131735D01*
X609625Y134285D01*
X612957Y135665D01*
X631643Y135665D01*
X634975Y134285D01*
X637525Y131735D01*
X638905Y128403D01*
X638905Y124797D01*
X637525Y121465D01*
X634975Y118915D01*
X631643Y117535D01*
X612957Y117535D01*
G37*
%LPD*%
%LPC*%
G36*
X473257Y117535D02*
X473257Y117535D01*
X469925Y118915D01*
X467375Y121465D01*
X465995Y124797D01*
X465995Y128403D01*
X467375Y131735D01*
X469925Y134285D01*
X473257Y135665D01*
X491943Y135665D01*
X495275Y134285D01*
X497825Y131735D01*
X499205Y128403D01*
X499205Y124797D01*
X497825Y121465D01*
X495275Y118915D01*
X491943Y117535D01*
X473257Y117535D01*
G37*
%LPD*%
%LPC*%
G36*
X333557Y117535D02*
X333557Y117535D01*
X330225Y118915D01*
X327675Y121465D01*
X326295Y124797D01*
X326295Y128403D01*
X327675Y131735D01*
X330225Y134285D01*
X333557Y135665D01*
X352243Y135665D01*
X355575Y134285D01*
X358125Y131735D01*
X359505Y128403D01*
X359505Y124797D01*
X358125Y121465D01*
X355575Y118915D01*
X352243Y117535D01*
X333557Y117535D01*
G37*
%LPD*%
%LPC*%
G36*
X193857Y117535D02*
X193857Y117535D01*
X190525Y118915D01*
X187975Y121465D01*
X186595Y124797D01*
X186595Y128403D01*
X187975Y131735D01*
X190525Y134285D01*
X193857Y135665D01*
X212543Y135665D01*
X215875Y134285D01*
X218425Y131735D01*
X219805Y128403D01*
X219805Y124797D01*
X218425Y121465D01*
X215875Y118915D01*
X212543Y117535D01*
X193857Y117535D01*
G37*
%LPD*%
%LPC*%
G36*
X112097Y567595D02*
X112097Y567595D01*
X108765Y568975D01*
X106215Y571525D01*
X104835Y574857D01*
X104835Y593543D01*
X106215Y596875D01*
X108765Y599425D01*
X112097Y600805D01*
X115703Y600805D01*
X119035Y599425D01*
X121585Y596875D01*
X122965Y593543D01*
X122965Y574857D01*
X121585Y571525D01*
X119035Y568975D01*
X115703Y567595D01*
X112097Y567595D01*
G37*
%LPD*%
%LPC*%
G36*
X87097Y567595D02*
X87097Y567595D01*
X83765Y568975D01*
X81215Y571525D01*
X79835Y574857D01*
X79835Y593543D01*
X81215Y596875D01*
X83765Y599425D01*
X87097Y600805D01*
X90703Y600805D01*
X94035Y599425D01*
X96585Y596875D01*
X97965Y593543D01*
X97965Y574857D01*
X96585Y571525D01*
X94035Y568975D01*
X90703Y567595D01*
X87097Y567595D01*
G37*
%LPD*%
%LPC*%
G36*
X66857Y117535D02*
X66857Y117535D01*
X63525Y118915D01*
X60975Y121465D01*
X59595Y124797D01*
X59595Y128403D01*
X60975Y131735D01*
X63525Y134285D01*
X66857Y135665D01*
X85543Y135665D01*
X88875Y134285D01*
X91425Y131735D01*
X92805Y128403D01*
X92805Y124797D01*
X91425Y121465D01*
X88875Y118915D01*
X85543Y117535D01*
X66857Y117535D01*
G37*
%LPD*%
%LPC*%
G36*
X778057Y485835D02*
X778057Y485835D01*
X774725Y487215D01*
X772175Y489765D01*
X770795Y493097D01*
X770795Y496703D01*
X772175Y500035D01*
X774725Y502585D01*
X778057Y503965D01*
X796743Y503965D01*
X800075Y502585D01*
X802625Y500035D01*
X804005Y496703D01*
X804005Y493097D01*
X802625Y489765D01*
X800075Y487215D01*
X796743Y485835D01*
X778057Y485835D01*
G37*
%LPD*%
%LPC*%
G36*
X651057Y485835D02*
X651057Y485835D01*
X647725Y487215D01*
X645175Y489765D01*
X643795Y493097D01*
X643795Y496703D01*
X645175Y500035D01*
X647725Y502585D01*
X651057Y503965D01*
X669743Y503965D01*
X673075Y502585D01*
X675625Y500035D01*
X677005Y496703D01*
X677005Y493097D01*
X675625Y489765D01*
X673075Y487215D01*
X669743Y485835D01*
X651057Y485835D01*
G37*
%LPD*%
%LPC*%
G36*
X511357Y485835D02*
X511357Y485835D01*
X508025Y487215D01*
X505475Y489765D01*
X504095Y493097D01*
X504095Y496703D01*
X505475Y500035D01*
X508025Y502585D01*
X511357Y503965D01*
X530043Y503965D01*
X533375Y502585D01*
X535925Y500035D01*
X537305Y496703D01*
X537305Y493097D01*
X535925Y489765D01*
X533375Y487215D01*
X530043Y485835D01*
X511357Y485835D01*
G37*
%LPD*%
%LPC*%
G36*
X371657Y485835D02*
X371657Y485835D01*
X368325Y487215D01*
X365775Y489765D01*
X364395Y493097D01*
X364395Y496703D01*
X365775Y500035D01*
X368325Y502585D01*
X371657Y503965D01*
X390343Y503965D01*
X393675Y502585D01*
X396225Y500035D01*
X397605Y496703D01*
X397605Y493097D01*
X396225Y489765D01*
X393675Y487215D01*
X390343Y485835D01*
X371657Y485835D01*
G37*
%LPD*%
%LPC*%
G36*
X231957Y485835D02*
X231957Y485835D01*
X228625Y487215D01*
X226075Y489765D01*
X224695Y493097D01*
X224695Y496703D01*
X226075Y500035D01*
X228625Y502585D01*
X231957Y503965D01*
X250643Y503965D01*
X253975Y502585D01*
X256525Y500035D01*
X257905Y496703D01*
X257905Y493097D01*
X256525Y489765D01*
X253975Y487215D01*
X250643Y485835D01*
X231957Y485835D01*
G37*
%LPD*%
%LPC*%
G36*
X778057Y460835D02*
X778057Y460835D01*
X774725Y462215D01*
X772175Y464765D01*
X770795Y468097D01*
X770795Y471703D01*
X772175Y475035D01*
X774725Y477585D01*
X778057Y478965D01*
X796743Y478965D01*
X800075Y477585D01*
X802625Y475035D01*
X804005Y471703D01*
X804005Y468097D01*
X802625Y464765D01*
X800075Y462215D01*
X796743Y460835D01*
X778057Y460835D01*
G37*
%LPD*%
%LPC*%
G36*
X651057Y460835D02*
X651057Y460835D01*
X647725Y462215D01*
X645175Y464765D01*
X643795Y468097D01*
X643795Y471703D01*
X645175Y475035D01*
X647725Y477585D01*
X651057Y478965D01*
X669743Y478965D01*
X673075Y477585D01*
X675625Y475035D01*
X677005Y471703D01*
X677005Y468097D01*
X675625Y464765D01*
X673075Y462215D01*
X669743Y460835D01*
X651057Y460835D01*
G37*
%LPD*%
%LPC*%
G36*
X511357Y460835D02*
X511357Y460835D01*
X508025Y462215D01*
X505475Y464765D01*
X504095Y468097D01*
X504095Y471703D01*
X505475Y475035D01*
X508025Y477585D01*
X511357Y478965D01*
X530043Y478965D01*
X533375Y477585D01*
X535925Y475035D01*
X537305Y471703D01*
X537305Y468097D01*
X535925Y464765D01*
X533375Y462215D01*
X530043Y460835D01*
X511357Y460835D01*
G37*
%LPD*%
%LPC*%
G36*
X371657Y460835D02*
X371657Y460835D01*
X368325Y462215D01*
X365775Y464765D01*
X364395Y468097D01*
X364395Y471703D01*
X365775Y475035D01*
X368325Y477585D01*
X371657Y478965D01*
X390343Y478965D01*
X393675Y477585D01*
X396225Y475035D01*
X397605Y471703D01*
X397605Y468097D01*
X396225Y464765D01*
X393675Y462215D01*
X390343Y460835D01*
X371657Y460835D01*
G37*
%LPD*%
%LPC*%
G36*
X231957Y460835D02*
X231957Y460835D01*
X228625Y462215D01*
X226075Y464765D01*
X224695Y468097D01*
X224695Y471703D01*
X226075Y475035D01*
X228625Y477585D01*
X231957Y478965D01*
X250643Y478965D01*
X253975Y477585D01*
X256525Y475035D01*
X257905Y471703D01*
X257905Y468097D01*
X256525Y464765D01*
X253975Y462215D01*
X250643Y460835D01*
X231957Y460835D01*
G37*
%LPD*%
%LPC*%
G36*
X752657Y92535D02*
X752657Y92535D01*
X749325Y93915D01*
X746775Y96465D01*
X745395Y99797D01*
X745395Y103403D01*
X746775Y106735D01*
X749325Y109285D01*
X752657Y110665D01*
X771343Y110665D01*
X774675Y109285D01*
X777225Y106735D01*
X778605Y103403D01*
X778605Y99797D01*
X777225Y96465D01*
X774675Y93915D01*
X771343Y92535D01*
X752657Y92535D01*
G37*
%LPD*%
%LPC*%
G36*
X612957Y92535D02*
X612957Y92535D01*
X609625Y93915D01*
X607075Y96465D01*
X605695Y99797D01*
X605695Y103403D01*
X607075Y106735D01*
X609625Y109285D01*
X612957Y110665D01*
X631643Y110665D01*
X634975Y109285D01*
X637525Y106735D01*
X638905Y103403D01*
X638905Y99797D01*
X637525Y96465D01*
X634975Y93915D01*
X631643Y92535D01*
X612957Y92535D01*
G37*
%LPD*%
%LPC*%
G36*
X333557Y92535D02*
X333557Y92535D01*
X330225Y93915D01*
X327675Y96465D01*
X326295Y99797D01*
X326295Y103403D01*
X327675Y106735D01*
X330225Y109285D01*
X333557Y110665D01*
X352243Y110665D01*
X355575Y109285D01*
X358125Y106735D01*
X359505Y103403D01*
X359505Y99797D01*
X358125Y96465D01*
X355575Y93915D01*
X352243Y92535D01*
X333557Y92535D01*
G37*
%LPD*%
%LPC*%
G36*
X193857Y92535D02*
X193857Y92535D01*
X190525Y93915D01*
X187975Y96465D01*
X186595Y99797D01*
X186595Y103403D01*
X187975Y106735D01*
X190525Y109285D01*
X193857Y110665D01*
X212543Y110665D01*
X215875Y109285D01*
X218425Y106735D01*
X219805Y103403D01*
X219805Y99797D01*
X218425Y96465D01*
X215875Y93915D01*
X212543Y92535D01*
X193857Y92535D01*
G37*
%LPD*%
%LPC*%
G36*
X66857Y92535D02*
X66857Y92535D01*
X63525Y93915D01*
X60975Y96465D01*
X59595Y99797D01*
X59595Y103403D01*
X60975Y106735D01*
X63525Y109285D01*
X66857Y110665D01*
X85543Y110665D01*
X88875Y109285D01*
X91425Y106735D01*
X92805Y103403D01*
X92805Y99797D01*
X91425Y96465D01*
X88875Y93915D01*
X85543Y92535D01*
X66857Y92535D01*
G37*
%LPD*%
%LPC*%
G36*
X854257Y245335D02*
X854257Y245335D01*
X850925Y246715D01*
X848375Y249265D01*
X846995Y252597D01*
X846995Y256203D01*
X848375Y259535D01*
X850925Y262085D01*
X854257Y263465D01*
X872943Y263465D01*
X876275Y262085D01*
X878825Y259535D01*
X880205Y256203D01*
X880205Y252597D01*
X878825Y249265D01*
X876275Y246715D01*
X872943Y245335D01*
X854257Y245335D01*
G37*
%LPD*%
%LPC*%
G36*
X752657Y282635D02*
X752657Y282635D01*
X749325Y284015D01*
X746775Y286565D01*
X745395Y289897D01*
X745395Y293503D01*
X746775Y296835D01*
X749325Y299385D01*
X752657Y300765D01*
X771343Y300765D01*
X774675Y299385D01*
X777225Y296835D01*
X778605Y293503D01*
X778605Y289897D01*
X777225Y286565D01*
X774675Y284015D01*
X771343Y282635D01*
X752657Y282635D01*
G37*
%LPD*%
%LPC*%
G36*
X854257Y270335D02*
X854257Y270335D01*
X850925Y271715D01*
X848375Y274265D01*
X846995Y277597D01*
X846995Y281203D01*
X848375Y284535D01*
X850925Y287085D01*
X854257Y288465D01*
X872943Y288465D01*
X876275Y287085D01*
X878825Y284535D01*
X880205Y281203D01*
X880205Y277597D01*
X878825Y274265D01*
X876275Y271715D01*
X872943Y270335D01*
X854257Y270335D01*
G37*
%LPD*%
%LPC*%
G36*
X612957Y269935D02*
X612957Y269935D01*
X609625Y271315D01*
X607075Y273865D01*
X605695Y277197D01*
X605695Y280803D01*
X607075Y284135D01*
X609625Y286685D01*
X612957Y288065D01*
X631643Y288065D01*
X634975Y286685D01*
X637525Y284135D01*
X638905Y280803D01*
X638905Y277197D01*
X637525Y273865D01*
X634975Y271315D01*
X631643Y269935D01*
X612957Y269935D01*
G37*
%LPD*%
%LPC*%
G36*
X473257Y269935D02*
X473257Y269935D01*
X469925Y271315D01*
X467375Y273865D01*
X465995Y277197D01*
X465995Y280803D01*
X467375Y284135D01*
X469925Y286685D01*
X473257Y288065D01*
X491943Y288065D01*
X495275Y286685D01*
X497825Y284135D01*
X499205Y280803D01*
X499205Y277197D01*
X497825Y273865D01*
X495275Y271315D01*
X491943Y269935D01*
X473257Y269935D01*
G37*
%LPD*%
%LPC*%
G36*
X333557Y269935D02*
X333557Y269935D01*
X330225Y271315D01*
X327675Y273865D01*
X326295Y277197D01*
X326295Y280803D01*
X327675Y284135D01*
X330225Y286685D01*
X333557Y288065D01*
X352243Y288065D01*
X355575Y286685D01*
X358125Y284135D01*
X359505Y280803D01*
X359505Y277197D01*
X358125Y273865D01*
X355575Y271315D01*
X352243Y269935D01*
X333557Y269935D01*
G37*
%LPD*%
%LPC*%
G36*
X193857Y269935D02*
X193857Y269935D01*
X190525Y271315D01*
X187975Y273865D01*
X186595Y277197D01*
X186595Y280803D01*
X187975Y284135D01*
X190525Y286685D01*
X193857Y288065D01*
X212543Y288065D01*
X215875Y286685D01*
X218425Y284135D01*
X219805Y280803D01*
X219805Y277197D01*
X218425Y273865D01*
X215875Y271315D01*
X212543Y269935D01*
X193857Y269935D01*
G37*
%LPD*%
%LPC*%
G36*
X66857Y269935D02*
X66857Y269935D01*
X63525Y271315D01*
X60975Y273865D01*
X59595Y277197D01*
X59595Y280803D01*
X60975Y284135D01*
X63525Y286685D01*
X66857Y288065D01*
X85543Y288065D01*
X88875Y286685D01*
X91425Y284135D01*
X92805Y280803D01*
X92805Y277197D01*
X91425Y273865D01*
X88875Y271315D01*
X85543Y269935D01*
X66857Y269935D01*
G37*
%LPD*%
%LPC*%
G36*
X752657Y257635D02*
X752657Y257635D01*
X749325Y259015D01*
X746775Y261565D01*
X745395Y264897D01*
X745395Y268503D01*
X746775Y271835D01*
X749325Y274385D01*
X752657Y275765D01*
X771343Y275765D01*
X774675Y274385D01*
X777225Y271835D01*
X778605Y268503D01*
X778605Y264897D01*
X777225Y261565D01*
X774675Y259015D01*
X771343Y257635D01*
X752657Y257635D01*
G37*
%LPD*%
%LPC*%
G36*
X612957Y244935D02*
X612957Y244935D01*
X609625Y246315D01*
X607075Y248865D01*
X605695Y252197D01*
X605695Y255803D01*
X607075Y259135D01*
X609625Y261685D01*
X612957Y263065D01*
X631643Y263065D01*
X634975Y261685D01*
X637525Y259135D01*
X638905Y255803D01*
X638905Y252197D01*
X637525Y248865D01*
X634975Y246315D01*
X631643Y244935D01*
X612957Y244935D01*
G37*
%LPD*%
%LPC*%
G36*
X473257Y244935D02*
X473257Y244935D01*
X469925Y246315D01*
X467375Y248865D01*
X465995Y252197D01*
X465995Y255803D01*
X467375Y259135D01*
X469925Y261685D01*
X473257Y263065D01*
X491943Y263065D01*
X495275Y261685D01*
X497825Y259135D01*
X499205Y255803D01*
X499205Y252197D01*
X497825Y248865D01*
X495275Y246315D01*
X491943Y244935D01*
X473257Y244935D01*
G37*
%LPD*%
%LPC*%
G36*
X333557Y244935D02*
X333557Y244935D01*
X330225Y246315D01*
X327675Y248865D01*
X326295Y252197D01*
X326295Y255803D01*
X327675Y259135D01*
X330225Y261685D01*
X333557Y263065D01*
X352243Y263065D01*
X355575Y261685D01*
X358125Y259135D01*
X359505Y255803D01*
X359505Y252197D01*
X358125Y248865D01*
X355575Y246315D01*
X352243Y244935D01*
X333557Y244935D01*
G37*
%LPD*%
%LPC*%
G36*
X193857Y244935D02*
X193857Y244935D01*
X190525Y246315D01*
X187975Y248865D01*
X186595Y252197D01*
X186595Y255803D01*
X187975Y259135D01*
X190525Y261685D01*
X193857Y263065D01*
X212543Y263065D01*
X215875Y261685D01*
X218425Y259135D01*
X219805Y255803D01*
X219805Y252197D01*
X218425Y248865D01*
X215875Y246315D01*
X212543Y244935D01*
X193857Y244935D01*
G37*
%LPD*%
%LPC*%
G36*
X66857Y244935D02*
X66857Y244935D01*
X63525Y246315D01*
X60975Y248865D01*
X59595Y252197D01*
X59595Y255803D01*
X60975Y259135D01*
X63525Y261685D01*
X66857Y263065D01*
X85543Y263065D01*
X88875Y261685D01*
X91425Y259135D01*
X92805Y255803D01*
X92805Y252197D01*
X91425Y248865D01*
X88875Y246315D01*
X85543Y244935D01*
X66857Y244935D01*
G37*
%LPD*%
%LPC*%
G36*
X55328Y676735D02*
X55328Y676735D01*
X54435Y677628D01*
X54435Y693972D01*
X55328Y694865D01*
X71672Y694865D01*
X72565Y693972D01*
X72565Y677628D01*
X71672Y676735D01*
X55328Y676735D01*
G37*
%LPD*%
%LPC*%
G36*
X372828Y587835D02*
X372828Y587835D01*
X371935Y588728D01*
X371935Y605072D01*
X372828Y605965D01*
X389172Y605965D01*
X390065Y605072D01*
X390065Y588728D01*
X389172Y587835D01*
X372828Y587835D01*
G37*
%LPD*%
%LPC*%
G36*
X233128Y587835D02*
X233128Y587835D01*
X232235Y588728D01*
X232235Y605072D01*
X233128Y605965D01*
X249472Y605965D01*
X250365Y605072D01*
X250365Y588728D01*
X249472Y587835D01*
X233128Y587835D01*
G37*
%LPD*%
%LPC*%
G36*
X779228Y587835D02*
X779228Y587835D01*
X778335Y588728D01*
X778335Y605072D01*
X779228Y605965D01*
X795572Y605965D01*
X796465Y605072D01*
X796465Y588728D01*
X795572Y587835D01*
X779228Y587835D01*
G37*
%LPD*%
%LPC*%
G36*
X652228Y587835D02*
X652228Y587835D01*
X651335Y588728D01*
X651335Y605072D01*
X652228Y605965D01*
X668572Y605965D01*
X669465Y605072D01*
X669465Y588728D01*
X668572Y587835D01*
X652228Y587835D01*
G37*
%LPD*%
%LPC*%
G36*
X512528Y587835D02*
X512528Y587835D01*
X511635Y588728D01*
X511635Y605072D01*
X512528Y605965D01*
X528872Y605965D01*
X529765Y605072D01*
X529765Y588728D01*
X528872Y587835D01*
X512528Y587835D01*
G37*
%LPD*%
%LPC*%
G36*
X55328Y575135D02*
X55328Y575135D01*
X54435Y576028D01*
X54435Y592372D01*
X55328Y593265D01*
X71672Y593265D01*
X72565Y592372D01*
X72565Y576028D01*
X71672Y575135D01*
X55328Y575135D01*
G37*
%LPD*%
%LPC*%
G36*
X779228Y435435D02*
X779228Y435435D01*
X778335Y436328D01*
X778335Y452672D01*
X779228Y453565D01*
X795572Y453565D01*
X796465Y452672D01*
X796465Y436328D01*
X795572Y435435D01*
X779228Y435435D01*
G37*
%LPD*%
%LPC*%
G36*
X652228Y435435D02*
X652228Y435435D01*
X651335Y436328D01*
X651335Y452672D01*
X652228Y453565D01*
X668572Y453565D01*
X669465Y452672D01*
X669465Y436328D01*
X668572Y435435D01*
X652228Y435435D01*
G37*
%LPD*%
%LPC*%
G36*
X512528Y435435D02*
X512528Y435435D01*
X511635Y436328D01*
X511635Y452672D01*
X512528Y453565D01*
X528872Y453565D01*
X529765Y452672D01*
X529765Y436328D01*
X528872Y435435D01*
X512528Y435435D01*
G37*
%LPD*%
%LPC*%
G36*
X372828Y435435D02*
X372828Y435435D01*
X371935Y436328D01*
X371935Y452672D01*
X372828Y453565D01*
X389172Y453565D01*
X390065Y452672D01*
X390065Y436328D01*
X389172Y435435D01*
X372828Y435435D01*
G37*
%LPD*%
%LPC*%
G36*
X233128Y435435D02*
X233128Y435435D01*
X232235Y436328D01*
X232235Y452672D01*
X233128Y453565D01*
X249472Y453565D01*
X250365Y452672D01*
X250365Y436328D01*
X249472Y435435D01*
X233128Y435435D01*
G37*
%LPD*%
%LPC*%
G36*
X855428Y295735D02*
X855428Y295735D01*
X854535Y296628D01*
X854535Y312972D01*
X855428Y313865D01*
X871772Y313865D01*
X872665Y312972D01*
X872665Y296628D01*
X871772Y295735D01*
X855428Y295735D01*
G37*
%LPD*%
%LPC*%
G36*
X753828Y232235D02*
X753828Y232235D01*
X752935Y233128D01*
X752935Y249472D01*
X753828Y250365D01*
X770172Y250365D01*
X771065Y249472D01*
X771065Y233128D01*
X770172Y232235D01*
X753828Y232235D01*
G37*
%LPD*%
%LPC*%
G36*
X334728Y219535D02*
X334728Y219535D01*
X333835Y220428D01*
X333835Y236772D01*
X334728Y237665D01*
X351072Y237665D01*
X351965Y236772D01*
X351965Y220428D01*
X351072Y219535D01*
X334728Y219535D01*
G37*
%LPD*%
%LPC*%
G36*
X68028Y219535D02*
X68028Y219535D01*
X67135Y220428D01*
X67135Y236772D01*
X68028Y237665D01*
X84372Y237665D01*
X85265Y236772D01*
X85265Y220428D01*
X84372Y219535D01*
X68028Y219535D01*
G37*
%LPD*%
%LPC*%
G36*
X195028Y219535D02*
X195028Y219535D01*
X194135Y220428D01*
X194135Y236772D01*
X195028Y237665D01*
X211372Y237665D01*
X212265Y236772D01*
X212265Y220428D01*
X211372Y219535D01*
X195028Y219535D01*
G37*
%LPD*%
%LPC*%
G36*
X614128Y219535D02*
X614128Y219535D01*
X613235Y220428D01*
X613235Y236772D01*
X614128Y237665D01*
X630472Y237665D01*
X631365Y236772D01*
X631365Y220428D01*
X630472Y219535D01*
X614128Y219535D01*
G37*
%LPD*%
%LPC*%
G36*
X474428Y219535D02*
X474428Y219535D01*
X473535Y220428D01*
X473535Y236772D01*
X474428Y237665D01*
X490772Y237665D01*
X491665Y236772D01*
X491665Y220428D01*
X490772Y219535D01*
X474428Y219535D01*
G37*
%LPD*%
%LPC*%
G36*
X195028Y67135D02*
X195028Y67135D01*
X194135Y68028D01*
X194135Y84372D01*
X195028Y85265D01*
X211372Y85265D01*
X212265Y84372D01*
X212265Y68028D01*
X211372Y67135D01*
X195028Y67135D01*
G37*
%LPD*%
%LPC*%
G36*
X68028Y67135D02*
X68028Y67135D01*
X67135Y68028D01*
X67135Y84372D01*
X68028Y85265D01*
X84372Y85265D01*
X85265Y84372D01*
X85265Y68028D01*
X84372Y67135D01*
X68028Y67135D01*
G37*
%LPD*%
%LPC*%
G36*
X753828Y67135D02*
X753828Y67135D01*
X752935Y68028D01*
X752935Y84372D01*
X753828Y85265D01*
X770172Y85265D01*
X771065Y84372D01*
X771065Y68028D01*
X770172Y67135D01*
X753828Y67135D01*
G37*
%LPD*%
%LPC*%
G36*
X614128Y67135D02*
X614128Y67135D01*
X613235Y68028D01*
X613235Y84372D01*
X614128Y85265D01*
X630472Y85265D01*
X631365Y84372D01*
X631365Y68028D01*
X630472Y67135D01*
X614128Y67135D01*
G37*
%LPD*%
%LPC*%
G36*
X474428Y67135D02*
X474428Y67135D01*
X473535Y68028D01*
X473535Y84372D01*
X474428Y85265D01*
X490772Y85265D01*
X491665Y84372D01*
X491665Y68028D01*
X490772Y67135D01*
X474428Y67135D01*
G37*
%LPD*%
%LPC*%
G36*
X334728Y67135D02*
X334728Y67135D01*
X333835Y68028D01*
X333835Y84372D01*
X334728Y85265D01*
X351072Y85265D01*
X351965Y84372D01*
X351965Y68028D01*
X351072Y67135D01*
X334728Y67135D01*
G37*
%LPD*%
D10*
X66294Y431546D02*
X86106Y431546D01*
X86106Y381508D02*
X66294Y381508D01*
D11*
X195660Y101600D02*
X210740Y101600D01*
X210740Y126600D02*
X195660Y126600D01*
D12*
X203200Y76200D03*
D11*
X210740Y254000D02*
X195660Y254000D01*
X195660Y279000D02*
X210740Y279000D01*
D12*
X203200Y228600D03*
D11*
X335360Y254000D02*
X350440Y254000D01*
X350440Y279000D02*
X335360Y279000D01*
D12*
X342900Y228600D03*
D11*
X350440Y101600D02*
X335360Y101600D01*
X335360Y126600D02*
X350440Y126600D01*
D12*
X342900Y76200D03*
D11*
X475060Y101600D02*
X490140Y101600D01*
X490140Y126600D02*
X475060Y126600D01*
D12*
X482600Y76200D03*
D11*
X490140Y254000D02*
X475060Y254000D01*
X475060Y279000D02*
X490140Y279000D01*
D12*
X482600Y228600D03*
D11*
X614760Y254000D02*
X629840Y254000D01*
X629840Y279000D02*
X614760Y279000D01*
D12*
X622300Y228600D03*
D11*
X629840Y101600D02*
X614760Y101600D01*
X614760Y126600D02*
X629840Y126600D01*
D12*
X622300Y76200D03*
D11*
X754460Y101600D02*
X769540Y101600D01*
X769540Y126600D02*
X754460Y126600D01*
D12*
X762000Y76200D03*
D11*
X769540Y266700D02*
X754460Y266700D01*
X754460Y291700D02*
X769540Y291700D01*
D12*
X762000Y241300D03*
D11*
X856060Y279400D02*
X871140Y279400D01*
X871140Y254400D02*
X856060Y254400D01*
D12*
X863600Y304800D03*
D11*
X794940Y469900D02*
X779860Y469900D01*
X779860Y494900D02*
X794940Y494900D01*
D12*
X787400Y444500D03*
D11*
X794940Y622300D02*
X779860Y622300D01*
X779860Y647300D02*
X794940Y647300D01*
D12*
X787400Y596900D03*
D11*
X667940Y622300D02*
X652860Y622300D01*
X652860Y647300D02*
X667940Y647300D01*
D12*
X660400Y596900D03*
D11*
X667940Y469900D02*
X652860Y469900D01*
X652860Y494900D02*
X667940Y494900D01*
D12*
X660400Y444500D03*
D11*
X528240Y469900D02*
X513160Y469900D01*
X513160Y494900D02*
X528240Y494900D01*
D12*
X520700Y444500D03*
D11*
X528240Y622300D02*
X513160Y622300D01*
X513160Y647300D02*
X528240Y647300D01*
D12*
X520700Y596900D03*
D11*
X388540Y622300D02*
X373460Y622300D01*
X373460Y647300D02*
X388540Y647300D01*
D12*
X381000Y596900D03*
D11*
X388540Y469900D02*
X373460Y469900D01*
X373460Y494900D02*
X388540Y494900D01*
D12*
X381000Y444500D03*
D11*
X248840Y469900D02*
X233760Y469900D01*
X233760Y494900D02*
X248840Y494900D01*
D12*
X241300Y444500D03*
D11*
X248840Y622300D02*
X233760Y622300D01*
X233760Y647300D02*
X248840Y647300D01*
D12*
X241300Y596900D03*
D11*
X88900Y678260D02*
X88900Y693340D01*
X113900Y693340D02*
X113900Y678260D01*
D12*
X63500Y685800D03*
D11*
X88900Y591740D02*
X88900Y576660D01*
X113900Y576660D02*
X113900Y591740D01*
D12*
X63500Y584200D03*
D11*
X68660Y254000D02*
X83740Y254000D01*
X83740Y279000D02*
X68660Y279000D01*
D12*
X76200Y228600D03*
D11*
X83740Y101600D02*
X68660Y101600D01*
X68660Y126600D02*
X83740Y126600D01*
D12*
X76200Y76200D03*
M02*
