G04 EAGLE Gerber RS-274X export*
G75*
%MOMM*%
%FSLAX34Y34*%
%LPD*%
%INTop Copper*%
%IPPOS*%
%AMOC8*
5,1,8,0,0,1.08239X$1,22.5*%
G01*
%ADD10C,1.981200*%
%ADD11C,1.508000*%
%ADD12R,1.508000X1.508000*%
%ADD13C,2.540000*%
%ADD14C,0.812800*%
%ADD15C,0.609600*%

G36*
X902322Y-15230D02*
X902322Y-15230D01*
X902436Y-15231D01*
X902567Y-15210D01*
X902700Y-15199D01*
X902810Y-15172D01*
X902923Y-15154D01*
X903050Y-15113D01*
X903179Y-15081D01*
X903283Y-15036D01*
X903392Y-15000D01*
X903510Y-14938D01*
X903632Y-14886D01*
X903728Y-14825D01*
X903830Y-14772D01*
X903903Y-14713D01*
X904048Y-14621D01*
X904290Y-14405D01*
X904363Y-14347D01*
X941955Y23245D01*
X942029Y23332D01*
X942110Y23413D01*
X942188Y23520D01*
X942274Y23621D01*
X942333Y23719D01*
X942400Y23811D01*
X942460Y23930D01*
X942529Y24044D01*
X942571Y24150D01*
X942623Y24252D01*
X942663Y24379D01*
X942712Y24502D01*
X942737Y24613D01*
X942771Y24722D01*
X942781Y24816D01*
X942819Y24984D01*
X942837Y25308D01*
X942847Y25400D01*
X942847Y647700D01*
X942838Y647814D01*
X942839Y647928D01*
X942818Y648059D01*
X942807Y648192D01*
X942780Y648302D01*
X942762Y648415D01*
X942721Y648542D01*
X942689Y648671D01*
X942644Y648775D01*
X942608Y648884D01*
X942546Y649002D01*
X942494Y649124D01*
X942433Y649220D01*
X942380Y649322D01*
X942321Y649395D01*
X942229Y649540D01*
X942013Y649782D01*
X941955Y649855D01*
X827655Y764155D01*
X827568Y764229D01*
X827487Y764310D01*
X827380Y764388D01*
X827279Y764474D01*
X827181Y764533D01*
X827089Y764600D01*
X826970Y764660D01*
X826856Y764729D01*
X826750Y764771D01*
X826648Y764823D01*
X826521Y764863D01*
X826398Y764912D01*
X826287Y764937D01*
X826178Y764971D01*
X826084Y764981D01*
X825917Y765019D01*
X825592Y765037D01*
X825500Y765047D01*
X0Y765047D01*
X-114Y765038D01*
X-228Y765039D01*
X-359Y765018D01*
X-492Y765007D01*
X-602Y764980D01*
X-715Y764962D01*
X-842Y764921D01*
X-971Y764889D01*
X-1075Y764844D01*
X-1184Y764808D01*
X-1302Y764746D01*
X-1424Y764694D01*
X-1520Y764633D01*
X-1622Y764580D01*
X-1695Y764521D01*
X-1840Y764429D01*
X-2082Y764213D01*
X-2155Y764155D01*
X-14855Y751455D01*
X-14929Y751368D01*
X-15010Y751287D01*
X-15088Y751180D01*
X-15174Y751079D01*
X-15233Y750981D01*
X-15300Y750889D01*
X-15360Y750770D01*
X-15429Y750656D01*
X-15471Y750550D01*
X-15523Y750448D01*
X-15563Y750321D01*
X-15612Y750198D01*
X-15637Y750087D01*
X-15671Y749978D01*
X-15681Y749884D01*
X-15719Y749717D01*
X-15737Y749392D01*
X-15747Y749300D01*
X-15747Y38100D01*
X-15738Y37986D01*
X-15739Y37872D01*
X-15718Y37741D01*
X-15707Y37608D01*
X-15680Y37498D01*
X-15662Y37385D01*
X-15621Y37258D01*
X-15589Y37129D01*
X-15544Y37025D01*
X-15508Y36916D01*
X-15446Y36798D01*
X-15394Y36676D01*
X-15333Y36580D01*
X-15280Y36478D01*
X-15221Y36405D01*
X-15129Y36260D01*
X-14913Y36018D01*
X-14855Y35945D01*
X35437Y-14347D01*
X35524Y-14421D01*
X35605Y-14502D01*
X35712Y-14580D01*
X35813Y-14666D01*
X35911Y-14725D01*
X36003Y-14792D01*
X36122Y-14852D01*
X36236Y-14921D01*
X36342Y-14963D01*
X36444Y-15015D01*
X36571Y-15055D01*
X36694Y-15104D01*
X36805Y-15129D01*
X36914Y-15163D01*
X37008Y-15173D01*
X37176Y-15211D01*
X37500Y-15229D01*
X37592Y-15239D01*
X902208Y-15239D01*
X902322Y-15230D01*
G37*
%LPC*%
G36*
X66857Y92535D02*
X66857Y92535D01*
X63525Y93915D01*
X60975Y96465D01*
X59595Y99797D01*
X59595Y103403D01*
X60975Y106735D01*
X63525Y109285D01*
X66857Y110665D01*
X85543Y110665D01*
X88875Y109285D01*
X90078Y108081D01*
X90165Y108007D01*
X90245Y107926D01*
X90353Y107848D01*
X90454Y107762D01*
X90552Y107703D01*
X90644Y107636D01*
X90763Y107576D01*
X90877Y107507D01*
X90983Y107465D01*
X91085Y107413D01*
X91212Y107373D01*
X91335Y107324D01*
X91446Y107299D01*
X91555Y107265D01*
X91649Y107255D01*
X91816Y107217D01*
X92141Y107199D01*
X92233Y107189D01*
X110723Y107189D01*
X110837Y107198D01*
X110951Y107197D01*
X111082Y107218D01*
X111215Y107229D01*
X111325Y107256D01*
X111438Y107274D01*
X111565Y107315D01*
X111693Y107347D01*
X111798Y107392D01*
X111907Y107428D01*
X112025Y107490D01*
X112147Y107542D01*
X112243Y107603D01*
X112344Y107656D01*
X112418Y107715D01*
X112563Y107807D01*
X112805Y108023D01*
X112878Y108081D01*
X120519Y115722D01*
X120593Y115809D01*
X120674Y115890D01*
X120752Y115997D01*
X120838Y116098D01*
X120897Y116196D01*
X120964Y116288D01*
X121024Y116407D01*
X121093Y116521D01*
X121135Y116627D01*
X121187Y116729D01*
X121227Y116856D01*
X121276Y116979D01*
X121301Y117090D01*
X121335Y117199D01*
X121345Y117293D01*
X121383Y117461D01*
X121401Y117785D01*
X121411Y117877D01*
X121411Y246336D01*
X121397Y246516D01*
X121390Y246696D01*
X121377Y246761D01*
X121371Y246828D01*
X121328Y247003D01*
X121292Y247180D01*
X121269Y247242D01*
X121253Y247306D01*
X121181Y247472D01*
X121118Y247641D01*
X121084Y247699D01*
X121058Y247760D01*
X120961Y247912D01*
X120871Y248068D01*
X120829Y248120D01*
X120793Y248176D01*
X120673Y248310D01*
X120558Y248450D01*
X120509Y248494D01*
X120464Y248544D01*
X120324Y248657D01*
X120189Y248777D01*
X120132Y248812D01*
X120080Y248854D01*
X119924Y248943D01*
X119771Y249039D01*
X119709Y249065D01*
X119652Y249098D01*
X119482Y249160D01*
X119316Y249231D01*
X119252Y249246D01*
X119189Y249269D01*
X119012Y249304D01*
X118837Y249346D01*
X118770Y249351D01*
X118705Y249364D01*
X118525Y249370D01*
X118345Y249383D01*
X118278Y249377D01*
X118212Y249379D01*
X118033Y249356D01*
X117853Y249340D01*
X117803Y249325D01*
X117723Y249315D01*
X117251Y249172D01*
X117220Y249158D01*
X117198Y249151D01*
X115412Y248411D01*
X92233Y248411D01*
X92119Y248402D01*
X92005Y248403D01*
X91874Y248382D01*
X91741Y248371D01*
X91630Y248344D01*
X91518Y248326D01*
X91391Y248285D01*
X91262Y248253D01*
X91158Y248208D01*
X91049Y248172D01*
X90931Y248110D01*
X90809Y248058D01*
X90713Y247997D01*
X90611Y247944D01*
X90538Y247885D01*
X90393Y247793D01*
X90151Y247577D01*
X90078Y247519D01*
X88875Y246315D01*
X85543Y244935D01*
X66857Y244935D01*
X63525Y246315D01*
X60975Y248865D01*
X59595Y252197D01*
X59595Y255803D01*
X60975Y259135D01*
X63525Y261685D01*
X66857Y263065D01*
X85543Y263065D01*
X88875Y261685D01*
X90078Y260481D01*
X90165Y260407D01*
X90245Y260326D01*
X90353Y260248D01*
X90454Y260162D01*
X90552Y260103D01*
X90644Y260036D01*
X90763Y259976D01*
X90877Y259907D01*
X90983Y259865D01*
X91085Y259813D01*
X91212Y259773D01*
X91335Y259724D01*
X91446Y259699D01*
X91555Y259665D01*
X91649Y259655D01*
X91816Y259617D01*
X92141Y259599D01*
X92233Y259589D01*
X110723Y259589D01*
X110837Y259598D01*
X110951Y259597D01*
X111082Y259618D01*
X111215Y259629D01*
X111325Y259656D01*
X111438Y259674D01*
X111565Y259715D01*
X111693Y259747D01*
X111798Y259792D01*
X111907Y259828D01*
X112025Y259890D01*
X112147Y259942D01*
X112243Y260003D01*
X112344Y260056D01*
X112418Y260115D01*
X112563Y260207D01*
X112805Y260423D01*
X112878Y260481D01*
X120519Y268122D01*
X120593Y268209D01*
X120674Y268290D01*
X120752Y268397D01*
X120838Y268498D01*
X120897Y268596D01*
X120964Y268688D01*
X121024Y268807D01*
X121093Y268921D01*
X121135Y269027D01*
X121187Y269129D01*
X121227Y269256D01*
X121276Y269379D01*
X121301Y269490D01*
X121335Y269599D01*
X121345Y269693D01*
X121383Y269861D01*
X121401Y270185D01*
X121411Y270277D01*
X121411Y344012D01*
X122262Y346066D01*
X124263Y348066D01*
X125070Y348873D01*
X125094Y348902D01*
X125123Y348928D01*
X125254Y349090D01*
X125389Y349249D01*
X125409Y349282D01*
X125433Y349312D01*
X125536Y349493D01*
X125644Y349672D01*
X125658Y349707D01*
X125677Y349740D01*
X125749Y349936D01*
X125827Y350130D01*
X125835Y350167D01*
X125848Y350203D01*
X125888Y350407D01*
X125934Y350611D01*
X125936Y350650D01*
X125943Y350687D01*
X125949Y350895D01*
X125961Y351104D01*
X125957Y351142D01*
X125958Y351180D01*
X125931Y351386D01*
X125909Y351595D01*
X125899Y351631D01*
X125894Y351669D01*
X125834Y351870D01*
X125778Y352070D01*
X125763Y352105D01*
X125751Y352142D01*
X125660Y352329D01*
X125573Y352519D01*
X125551Y352550D01*
X125535Y352585D01*
X125414Y352754D01*
X125297Y352928D01*
X125271Y352956D01*
X125249Y352987D01*
X125103Y353135D01*
X124959Y353288D01*
X124929Y353311D01*
X124902Y353338D01*
X124734Y353460D01*
X124568Y353588D01*
X124534Y353606D01*
X124504Y353628D01*
X124317Y353722D01*
X124133Y353821D01*
X124097Y353833D01*
X124063Y353851D01*
X123864Y353913D01*
X123667Y353981D01*
X123629Y353987D01*
X123593Y353999D01*
X123500Y354009D01*
X123180Y354064D01*
X123008Y354065D01*
X122915Y354075D01*
X86578Y354075D01*
X81350Y356241D01*
X76920Y360671D01*
X68406Y369185D01*
X68320Y369259D01*
X68239Y369340D01*
X68132Y369418D01*
X68031Y369504D01*
X67933Y369563D01*
X67840Y369630D01*
X67722Y369690D01*
X67608Y369759D01*
X67502Y369801D01*
X67400Y369853D01*
X67273Y369893D01*
X67150Y369942D01*
X67039Y369967D01*
X66929Y370001D01*
X66836Y370011D01*
X66668Y370049D01*
X66344Y370067D01*
X66252Y370077D01*
X64020Y370077D01*
X59819Y371817D01*
X56603Y375033D01*
X54863Y379234D01*
X54863Y383782D01*
X56603Y387983D01*
X59819Y391199D01*
X64020Y392939D01*
X66252Y392939D01*
X66366Y392948D01*
X66480Y392947D01*
X66611Y392968D01*
X66743Y392979D01*
X66854Y393006D01*
X66967Y393024D01*
X67094Y393065D01*
X67222Y393097D01*
X67327Y393143D01*
X67436Y393178D01*
X67554Y393240D01*
X67676Y393292D01*
X67772Y393353D01*
X67874Y393406D01*
X67947Y393465D01*
X68043Y393526D01*
X73370Y395733D01*
X79030Y395733D01*
X84349Y393530D01*
X84369Y393512D01*
X84467Y393453D01*
X84560Y393386D01*
X84678Y393326D01*
X84792Y393257D01*
X84898Y393215D01*
X85000Y393163D01*
X85127Y393123D01*
X85250Y393074D01*
X85361Y393049D01*
X85471Y393015D01*
X85564Y393005D01*
X85731Y392967D01*
X86056Y392949D01*
X86148Y392939D01*
X88380Y392939D01*
X92581Y391199D01*
X95796Y387983D01*
X97278Y384406D01*
X97378Y384211D01*
X97474Y384015D01*
X97490Y383992D01*
X97503Y383967D01*
X97633Y383791D01*
X97759Y383613D01*
X97779Y383593D01*
X97796Y383570D01*
X97953Y383417D01*
X98106Y383262D01*
X98129Y383245D01*
X98149Y383225D01*
X98328Y383100D01*
X98505Y382972D01*
X98530Y382959D01*
X98553Y382943D01*
X98750Y382848D01*
X98945Y382749D01*
X98972Y382741D01*
X98998Y382728D01*
X99207Y382667D01*
X99416Y382601D01*
X99439Y382598D01*
X99471Y382589D01*
X99961Y382528D01*
X100041Y382531D01*
X100093Y382525D01*
X106659Y382525D01*
X106773Y382534D01*
X106887Y382533D01*
X107018Y382554D01*
X107151Y382565D01*
X107261Y382592D01*
X107374Y382610D01*
X107501Y382651D01*
X107629Y382683D01*
X107734Y382728D01*
X107843Y382764D01*
X107961Y382826D01*
X108083Y382878D01*
X108179Y382939D01*
X108280Y382992D01*
X108354Y383051D01*
X108499Y383143D01*
X108741Y383359D01*
X108814Y383417D01*
X120519Y395122D01*
X120593Y395209D01*
X120674Y395290D01*
X120752Y395397D01*
X120838Y395498D01*
X120897Y395596D01*
X120964Y395688D01*
X121024Y395807D01*
X121093Y395921D01*
X121135Y396027D01*
X121187Y396129D01*
X121227Y396256D01*
X121276Y396379D01*
X121301Y396490D01*
X121335Y396599D01*
X121345Y396693D01*
X121383Y396861D01*
X121401Y397185D01*
X121411Y397277D01*
X121411Y479023D01*
X121402Y479137D01*
X121403Y479251D01*
X121382Y479382D01*
X121371Y479515D01*
X121344Y479625D01*
X121326Y479738D01*
X121285Y479865D01*
X121253Y479993D01*
X121208Y480098D01*
X121172Y480207D01*
X121110Y480325D01*
X121058Y480447D01*
X120997Y480543D01*
X120944Y480644D01*
X120885Y480718D01*
X120793Y480863D01*
X120577Y481105D01*
X120519Y481178D01*
X84162Y517534D01*
X83311Y519588D01*
X83311Y568167D01*
X83302Y568281D01*
X83303Y568395D01*
X83282Y568526D01*
X83271Y568659D01*
X83244Y568770D01*
X83226Y568882D01*
X83185Y569009D01*
X83153Y569138D01*
X83108Y569242D01*
X83072Y569351D01*
X83010Y569469D01*
X82958Y569591D01*
X82897Y569687D01*
X82844Y569789D01*
X82785Y569862D01*
X82693Y570007D01*
X82477Y570249D01*
X82419Y570322D01*
X81215Y571525D01*
X79835Y574857D01*
X79835Y593543D01*
X81215Y596875D01*
X82419Y598078D01*
X82493Y598165D01*
X82574Y598245D01*
X82652Y598353D01*
X82738Y598454D01*
X82797Y598552D01*
X82864Y598644D01*
X82924Y598763D01*
X82993Y598877D01*
X83035Y598983D01*
X83087Y599085D01*
X83127Y599212D01*
X83176Y599335D01*
X83201Y599446D01*
X83235Y599555D01*
X83245Y599649D01*
X83283Y599816D01*
X83291Y599956D01*
X83292Y599964D01*
X83294Y600010D01*
X83301Y600141D01*
X83311Y600233D01*
X83311Y669767D01*
X83302Y669881D01*
X83303Y669995D01*
X83282Y670127D01*
X83271Y670259D01*
X83244Y670369D01*
X83226Y670482D01*
X83185Y670609D01*
X83153Y670738D01*
X83108Y670842D01*
X83072Y670951D01*
X83010Y671069D01*
X82958Y671191D01*
X82897Y671287D01*
X82844Y671389D01*
X82785Y671462D01*
X82693Y671607D01*
X82477Y671849D01*
X82419Y671922D01*
X81215Y673125D01*
X79835Y676457D01*
X79835Y695143D01*
X81215Y698475D01*
X83765Y701025D01*
X87097Y702405D01*
X90703Y702405D01*
X94035Y701025D01*
X96585Y698475D01*
X97965Y695143D01*
X97965Y676457D01*
X96585Y673125D01*
X95381Y671922D01*
X95307Y671835D01*
X95226Y671755D01*
X95148Y671647D01*
X95062Y671546D01*
X95003Y671448D01*
X94936Y671356D01*
X94876Y671237D01*
X94807Y671123D01*
X94765Y671017D01*
X94713Y670915D01*
X94673Y670789D01*
X94624Y670665D01*
X94599Y670554D01*
X94565Y670445D01*
X94555Y670351D01*
X94517Y670184D01*
X94499Y669859D01*
X94489Y669767D01*
X94489Y600233D01*
X94493Y600177D01*
X94493Y600153D01*
X94498Y600112D01*
X94497Y600005D01*
X94518Y599874D01*
X94529Y599741D01*
X94556Y599630D01*
X94574Y599518D01*
X94615Y599391D01*
X94647Y599262D01*
X94692Y599158D01*
X94728Y599049D01*
X94790Y598931D01*
X94842Y598809D01*
X94903Y598713D01*
X94956Y598611D01*
X95015Y598538D01*
X95107Y598393D01*
X95323Y598151D01*
X95381Y598078D01*
X96585Y596875D01*
X97965Y593543D01*
X97965Y574857D01*
X96585Y571525D01*
X95381Y570322D01*
X95307Y570235D01*
X95226Y570155D01*
X95148Y570047D01*
X95062Y569946D01*
X95003Y569848D01*
X94936Y569756D01*
X94876Y569637D01*
X94807Y569523D01*
X94765Y569417D01*
X94713Y569315D01*
X94673Y569188D01*
X94624Y569065D01*
X94599Y568954D01*
X94565Y568845D01*
X94555Y568751D01*
X94517Y568584D01*
X94499Y568259D01*
X94489Y568167D01*
X94489Y524277D01*
X94498Y524163D01*
X94497Y524049D01*
X94518Y523918D01*
X94529Y523785D01*
X94556Y523675D01*
X94574Y523562D01*
X94615Y523435D01*
X94647Y523307D01*
X94692Y523202D01*
X94728Y523093D01*
X94790Y522975D01*
X94842Y522853D01*
X94903Y522757D01*
X94956Y522656D01*
X95015Y522582D01*
X95107Y522437D01*
X95323Y522195D01*
X95381Y522122D01*
X131738Y485766D01*
X132589Y483712D01*
X132589Y392588D01*
X131738Y390534D01*
X128930Y387727D01*
X128906Y387698D01*
X128877Y387672D01*
X128746Y387510D01*
X128611Y387351D01*
X128591Y387318D01*
X128567Y387288D01*
X128464Y387107D01*
X128356Y386928D01*
X128342Y386893D01*
X128323Y386860D01*
X128251Y386664D01*
X128173Y386470D01*
X128165Y386433D01*
X128152Y386397D01*
X128112Y386192D01*
X128066Y385988D01*
X128064Y385950D01*
X128057Y385913D01*
X128051Y385705D01*
X128039Y385496D01*
X128043Y385458D01*
X128042Y385420D01*
X128069Y385213D01*
X128091Y385005D01*
X128101Y384969D01*
X128106Y384931D01*
X128166Y384731D01*
X128222Y384530D01*
X128238Y384495D01*
X128249Y384458D01*
X128340Y384271D01*
X128427Y384081D01*
X128449Y384050D01*
X128465Y384015D01*
X128586Y383845D01*
X128703Y383672D01*
X128729Y383644D01*
X128751Y383613D01*
X128898Y383464D01*
X129041Y383312D01*
X129071Y383289D01*
X129098Y383262D01*
X129267Y383139D01*
X129432Y383012D01*
X129466Y382994D01*
X129496Y382972D01*
X129682Y382878D01*
X129867Y382779D01*
X129903Y382766D01*
X129937Y382749D01*
X130136Y382687D01*
X130333Y382619D01*
X130371Y382613D01*
X130407Y382601D01*
X130500Y382591D01*
X130820Y382536D01*
X130992Y382535D01*
X131085Y382525D01*
X271759Y382525D01*
X271873Y382534D01*
X271987Y382533D01*
X272118Y382554D01*
X272251Y382565D01*
X272361Y382592D01*
X272474Y382610D01*
X272601Y382651D01*
X272729Y382683D01*
X272834Y382728D01*
X272943Y382764D01*
X273061Y382826D01*
X273183Y382878D01*
X273279Y382939D01*
X273380Y382992D01*
X273454Y383051D01*
X273599Y383143D01*
X273841Y383359D01*
X273914Y383417D01*
X285619Y395122D01*
X285693Y395209D01*
X285774Y395290D01*
X285852Y395397D01*
X285938Y395498D01*
X285997Y395596D01*
X286064Y395688D01*
X286124Y395807D01*
X286193Y395921D01*
X286235Y396027D01*
X286287Y396129D01*
X286327Y396256D01*
X286376Y396379D01*
X286401Y396490D01*
X286435Y396599D01*
X286445Y396693D01*
X286483Y396861D01*
X286501Y397185D01*
X286511Y397277D01*
X286511Y453623D01*
X286502Y453737D01*
X286503Y453851D01*
X286482Y453982D01*
X286471Y454115D01*
X286444Y454225D01*
X286426Y454338D01*
X286385Y454465D01*
X286353Y454593D01*
X286308Y454698D01*
X286272Y454807D01*
X286210Y454925D01*
X286158Y455047D01*
X286097Y455143D01*
X286044Y455244D01*
X285985Y455318D01*
X285893Y455463D01*
X285677Y455705D01*
X285619Y455778D01*
X277978Y463419D01*
X277891Y463493D01*
X277810Y463574D01*
X277703Y463652D01*
X277602Y463738D01*
X277504Y463797D01*
X277412Y463864D01*
X277293Y463924D01*
X277179Y463993D01*
X277073Y464035D01*
X276971Y464087D01*
X276844Y464127D01*
X276721Y464176D01*
X276610Y464201D01*
X276501Y464235D01*
X276407Y464245D01*
X276239Y464283D01*
X275915Y464301D01*
X275823Y464311D01*
X257333Y464311D01*
X257219Y464302D01*
X257105Y464303D01*
X256974Y464282D01*
X256841Y464271D01*
X256730Y464244D01*
X256618Y464226D01*
X256491Y464185D01*
X256362Y464153D01*
X256258Y464108D01*
X256149Y464072D01*
X256031Y464010D01*
X255909Y463958D01*
X255813Y463897D01*
X255711Y463844D01*
X255638Y463785D01*
X255493Y463693D01*
X255251Y463477D01*
X255178Y463419D01*
X253975Y462215D01*
X250643Y460835D01*
X231957Y460835D01*
X228625Y462215D01*
X226075Y464765D01*
X224695Y468097D01*
X224695Y471703D01*
X226075Y475035D01*
X228625Y477585D01*
X231957Y478965D01*
X250643Y478965D01*
X253975Y477585D01*
X255178Y476381D01*
X255265Y476307D01*
X255345Y476226D01*
X255453Y476148D01*
X255554Y476062D01*
X255652Y476003D01*
X255744Y475936D01*
X255863Y475876D01*
X255977Y475807D01*
X256083Y475765D01*
X256185Y475713D01*
X256312Y475673D01*
X256435Y475624D01*
X256546Y475599D01*
X256655Y475565D01*
X256749Y475555D01*
X256916Y475517D01*
X257241Y475499D01*
X257333Y475489D01*
X280512Y475489D01*
X282298Y474749D01*
X282470Y474694D01*
X282639Y474631D01*
X282704Y474618D01*
X282767Y474598D01*
X282946Y474571D01*
X283123Y474536D01*
X283189Y474534D01*
X283255Y474524D01*
X283436Y474526D01*
X283616Y474521D01*
X283682Y474529D01*
X283749Y474530D01*
X283926Y474562D01*
X284105Y474585D01*
X284169Y474604D01*
X284234Y474616D01*
X284404Y474675D01*
X284578Y474728D01*
X284637Y474757D01*
X284700Y474779D01*
X284859Y474865D01*
X285021Y474944D01*
X285075Y474983D01*
X285133Y475015D01*
X285276Y475126D01*
X285423Y475230D01*
X285470Y475277D01*
X285523Y475318D01*
X285646Y475450D01*
X285774Y475577D01*
X285813Y475630D01*
X285858Y475679D01*
X285958Y475830D01*
X286064Y475975D01*
X286094Y476035D01*
X286131Y476090D01*
X286205Y476255D01*
X286287Y476416D01*
X286307Y476479D01*
X286334Y476540D01*
X286381Y476714D01*
X286435Y476886D01*
X286441Y476939D01*
X286462Y477016D01*
X286511Y477507D01*
X286509Y477541D01*
X286511Y477564D01*
X286511Y606023D01*
X286502Y606137D01*
X286503Y606251D01*
X286482Y606382D01*
X286471Y606515D01*
X286444Y606625D01*
X286426Y606738D01*
X286385Y606865D01*
X286353Y606993D01*
X286308Y607098D01*
X286272Y607207D01*
X286210Y607325D01*
X286158Y607447D01*
X286097Y607543D01*
X286044Y607644D01*
X285985Y607718D01*
X285893Y607863D01*
X285677Y608105D01*
X285619Y608178D01*
X277978Y615819D01*
X277891Y615893D01*
X277810Y615974D01*
X277703Y616052D01*
X277602Y616138D01*
X277504Y616197D01*
X277412Y616264D01*
X277293Y616324D01*
X277179Y616393D01*
X277073Y616435D01*
X276971Y616487D01*
X276844Y616527D01*
X276721Y616576D01*
X276610Y616601D01*
X276501Y616635D01*
X276407Y616645D01*
X276239Y616683D01*
X275915Y616701D01*
X275823Y616711D01*
X257333Y616711D01*
X257219Y616702D01*
X257105Y616703D01*
X256973Y616682D01*
X256841Y616671D01*
X256731Y616644D01*
X256618Y616626D01*
X256491Y616585D01*
X256362Y616553D01*
X256258Y616508D01*
X256149Y616472D01*
X256031Y616410D01*
X255909Y616358D01*
X255813Y616297D01*
X255711Y616244D01*
X255638Y616185D01*
X255493Y616093D01*
X255251Y615877D01*
X255178Y615819D01*
X253975Y614615D01*
X250643Y613235D01*
X231957Y613235D01*
X228625Y614615D01*
X226075Y617165D01*
X224695Y620497D01*
X224695Y624103D01*
X226075Y627435D01*
X228625Y629985D01*
X231957Y631365D01*
X250643Y631365D01*
X253975Y629985D01*
X255178Y628781D01*
X255265Y628707D01*
X255345Y628626D01*
X255453Y628548D01*
X255554Y628462D01*
X255652Y628403D01*
X255744Y628336D01*
X255863Y628276D01*
X255977Y628207D01*
X256083Y628165D01*
X256185Y628113D01*
X256311Y628073D01*
X256435Y628024D01*
X256546Y627999D01*
X256655Y627965D01*
X256749Y627955D01*
X256916Y627917D01*
X257241Y627899D01*
X257333Y627889D01*
X280512Y627889D01*
X282566Y627038D01*
X296838Y612766D01*
X297689Y610712D01*
X297689Y392588D01*
X296838Y390534D01*
X294837Y388534D01*
X294837Y388533D01*
X294030Y387727D01*
X294006Y387698D01*
X293977Y387672D01*
X293846Y387510D01*
X293711Y387351D01*
X293691Y387318D01*
X293667Y387288D01*
X293564Y387108D01*
X293456Y386928D01*
X293442Y386893D01*
X293423Y386860D01*
X293351Y386664D01*
X293273Y386470D01*
X293265Y386433D01*
X293252Y386397D01*
X293212Y386192D01*
X293166Y385988D01*
X293164Y385950D01*
X293157Y385913D01*
X293151Y385705D01*
X293139Y385496D01*
X293143Y385458D01*
X293142Y385420D01*
X293169Y385213D01*
X293191Y385005D01*
X293201Y384969D01*
X293206Y384931D01*
X293266Y384731D01*
X293322Y384530D01*
X293338Y384495D01*
X293349Y384458D01*
X293440Y384271D01*
X293527Y384081D01*
X293549Y384049D01*
X293565Y384015D01*
X293686Y383845D01*
X293803Y383672D01*
X293829Y383644D01*
X293851Y383613D01*
X293998Y383464D01*
X294141Y383312D01*
X294171Y383289D01*
X294198Y383262D01*
X294366Y383139D01*
X294532Y383012D01*
X294566Y382994D01*
X294596Y382972D01*
X294783Y382878D01*
X294967Y382779D01*
X295003Y382767D01*
X295037Y382749D01*
X295236Y382687D01*
X295433Y382619D01*
X295471Y382613D01*
X295507Y382601D01*
X295600Y382591D01*
X295920Y382536D01*
X296092Y382535D01*
X296185Y382525D01*
X398759Y382525D01*
X398873Y382534D01*
X398987Y382533D01*
X399118Y382554D01*
X399251Y382565D01*
X399361Y382592D01*
X399474Y382610D01*
X399601Y382651D01*
X399729Y382683D01*
X399834Y382728D01*
X399943Y382764D01*
X400061Y382826D01*
X400183Y382878D01*
X400279Y382939D01*
X400380Y382992D01*
X400454Y383051D01*
X400599Y383143D01*
X400841Y383359D01*
X400914Y383417D01*
X425319Y407822D01*
X425393Y407909D01*
X425474Y407990D01*
X425552Y408097D01*
X425638Y408198D01*
X425697Y408296D01*
X425764Y408388D01*
X425824Y408507D01*
X425893Y408621D01*
X425935Y408727D01*
X425987Y408829D01*
X426027Y408956D01*
X426076Y409079D01*
X426101Y409190D01*
X426135Y409299D01*
X426145Y409393D01*
X426183Y409561D01*
X426201Y409885D01*
X426211Y409977D01*
X426211Y453623D01*
X426202Y453737D01*
X426203Y453851D01*
X426182Y453982D01*
X426171Y454115D01*
X426144Y454225D01*
X426126Y454338D01*
X426085Y454464D01*
X426053Y454593D01*
X426008Y454698D01*
X425972Y454807D01*
X425910Y454925D01*
X425858Y455047D01*
X425797Y455143D01*
X425744Y455244D01*
X425685Y455318D01*
X425593Y455463D01*
X425377Y455705D01*
X425319Y455778D01*
X417678Y463419D01*
X417591Y463493D01*
X417510Y463574D01*
X417403Y463652D01*
X417302Y463738D01*
X417204Y463797D01*
X417112Y463864D01*
X416993Y463924D01*
X416879Y463993D01*
X416773Y464035D01*
X416671Y464087D01*
X416544Y464127D01*
X416421Y464176D01*
X416310Y464201D01*
X416201Y464235D01*
X416107Y464245D01*
X415939Y464283D01*
X415615Y464301D01*
X415523Y464311D01*
X397033Y464311D01*
X396919Y464302D01*
X396805Y464303D01*
X396674Y464282D01*
X396541Y464271D01*
X396430Y464244D01*
X396318Y464226D01*
X396191Y464185D01*
X396062Y464153D01*
X395958Y464108D01*
X395849Y464072D01*
X395731Y464010D01*
X395609Y463958D01*
X395513Y463897D01*
X395411Y463844D01*
X395338Y463785D01*
X395193Y463693D01*
X394951Y463477D01*
X394878Y463419D01*
X393675Y462215D01*
X390343Y460835D01*
X371657Y460835D01*
X368325Y462215D01*
X365775Y464765D01*
X364395Y468097D01*
X364395Y471703D01*
X365775Y475035D01*
X368325Y477585D01*
X371657Y478965D01*
X390343Y478965D01*
X393675Y477585D01*
X394878Y476381D01*
X394965Y476307D01*
X395045Y476226D01*
X395153Y476148D01*
X395254Y476062D01*
X395352Y476003D01*
X395444Y475936D01*
X395563Y475876D01*
X395677Y475807D01*
X395783Y475765D01*
X395885Y475713D01*
X396012Y475673D01*
X396135Y475624D01*
X396246Y475599D01*
X396355Y475565D01*
X396449Y475555D01*
X396616Y475517D01*
X396941Y475499D01*
X397033Y475489D01*
X420212Y475489D01*
X421998Y474749D01*
X422170Y474694D01*
X422339Y474631D01*
X422404Y474618D01*
X422467Y474598D01*
X422646Y474571D01*
X422823Y474536D01*
X422889Y474534D01*
X422955Y474524D01*
X423136Y474526D01*
X423316Y474521D01*
X423382Y474529D01*
X423449Y474530D01*
X423626Y474562D01*
X423805Y474585D01*
X423869Y474604D01*
X423934Y474616D01*
X424104Y474675D01*
X424278Y474728D01*
X424337Y474757D01*
X424400Y474779D01*
X424559Y474865D01*
X424721Y474944D01*
X424775Y474983D01*
X424833Y475015D01*
X424976Y475126D01*
X425123Y475230D01*
X425170Y475277D01*
X425223Y475318D01*
X425346Y475450D01*
X425474Y475577D01*
X425513Y475630D01*
X425558Y475679D01*
X425658Y475830D01*
X425764Y475975D01*
X425794Y476035D01*
X425831Y476090D01*
X425905Y476255D01*
X425987Y476416D01*
X426007Y476479D01*
X426034Y476540D01*
X426081Y476714D01*
X426135Y476886D01*
X426141Y476939D01*
X426162Y477016D01*
X426211Y477507D01*
X426209Y477541D01*
X426211Y477564D01*
X426211Y606023D01*
X426202Y606137D01*
X426203Y606251D01*
X426182Y606382D01*
X426171Y606515D01*
X426144Y606625D01*
X426126Y606738D01*
X426085Y606865D01*
X426053Y606993D01*
X426008Y607098D01*
X425972Y607207D01*
X425910Y607325D01*
X425858Y607447D01*
X425797Y607543D01*
X425744Y607644D01*
X425685Y607718D01*
X425593Y607863D01*
X425377Y608105D01*
X425319Y608178D01*
X417678Y615819D01*
X417591Y615893D01*
X417510Y615974D01*
X417403Y616052D01*
X417302Y616138D01*
X417204Y616197D01*
X417112Y616264D01*
X416993Y616324D01*
X416879Y616393D01*
X416773Y616435D01*
X416671Y616487D01*
X416544Y616527D01*
X416421Y616576D01*
X416310Y616601D01*
X416201Y616635D01*
X416107Y616645D01*
X415939Y616683D01*
X415615Y616701D01*
X415523Y616711D01*
X397033Y616711D01*
X396919Y616702D01*
X396805Y616703D01*
X396674Y616682D01*
X396541Y616671D01*
X396430Y616644D01*
X396318Y616626D01*
X396191Y616585D01*
X396062Y616553D01*
X395958Y616508D01*
X395849Y616472D01*
X395731Y616410D01*
X395609Y616358D01*
X395513Y616297D01*
X395411Y616244D01*
X395338Y616185D01*
X395193Y616093D01*
X394951Y615877D01*
X394878Y615819D01*
X393675Y614615D01*
X390343Y613235D01*
X371657Y613235D01*
X368325Y614615D01*
X365775Y617165D01*
X364395Y620497D01*
X364395Y624103D01*
X365775Y627435D01*
X368325Y629985D01*
X371657Y631365D01*
X390343Y631365D01*
X393675Y629985D01*
X394878Y628781D01*
X394965Y628707D01*
X395045Y628626D01*
X395153Y628548D01*
X395254Y628462D01*
X395352Y628403D01*
X395444Y628336D01*
X395563Y628276D01*
X395677Y628207D01*
X395783Y628165D01*
X395885Y628113D01*
X396012Y628073D01*
X396135Y628024D01*
X396246Y627999D01*
X396355Y627965D01*
X396449Y627955D01*
X396616Y627917D01*
X396941Y627899D01*
X397033Y627889D01*
X420212Y627889D01*
X422266Y627038D01*
X436538Y612766D01*
X437389Y610712D01*
X437389Y405288D01*
X436538Y403234D01*
X421030Y387727D01*
X421006Y387698D01*
X420977Y387672D01*
X420846Y387510D01*
X420711Y387351D01*
X420691Y387318D01*
X420667Y387288D01*
X420564Y387108D01*
X420456Y386928D01*
X420442Y386893D01*
X420423Y386860D01*
X420351Y386664D01*
X420273Y386470D01*
X420265Y386433D01*
X420252Y386397D01*
X420212Y386192D01*
X420166Y385988D01*
X420164Y385950D01*
X420157Y385913D01*
X420151Y385705D01*
X420139Y385496D01*
X420143Y385458D01*
X420142Y385420D01*
X420169Y385213D01*
X420191Y385005D01*
X420201Y384969D01*
X420206Y384931D01*
X420266Y384731D01*
X420322Y384530D01*
X420338Y384495D01*
X420349Y384458D01*
X420440Y384271D01*
X420527Y384081D01*
X420549Y384049D01*
X420565Y384015D01*
X420686Y383846D01*
X420803Y383672D01*
X420829Y383644D01*
X420851Y383613D01*
X420997Y383465D01*
X421141Y383312D01*
X421171Y383289D01*
X421198Y383262D01*
X421366Y383139D01*
X421532Y383012D01*
X421566Y382994D01*
X421596Y382972D01*
X421782Y382878D01*
X421967Y382779D01*
X422003Y382766D01*
X422037Y382749D01*
X422236Y382687D01*
X422433Y382619D01*
X422471Y382613D01*
X422507Y382601D01*
X422600Y382591D01*
X422920Y382536D01*
X423092Y382535D01*
X423185Y382525D01*
X538646Y382525D01*
X538864Y382542D01*
X539082Y382556D01*
X539110Y382562D01*
X539138Y382565D01*
X539350Y382617D01*
X539563Y382666D01*
X539589Y382677D01*
X539617Y382683D01*
X539818Y382770D01*
X540020Y382852D01*
X540044Y382867D01*
X540070Y382878D01*
X540255Y382995D01*
X540441Y383109D01*
X540462Y383128D01*
X540486Y383143D01*
X540649Y383288D01*
X540815Y383431D01*
X540833Y383453D01*
X540854Y383472D01*
X540991Y383641D01*
X541132Y383809D01*
X541143Y383830D01*
X541164Y383856D01*
X541312Y384116D01*
X565019Y407822D01*
X565093Y407909D01*
X565174Y407990D01*
X565252Y408097D01*
X565338Y408198D01*
X565397Y408296D01*
X565464Y408388D01*
X565524Y408507D01*
X565593Y408621D01*
X565635Y408727D01*
X565687Y408829D01*
X565727Y408956D01*
X565776Y409079D01*
X565801Y409190D01*
X565835Y409299D01*
X565845Y409393D01*
X565883Y409561D01*
X565901Y409885D01*
X565911Y409977D01*
X565911Y453623D01*
X565902Y453737D01*
X565903Y453851D01*
X565882Y453982D01*
X565871Y454115D01*
X565844Y454225D01*
X565826Y454338D01*
X565785Y454465D01*
X565753Y454593D01*
X565708Y454698D01*
X565672Y454807D01*
X565610Y454925D01*
X565558Y455047D01*
X565497Y455143D01*
X565444Y455244D01*
X565385Y455318D01*
X565293Y455463D01*
X565077Y455705D01*
X565019Y455778D01*
X557378Y463419D01*
X557291Y463493D01*
X557210Y463574D01*
X557103Y463652D01*
X557002Y463738D01*
X556904Y463797D01*
X556812Y463864D01*
X556693Y463924D01*
X556579Y463993D01*
X556473Y464035D01*
X556371Y464087D01*
X556244Y464127D01*
X556121Y464176D01*
X556010Y464201D01*
X555901Y464235D01*
X555807Y464245D01*
X555639Y464283D01*
X555315Y464301D01*
X555223Y464311D01*
X536733Y464311D01*
X536619Y464302D01*
X536505Y464303D01*
X536373Y464282D01*
X536241Y464271D01*
X536131Y464244D01*
X536018Y464226D01*
X535891Y464185D01*
X535762Y464153D01*
X535658Y464108D01*
X535549Y464072D01*
X535431Y464010D01*
X535309Y463958D01*
X535213Y463897D01*
X535111Y463844D01*
X535038Y463785D01*
X534893Y463693D01*
X534651Y463477D01*
X534578Y463419D01*
X533375Y462215D01*
X530043Y460835D01*
X511357Y460835D01*
X508025Y462215D01*
X505475Y464765D01*
X504095Y468097D01*
X504095Y471703D01*
X505475Y475035D01*
X508025Y477585D01*
X511357Y478965D01*
X530043Y478965D01*
X533375Y477585D01*
X534578Y476381D01*
X534665Y476307D01*
X534745Y476226D01*
X534853Y476148D01*
X534954Y476062D01*
X535052Y476003D01*
X535144Y475936D01*
X535263Y475876D01*
X535377Y475807D01*
X535483Y475765D01*
X535585Y475713D01*
X535711Y475673D01*
X535835Y475624D01*
X535946Y475599D01*
X536055Y475565D01*
X536149Y475555D01*
X536316Y475517D01*
X536641Y475499D01*
X536733Y475489D01*
X559912Y475489D01*
X561698Y474749D01*
X561870Y474694D01*
X562039Y474631D01*
X562104Y474618D01*
X562167Y474598D01*
X562346Y474571D01*
X562523Y474536D01*
X562589Y474534D01*
X562655Y474524D01*
X562836Y474526D01*
X563016Y474521D01*
X563082Y474529D01*
X563149Y474530D01*
X563326Y474562D01*
X563505Y474585D01*
X563569Y474604D01*
X563634Y474616D01*
X563804Y474675D01*
X563978Y474728D01*
X564037Y474757D01*
X564100Y474779D01*
X564259Y474865D01*
X564421Y474944D01*
X564475Y474983D01*
X564533Y475015D01*
X564676Y475126D01*
X564823Y475230D01*
X564870Y475277D01*
X564923Y475318D01*
X565046Y475450D01*
X565174Y475577D01*
X565213Y475630D01*
X565258Y475679D01*
X565358Y475830D01*
X565464Y475975D01*
X565494Y476035D01*
X565531Y476090D01*
X565605Y476255D01*
X565687Y476416D01*
X565707Y476479D01*
X565734Y476540D01*
X565781Y476714D01*
X565835Y476886D01*
X565841Y476939D01*
X565862Y477016D01*
X565911Y477507D01*
X565909Y477541D01*
X565911Y477564D01*
X565911Y606023D01*
X565902Y606137D01*
X565903Y606251D01*
X565882Y606382D01*
X565871Y606515D01*
X565844Y606625D01*
X565826Y606738D01*
X565785Y606865D01*
X565753Y606993D01*
X565708Y607098D01*
X565672Y607207D01*
X565610Y607325D01*
X565558Y607447D01*
X565497Y607543D01*
X565444Y607644D01*
X565385Y607718D01*
X565293Y607863D01*
X565077Y608105D01*
X565019Y608178D01*
X557378Y615819D01*
X557291Y615893D01*
X557210Y615974D01*
X557103Y616052D01*
X557002Y616138D01*
X556904Y616197D01*
X556812Y616264D01*
X556693Y616324D01*
X556579Y616393D01*
X556473Y616435D01*
X556371Y616487D01*
X556244Y616527D01*
X556121Y616576D01*
X556010Y616601D01*
X555901Y616635D01*
X555807Y616645D01*
X555639Y616683D01*
X555315Y616701D01*
X555223Y616711D01*
X536733Y616711D01*
X536619Y616702D01*
X536505Y616703D01*
X536374Y616682D01*
X536241Y616671D01*
X536130Y616644D01*
X536018Y616626D01*
X535891Y616585D01*
X535762Y616553D01*
X535658Y616508D01*
X535549Y616472D01*
X535431Y616410D01*
X535309Y616358D01*
X535213Y616297D01*
X535111Y616244D01*
X535038Y616185D01*
X534893Y616093D01*
X534651Y615877D01*
X534578Y615819D01*
X533375Y614615D01*
X530043Y613235D01*
X511357Y613235D01*
X508025Y614615D01*
X505475Y617165D01*
X504095Y620497D01*
X504095Y624103D01*
X505475Y627435D01*
X508025Y629985D01*
X511357Y631365D01*
X530043Y631365D01*
X533375Y629985D01*
X534578Y628781D01*
X534665Y628707D01*
X534745Y628626D01*
X534853Y628548D01*
X534954Y628462D01*
X535052Y628403D01*
X535144Y628336D01*
X535263Y628276D01*
X535377Y628207D01*
X535483Y628165D01*
X535585Y628113D01*
X535712Y628073D01*
X535835Y628024D01*
X535946Y627999D01*
X536055Y627965D01*
X536149Y627955D01*
X536316Y627917D01*
X536641Y627899D01*
X536733Y627889D01*
X559912Y627889D01*
X561966Y627038D01*
X576238Y612766D01*
X577089Y610712D01*
X577089Y405288D01*
X576238Y403234D01*
X560730Y387727D01*
X560706Y387698D01*
X560677Y387672D01*
X560546Y387510D01*
X560411Y387351D01*
X560391Y387318D01*
X560367Y387288D01*
X560264Y387108D01*
X560156Y386928D01*
X560142Y386893D01*
X560123Y386860D01*
X560051Y386664D01*
X559973Y386470D01*
X559965Y386433D01*
X559952Y386397D01*
X559912Y386192D01*
X559866Y385988D01*
X559864Y385950D01*
X559857Y385913D01*
X559851Y385705D01*
X559839Y385496D01*
X559843Y385458D01*
X559842Y385420D01*
X559869Y385213D01*
X559891Y385005D01*
X559901Y384969D01*
X559906Y384931D01*
X559966Y384731D01*
X560022Y384530D01*
X560038Y384495D01*
X560049Y384458D01*
X560140Y384271D01*
X560227Y384081D01*
X560249Y384049D01*
X560265Y384015D01*
X560386Y383846D01*
X560503Y383672D01*
X560529Y383644D01*
X560551Y383613D01*
X560697Y383465D01*
X560841Y383312D01*
X560871Y383289D01*
X560898Y383262D01*
X561066Y383139D01*
X561232Y383012D01*
X561266Y382994D01*
X561296Y382972D01*
X561482Y382878D01*
X561667Y382779D01*
X561703Y382766D01*
X561737Y382749D01*
X561936Y382687D01*
X562133Y382619D01*
X562171Y382613D01*
X562207Y382601D01*
X562300Y382591D01*
X562620Y382536D01*
X562792Y382535D01*
X562885Y382525D01*
X678159Y382525D01*
X678273Y382534D01*
X678387Y382533D01*
X678518Y382554D01*
X678651Y382565D01*
X678761Y382592D01*
X678874Y382610D01*
X679001Y382651D01*
X679129Y382683D01*
X679234Y382728D01*
X679343Y382764D01*
X679461Y382826D01*
X679583Y382878D01*
X679679Y382939D01*
X679780Y382992D01*
X679854Y383051D01*
X679999Y383143D01*
X680241Y383359D01*
X680314Y383417D01*
X704719Y407822D01*
X704793Y407909D01*
X704874Y407990D01*
X704952Y408097D01*
X705038Y408198D01*
X705097Y408296D01*
X705164Y408388D01*
X705224Y408507D01*
X705293Y408621D01*
X705335Y408727D01*
X705387Y408829D01*
X705427Y408956D01*
X705476Y409079D01*
X705501Y409190D01*
X705535Y409299D01*
X705545Y409393D01*
X705583Y409561D01*
X705601Y409885D01*
X705611Y409977D01*
X705611Y453623D01*
X705602Y453737D01*
X705603Y453851D01*
X705582Y453982D01*
X705571Y454115D01*
X705544Y454225D01*
X705526Y454338D01*
X705485Y454465D01*
X705453Y454593D01*
X705408Y454698D01*
X705372Y454807D01*
X705310Y454925D01*
X705258Y455047D01*
X705197Y455143D01*
X705144Y455244D01*
X705085Y455318D01*
X704993Y455463D01*
X704777Y455705D01*
X704719Y455778D01*
X697078Y463419D01*
X696991Y463493D01*
X696910Y463574D01*
X696803Y463652D01*
X696702Y463738D01*
X696604Y463797D01*
X696512Y463864D01*
X696393Y463924D01*
X696279Y463993D01*
X696173Y464035D01*
X696071Y464087D01*
X695944Y464127D01*
X695821Y464176D01*
X695710Y464201D01*
X695601Y464235D01*
X695507Y464245D01*
X695339Y464283D01*
X695015Y464301D01*
X694923Y464311D01*
X676433Y464311D01*
X676319Y464302D01*
X676205Y464303D01*
X676074Y464282D01*
X675941Y464271D01*
X675830Y464244D01*
X675718Y464226D01*
X675591Y464185D01*
X675462Y464153D01*
X675358Y464108D01*
X675249Y464072D01*
X675131Y464010D01*
X675009Y463958D01*
X674913Y463897D01*
X674811Y463844D01*
X674738Y463785D01*
X674593Y463693D01*
X674351Y463477D01*
X674278Y463419D01*
X673075Y462215D01*
X669743Y460835D01*
X651057Y460835D01*
X647725Y462215D01*
X645175Y464765D01*
X643795Y468097D01*
X643795Y471703D01*
X645175Y475035D01*
X647725Y477585D01*
X651057Y478965D01*
X669743Y478965D01*
X673075Y477585D01*
X674278Y476381D01*
X674365Y476307D01*
X674445Y476226D01*
X674553Y476148D01*
X674654Y476062D01*
X674752Y476003D01*
X674844Y475936D01*
X674963Y475876D01*
X675077Y475807D01*
X675183Y475765D01*
X675285Y475713D01*
X675412Y475673D01*
X675535Y475624D01*
X675646Y475599D01*
X675755Y475565D01*
X675849Y475555D01*
X676016Y475517D01*
X676341Y475499D01*
X676433Y475489D01*
X699612Y475489D01*
X701398Y474749D01*
X701570Y474694D01*
X701739Y474631D01*
X701804Y474618D01*
X701867Y474598D01*
X702046Y474571D01*
X702223Y474536D01*
X702289Y474534D01*
X702355Y474524D01*
X702536Y474526D01*
X702716Y474521D01*
X702782Y474529D01*
X702849Y474530D01*
X703026Y474562D01*
X703205Y474585D01*
X703269Y474604D01*
X703334Y474616D01*
X703504Y474675D01*
X703678Y474728D01*
X703737Y474757D01*
X703800Y474779D01*
X703959Y474865D01*
X704121Y474944D01*
X704175Y474983D01*
X704233Y475015D01*
X704376Y475126D01*
X704523Y475230D01*
X704570Y475277D01*
X704623Y475318D01*
X704746Y475450D01*
X704874Y475577D01*
X704913Y475630D01*
X704958Y475679D01*
X705058Y475830D01*
X705164Y475975D01*
X705194Y476035D01*
X705231Y476090D01*
X705305Y476255D01*
X705387Y476416D01*
X705407Y476479D01*
X705434Y476540D01*
X705481Y476714D01*
X705535Y476886D01*
X705541Y476939D01*
X705562Y477016D01*
X705611Y477507D01*
X705609Y477541D01*
X705611Y477564D01*
X705611Y606023D01*
X705602Y606137D01*
X705603Y606251D01*
X705582Y606382D01*
X705571Y606515D01*
X705544Y606625D01*
X705526Y606738D01*
X705485Y606865D01*
X705453Y606993D01*
X705408Y607098D01*
X705372Y607207D01*
X705310Y607325D01*
X705258Y607447D01*
X705197Y607543D01*
X705144Y607644D01*
X705085Y607718D01*
X704993Y607863D01*
X704777Y608105D01*
X704719Y608178D01*
X697078Y615819D01*
X696991Y615893D01*
X696910Y615974D01*
X696803Y616052D01*
X696702Y616138D01*
X696604Y616197D01*
X696512Y616264D01*
X696393Y616324D01*
X696279Y616393D01*
X696173Y616435D01*
X696071Y616487D01*
X695944Y616527D01*
X695821Y616576D01*
X695710Y616601D01*
X695601Y616635D01*
X695507Y616645D01*
X695339Y616683D01*
X695015Y616701D01*
X694923Y616711D01*
X676433Y616711D01*
X676319Y616702D01*
X676205Y616703D01*
X676074Y616682D01*
X675941Y616671D01*
X675830Y616644D01*
X675718Y616626D01*
X675591Y616585D01*
X675462Y616553D01*
X675358Y616508D01*
X675249Y616472D01*
X675131Y616410D01*
X675009Y616358D01*
X674913Y616297D01*
X674811Y616244D01*
X674738Y616185D01*
X674593Y616093D01*
X674351Y615877D01*
X674278Y615819D01*
X673075Y614615D01*
X669743Y613235D01*
X651057Y613235D01*
X647725Y614615D01*
X645175Y617165D01*
X643795Y620497D01*
X643795Y624103D01*
X645175Y627435D01*
X647725Y629985D01*
X651057Y631365D01*
X669743Y631365D01*
X673075Y629985D01*
X674278Y628781D01*
X674365Y628707D01*
X674445Y628626D01*
X674553Y628548D01*
X674654Y628462D01*
X674752Y628403D01*
X674844Y628336D01*
X674963Y628276D01*
X675077Y628207D01*
X675183Y628165D01*
X675285Y628113D01*
X675412Y628073D01*
X675535Y628024D01*
X675646Y627999D01*
X675755Y627965D01*
X675849Y627955D01*
X676016Y627917D01*
X676341Y627899D01*
X676433Y627889D01*
X699612Y627889D01*
X701666Y627038D01*
X715938Y612766D01*
X716789Y610712D01*
X716789Y405288D01*
X715938Y403234D01*
X700430Y387727D01*
X700406Y387698D01*
X700377Y387672D01*
X700246Y387510D01*
X700111Y387351D01*
X700091Y387318D01*
X700067Y387288D01*
X699964Y387108D01*
X699856Y386928D01*
X699842Y386893D01*
X699823Y386860D01*
X699751Y386664D01*
X699673Y386470D01*
X699665Y386433D01*
X699652Y386397D01*
X699612Y386192D01*
X699566Y385988D01*
X699564Y385950D01*
X699557Y385913D01*
X699551Y385705D01*
X699539Y385496D01*
X699543Y385458D01*
X699542Y385420D01*
X699569Y385213D01*
X699591Y385005D01*
X699601Y384969D01*
X699606Y384931D01*
X699666Y384731D01*
X699722Y384530D01*
X699738Y384495D01*
X699749Y384458D01*
X699840Y384271D01*
X699927Y384081D01*
X699949Y384049D01*
X699965Y384015D01*
X700086Y383846D01*
X700203Y383672D01*
X700229Y383644D01*
X700251Y383613D01*
X700397Y383465D01*
X700541Y383312D01*
X700571Y383289D01*
X700598Y383262D01*
X700766Y383139D01*
X700932Y383012D01*
X700966Y382994D01*
X700996Y382972D01*
X701182Y382878D01*
X701367Y382779D01*
X701403Y382766D01*
X701437Y382749D01*
X701636Y382687D01*
X701833Y382619D01*
X701871Y382613D01*
X701907Y382601D01*
X702000Y382591D01*
X702320Y382536D01*
X702492Y382535D01*
X702585Y382525D01*
X790229Y382525D01*
X790817Y382281D01*
X791025Y382214D01*
X791232Y382143D01*
X791260Y382139D01*
X791287Y382130D01*
X791503Y382097D01*
X791718Y382061D01*
X791747Y382061D01*
X791775Y382056D01*
X791993Y382059D01*
X792211Y382058D01*
X792240Y382062D01*
X792268Y382063D01*
X792483Y382100D01*
X792699Y382134D01*
X792726Y382143D01*
X792754Y382148D01*
X792960Y382220D01*
X793167Y382289D01*
X793193Y382302D01*
X793219Y382311D01*
X793411Y382416D01*
X793605Y382517D01*
X793623Y382531D01*
X793653Y382547D01*
X794042Y382850D01*
X794097Y382909D01*
X794138Y382942D01*
X844419Y433222D01*
X844493Y433309D01*
X844574Y433390D01*
X844652Y433497D01*
X844738Y433598D01*
X844797Y433696D01*
X844864Y433788D01*
X844924Y433907D01*
X844993Y434021D01*
X845035Y434127D01*
X845087Y434229D01*
X845127Y434356D01*
X845176Y434479D01*
X845201Y434590D01*
X845235Y434699D01*
X845245Y434793D01*
X845283Y434961D01*
X845301Y435285D01*
X845311Y435377D01*
X845311Y453623D01*
X845302Y453737D01*
X845303Y453851D01*
X845282Y453982D01*
X845271Y454115D01*
X845244Y454225D01*
X845226Y454338D01*
X845185Y454465D01*
X845153Y454593D01*
X845108Y454698D01*
X845072Y454807D01*
X845010Y454925D01*
X844958Y455047D01*
X844897Y455143D01*
X844844Y455244D01*
X844785Y455318D01*
X844693Y455463D01*
X844477Y455705D01*
X844419Y455778D01*
X836778Y463419D01*
X836691Y463493D01*
X836610Y463574D01*
X836503Y463652D01*
X836402Y463738D01*
X836304Y463797D01*
X836212Y463864D01*
X836093Y463924D01*
X835979Y463993D01*
X835873Y464035D01*
X835771Y464087D01*
X835644Y464127D01*
X835521Y464176D01*
X835410Y464201D01*
X835301Y464235D01*
X835207Y464245D01*
X835039Y464283D01*
X834715Y464301D01*
X834623Y464311D01*
X803433Y464311D01*
X803319Y464302D01*
X803205Y464303D01*
X803074Y464282D01*
X802941Y464271D01*
X802830Y464244D01*
X802718Y464226D01*
X802591Y464185D01*
X802462Y464153D01*
X802358Y464108D01*
X802249Y464072D01*
X802131Y464010D01*
X802009Y463958D01*
X801913Y463897D01*
X801811Y463844D01*
X801738Y463785D01*
X801593Y463693D01*
X801351Y463477D01*
X801278Y463419D01*
X800075Y462215D01*
X796743Y460835D01*
X778057Y460835D01*
X774725Y462215D01*
X772175Y464765D01*
X770795Y468097D01*
X770795Y471703D01*
X772175Y475035D01*
X774725Y477585D01*
X778057Y478965D01*
X796743Y478965D01*
X800075Y477585D01*
X801278Y476381D01*
X801365Y476307D01*
X801445Y476226D01*
X801553Y476148D01*
X801654Y476062D01*
X801752Y476003D01*
X801844Y475936D01*
X801963Y475876D01*
X802077Y475807D01*
X802183Y475765D01*
X802285Y475713D01*
X802412Y475673D01*
X802535Y475624D01*
X802646Y475599D01*
X802755Y475565D01*
X802849Y475555D01*
X803016Y475517D01*
X803341Y475499D01*
X803433Y475489D01*
X839312Y475489D01*
X841098Y474749D01*
X841270Y474694D01*
X841439Y474631D01*
X841504Y474618D01*
X841567Y474598D01*
X841746Y474571D01*
X841923Y474536D01*
X841989Y474534D01*
X842055Y474524D01*
X842236Y474526D01*
X842416Y474521D01*
X842482Y474529D01*
X842549Y474530D01*
X842726Y474562D01*
X842905Y474585D01*
X842969Y474604D01*
X843034Y474616D01*
X843204Y474675D01*
X843378Y474728D01*
X843437Y474757D01*
X843500Y474779D01*
X843659Y474865D01*
X843821Y474944D01*
X843875Y474983D01*
X843933Y475015D01*
X844076Y475126D01*
X844223Y475230D01*
X844270Y475277D01*
X844323Y475318D01*
X844446Y475450D01*
X844574Y475577D01*
X844613Y475630D01*
X844658Y475679D01*
X844758Y475830D01*
X844864Y475975D01*
X844894Y476035D01*
X844931Y476090D01*
X845005Y476255D01*
X845087Y476416D01*
X845107Y476479D01*
X845134Y476540D01*
X845181Y476714D01*
X845235Y476886D01*
X845241Y476939D01*
X845262Y477016D01*
X845311Y477507D01*
X845309Y477541D01*
X845311Y477564D01*
X845311Y593323D01*
X845302Y593437D01*
X845303Y593551D01*
X845282Y593682D01*
X845271Y593815D01*
X845244Y593925D01*
X845226Y594038D01*
X845185Y594165D01*
X845153Y594293D01*
X845108Y594398D01*
X845072Y594507D01*
X845010Y594625D01*
X844958Y594747D01*
X844897Y594843D01*
X844844Y594944D01*
X844785Y595018D01*
X844693Y595163D01*
X844477Y595405D01*
X844419Y595478D01*
X824078Y615819D01*
X823991Y615893D01*
X823910Y615974D01*
X823803Y616052D01*
X823702Y616138D01*
X823604Y616197D01*
X823512Y616264D01*
X823393Y616324D01*
X823279Y616393D01*
X823173Y616435D01*
X823071Y616487D01*
X822944Y616527D01*
X822821Y616576D01*
X822710Y616601D01*
X822601Y616635D01*
X822507Y616645D01*
X822339Y616683D01*
X822015Y616701D01*
X821923Y616711D01*
X803433Y616711D01*
X803319Y616702D01*
X803205Y616703D01*
X803074Y616682D01*
X802941Y616671D01*
X802830Y616644D01*
X802718Y616626D01*
X802591Y616585D01*
X802462Y616553D01*
X802358Y616508D01*
X802249Y616472D01*
X802131Y616410D01*
X802009Y616358D01*
X801913Y616297D01*
X801811Y616244D01*
X801738Y616185D01*
X801593Y616093D01*
X801351Y615877D01*
X801278Y615819D01*
X800075Y614615D01*
X796743Y613235D01*
X778057Y613235D01*
X774725Y614615D01*
X772175Y617165D01*
X770795Y620497D01*
X770795Y624103D01*
X772175Y627435D01*
X774725Y629985D01*
X778057Y631365D01*
X796743Y631365D01*
X800075Y629985D01*
X801278Y628781D01*
X801365Y628707D01*
X801445Y628626D01*
X801553Y628548D01*
X801654Y628462D01*
X801752Y628403D01*
X801844Y628336D01*
X801963Y628276D01*
X802077Y628207D01*
X802183Y628165D01*
X802285Y628113D01*
X802412Y628073D01*
X802535Y628024D01*
X802646Y627999D01*
X802755Y627965D01*
X802849Y627955D01*
X803016Y627917D01*
X803341Y627899D01*
X803433Y627889D01*
X826612Y627889D01*
X828666Y627038D01*
X855638Y600066D01*
X856489Y598012D01*
X856489Y430688D01*
X855638Y428634D01*
X853637Y426634D01*
X853637Y426633D01*
X805078Y378075D01*
X805054Y378046D01*
X805025Y378020D01*
X804894Y377858D01*
X804759Y377699D01*
X804739Y377666D01*
X804715Y377636D01*
X804612Y377456D01*
X804504Y377276D01*
X804490Y377241D01*
X804471Y377208D01*
X804399Y377012D01*
X804321Y376818D01*
X804313Y376781D01*
X804300Y376745D01*
X804260Y376540D01*
X804214Y376336D01*
X804212Y376298D01*
X804205Y376261D01*
X804199Y376053D01*
X804187Y375844D01*
X804191Y375806D01*
X804190Y375768D01*
X804217Y375561D01*
X804239Y375353D01*
X804249Y375317D01*
X804254Y375279D01*
X804314Y375079D01*
X804370Y374878D01*
X804386Y374843D01*
X804397Y374806D01*
X804488Y374619D01*
X804575Y374429D01*
X804597Y374397D01*
X804613Y374363D01*
X804734Y374193D01*
X804851Y374020D01*
X804877Y373992D01*
X804899Y373961D01*
X805046Y373812D01*
X805189Y373660D01*
X805219Y373637D01*
X805246Y373610D01*
X805414Y373487D01*
X805580Y373360D01*
X805614Y373342D01*
X805644Y373320D01*
X805831Y373226D01*
X806015Y373127D01*
X806051Y373115D01*
X806085Y373097D01*
X806284Y373035D01*
X806481Y372967D01*
X806519Y372961D01*
X806555Y372949D01*
X806648Y372939D01*
X806968Y372884D01*
X807140Y372883D01*
X807233Y372873D01*
X826410Y372873D01*
X828090Y372177D01*
X842077Y358190D01*
X842773Y356510D01*
X842773Y295256D01*
X842782Y295143D01*
X842781Y295028D01*
X842802Y294897D01*
X842813Y294765D01*
X842840Y294654D01*
X842858Y294541D01*
X842899Y294415D01*
X842931Y294286D01*
X842976Y294181D01*
X843012Y294072D01*
X843074Y293954D01*
X843126Y293832D01*
X843187Y293736D01*
X843240Y293635D01*
X843299Y293561D01*
X843391Y293416D01*
X843607Y293174D01*
X843665Y293102D01*
X848607Y288160D01*
X848772Y288020D01*
X848937Y287874D01*
X848961Y287859D01*
X848982Y287841D01*
X849169Y287728D01*
X849354Y287612D01*
X849381Y287601D01*
X849405Y287586D01*
X849608Y287505D01*
X849809Y287420D01*
X849837Y287414D01*
X849863Y287403D01*
X850076Y287356D01*
X850289Y287305D01*
X850317Y287303D01*
X850345Y287296D01*
X850563Y287284D01*
X850781Y287268D01*
X850809Y287270D01*
X850837Y287269D01*
X851055Y287292D01*
X851272Y287311D01*
X851295Y287317D01*
X851328Y287321D01*
X851804Y287452D01*
X851877Y287485D01*
X851927Y287500D01*
X854257Y288465D01*
X872943Y288465D01*
X876275Y287085D01*
X878825Y284535D01*
X880205Y281203D01*
X880205Y277597D01*
X878825Y274265D01*
X876275Y271715D01*
X872943Y270335D01*
X854257Y270335D01*
X850925Y271715D01*
X848375Y274265D01*
X847764Y275741D01*
X847760Y275750D01*
X847757Y275759D01*
X847647Y275970D01*
X847539Y276180D01*
X847533Y276188D01*
X847529Y276197D01*
X847504Y276228D01*
X847246Y276577D01*
X847152Y276668D01*
X847103Y276730D01*
X836038Y287795D01*
X834323Y289510D01*
X833627Y291190D01*
X833627Y352444D01*
X833618Y352557D01*
X833619Y352672D01*
X833598Y352803D01*
X833587Y352935D01*
X833560Y353046D01*
X833542Y353159D01*
X833501Y353285D01*
X833469Y353414D01*
X833424Y353519D01*
X833388Y353628D01*
X833326Y353746D01*
X833274Y353868D01*
X833213Y353964D01*
X833160Y354065D01*
X833101Y354139D01*
X833009Y354284D01*
X832793Y354526D01*
X832735Y354598D01*
X824498Y362835D01*
X824411Y362909D01*
X824331Y362990D01*
X824224Y363068D01*
X824122Y363154D01*
X824025Y363213D01*
X823932Y363280D01*
X823814Y363340D01*
X823700Y363409D01*
X823594Y363451D01*
X823492Y363503D01*
X823365Y363543D01*
X823242Y363592D01*
X823131Y363617D01*
X823021Y363651D01*
X822928Y363661D01*
X822760Y363699D01*
X822436Y363717D01*
X822344Y363727D01*
X807233Y363727D01*
X807195Y363724D01*
X807157Y363726D01*
X806949Y363704D01*
X806741Y363687D01*
X806704Y363678D01*
X806666Y363674D01*
X806465Y363619D01*
X806263Y363569D01*
X806228Y363554D01*
X806191Y363543D01*
X806001Y363456D01*
X805809Y363374D01*
X805777Y363354D01*
X805742Y363338D01*
X805569Y363221D01*
X805393Y363109D01*
X805365Y363084D01*
X805333Y363062D01*
X805181Y362919D01*
X805025Y362780D01*
X805001Y362751D01*
X804973Y362725D01*
X804846Y362559D01*
X804715Y362396D01*
X804696Y362363D01*
X804673Y362333D01*
X804575Y362149D01*
X804471Y361968D01*
X804458Y361932D01*
X804440Y361898D01*
X804372Y361701D01*
X804300Y361505D01*
X804292Y361468D01*
X804280Y361432D01*
X804245Y361225D01*
X804205Y361021D01*
X804204Y360983D01*
X804197Y360945D01*
X804196Y360736D01*
X804190Y360528D01*
X804195Y360490D01*
X804194Y360452D01*
X804227Y360245D01*
X804254Y360039D01*
X804265Y360002D01*
X804271Y359965D01*
X804336Y359766D01*
X804397Y359567D01*
X804413Y359532D01*
X804425Y359496D01*
X804522Y359311D01*
X804613Y359123D01*
X804635Y359092D01*
X804653Y359058D01*
X804711Y358986D01*
X804899Y358721D01*
X805020Y358599D01*
X805078Y358525D01*
X815537Y348067D01*
X815537Y348066D01*
X817538Y346066D01*
X818389Y344012D01*
X818389Y113188D01*
X817538Y111134D01*
X803266Y96862D01*
X801212Y96011D01*
X778033Y96011D01*
X777919Y96002D01*
X777805Y96003D01*
X777674Y95982D01*
X777541Y95971D01*
X777430Y95944D01*
X777318Y95926D01*
X777191Y95885D01*
X777062Y95853D01*
X776958Y95808D01*
X776849Y95772D01*
X776731Y95710D01*
X776609Y95658D01*
X776513Y95597D01*
X776411Y95544D01*
X776338Y95485D01*
X776193Y95393D01*
X775951Y95177D01*
X775878Y95119D01*
X774675Y93915D01*
X771343Y92535D01*
X752657Y92535D01*
X749325Y93915D01*
X746775Y96465D01*
X745395Y99797D01*
X745395Y103403D01*
X746775Y106735D01*
X749325Y109285D01*
X752657Y110665D01*
X771343Y110665D01*
X774675Y109285D01*
X775878Y108081D01*
X775965Y108007D01*
X776045Y107926D01*
X776153Y107848D01*
X776254Y107762D01*
X776352Y107703D01*
X776444Y107636D01*
X776563Y107576D01*
X776677Y107507D01*
X776783Y107465D01*
X776885Y107413D01*
X777012Y107373D01*
X777135Y107324D01*
X777246Y107299D01*
X777355Y107265D01*
X777449Y107255D01*
X777616Y107217D01*
X777941Y107199D01*
X778033Y107189D01*
X796523Y107189D01*
X796637Y107198D01*
X796751Y107197D01*
X796882Y107218D01*
X797015Y107229D01*
X797125Y107256D01*
X797238Y107274D01*
X797365Y107315D01*
X797493Y107347D01*
X797598Y107392D01*
X797707Y107428D01*
X797825Y107490D01*
X797947Y107542D01*
X798043Y107603D01*
X798144Y107656D01*
X798218Y107715D01*
X798363Y107807D01*
X798605Y108023D01*
X798678Y108081D01*
X806319Y115722D01*
X806393Y115809D01*
X806474Y115890D01*
X806552Y115997D01*
X806638Y116098D01*
X806697Y116196D01*
X806764Y116288D01*
X806824Y116407D01*
X806893Y116521D01*
X806935Y116627D01*
X806987Y116729D01*
X807027Y116856D01*
X807076Y116979D01*
X807101Y117090D01*
X807135Y117199D01*
X807145Y117293D01*
X807183Y117461D01*
X807201Y117785D01*
X807211Y117877D01*
X807211Y271251D01*
X807208Y271289D01*
X807210Y271327D01*
X807207Y271354D01*
X807207Y271356D01*
X807188Y271535D01*
X807171Y271743D01*
X807162Y271780D01*
X807158Y271818D01*
X807103Y272019D01*
X807053Y272221D01*
X807038Y272256D01*
X807027Y272293D01*
X806940Y272483D01*
X806858Y272675D01*
X806838Y272707D01*
X806822Y272742D01*
X806705Y272915D01*
X806593Y273091D01*
X806568Y273119D01*
X806546Y273151D01*
X806403Y273303D01*
X806264Y273459D01*
X806235Y273483D01*
X806209Y273511D01*
X806043Y273638D01*
X805880Y273769D01*
X805847Y273788D01*
X805817Y273811D01*
X805633Y273909D01*
X805452Y274013D01*
X805416Y274026D01*
X805382Y274044D01*
X805185Y274112D01*
X804989Y274184D01*
X804952Y274192D01*
X804916Y274204D01*
X804709Y274239D01*
X804505Y274279D01*
X804467Y274280D01*
X804429Y274287D01*
X804220Y274288D01*
X804012Y274294D01*
X803974Y274289D01*
X803936Y274290D01*
X803729Y274257D01*
X803523Y274230D01*
X803486Y274219D01*
X803449Y274213D01*
X803250Y274148D01*
X803051Y274087D01*
X803016Y274071D01*
X802980Y274059D01*
X802795Y273962D01*
X802607Y273871D01*
X802576Y273849D01*
X802542Y273831D01*
X802470Y273773D01*
X802205Y273585D01*
X802083Y273464D01*
X802009Y273406D01*
X790566Y261962D01*
X788512Y261111D01*
X778033Y261111D01*
X777919Y261102D01*
X777805Y261103D01*
X777673Y261082D01*
X777541Y261071D01*
X777431Y261044D01*
X777318Y261026D01*
X777191Y260985D01*
X777062Y260953D01*
X776958Y260908D01*
X776849Y260872D01*
X776731Y260810D01*
X776609Y260758D01*
X776513Y260697D01*
X776411Y260644D01*
X776338Y260585D01*
X776193Y260493D01*
X775951Y260277D01*
X775878Y260219D01*
X774675Y259015D01*
X771343Y257635D01*
X752657Y257635D01*
X749325Y259015D01*
X746775Y261565D01*
X745395Y264897D01*
X745395Y268503D01*
X746775Y271835D01*
X749325Y274385D01*
X752657Y275765D01*
X771343Y275765D01*
X774675Y274385D01*
X775878Y273181D01*
X775965Y273107D01*
X776045Y273026D01*
X776153Y272948D01*
X776254Y272862D01*
X776352Y272803D01*
X776444Y272736D01*
X776563Y272676D01*
X776677Y272607D01*
X776783Y272565D01*
X776885Y272513D01*
X777011Y272473D01*
X777135Y272424D01*
X777246Y272399D01*
X777355Y272365D01*
X777449Y272355D01*
X777616Y272317D01*
X777941Y272299D01*
X778033Y272289D01*
X783823Y272289D01*
X783937Y272298D01*
X784051Y272297D01*
X784182Y272318D01*
X784315Y272329D01*
X784425Y272356D01*
X784538Y272374D01*
X784665Y272415D01*
X784793Y272447D01*
X784898Y272492D01*
X785007Y272528D01*
X785125Y272590D01*
X785247Y272642D01*
X785343Y272703D01*
X785444Y272756D01*
X785518Y272815D01*
X785663Y272907D01*
X785905Y273123D01*
X785978Y273181D01*
X806319Y293522D01*
X806393Y293609D01*
X806474Y293690D01*
X806552Y293797D01*
X806638Y293898D01*
X806697Y293996D01*
X806764Y294088D01*
X806824Y294207D01*
X806893Y294321D01*
X806935Y294427D01*
X806987Y294529D01*
X807027Y294656D01*
X807076Y294779D01*
X807101Y294890D01*
X807135Y294999D01*
X807145Y295093D01*
X807183Y295261D01*
X807201Y295585D01*
X807211Y295677D01*
X807211Y339323D01*
X807202Y339437D01*
X807203Y339551D01*
X807182Y339682D01*
X807171Y339815D01*
X807144Y339925D01*
X807126Y340038D01*
X807085Y340165D01*
X807053Y340293D01*
X807008Y340398D01*
X806972Y340507D01*
X806910Y340625D01*
X806858Y340747D01*
X806797Y340843D01*
X806744Y340944D01*
X806685Y341018D01*
X806593Y341163D01*
X806377Y341405D01*
X806319Y341478D01*
X794138Y353658D01*
X793972Y353799D01*
X793808Y353944D01*
X793784Y353959D01*
X793762Y353978D01*
X793574Y354091D01*
X793390Y354207D01*
X793364Y354218D01*
X793340Y354232D01*
X793137Y354313D01*
X792936Y354398D01*
X792908Y354405D01*
X792882Y354415D01*
X792669Y354463D01*
X792456Y354514D01*
X792428Y354516D01*
X792400Y354522D01*
X792181Y354534D01*
X791964Y354551D01*
X791936Y354548D01*
X791907Y354550D01*
X791690Y354527D01*
X791473Y354508D01*
X791450Y354501D01*
X791417Y354498D01*
X790941Y354367D01*
X790868Y354333D01*
X790817Y354319D01*
X790229Y354075D01*
X664485Y354075D01*
X664447Y354072D01*
X664409Y354074D01*
X664201Y354052D01*
X663993Y354035D01*
X663956Y354026D01*
X663918Y354022D01*
X663717Y353967D01*
X663515Y353917D01*
X663480Y353902D01*
X663443Y353891D01*
X663253Y353804D01*
X663061Y353722D01*
X663029Y353702D01*
X662994Y353686D01*
X662821Y353569D01*
X662645Y353457D01*
X662617Y353432D01*
X662585Y353410D01*
X662433Y353267D01*
X662277Y353128D01*
X662253Y353099D01*
X662225Y353073D01*
X662098Y352907D01*
X661967Y352744D01*
X661948Y352711D01*
X661925Y352681D01*
X661827Y352497D01*
X661723Y352316D01*
X661710Y352280D01*
X661692Y352246D01*
X661624Y352049D01*
X661552Y351853D01*
X661544Y351816D01*
X661532Y351780D01*
X661497Y351573D01*
X661457Y351369D01*
X661456Y351331D01*
X661449Y351293D01*
X661448Y351084D01*
X661442Y350876D01*
X661447Y350838D01*
X661446Y350800D01*
X661479Y350593D01*
X661506Y350387D01*
X661517Y350350D01*
X661523Y350313D01*
X661588Y350114D01*
X661649Y349915D01*
X661665Y349880D01*
X661677Y349844D01*
X661774Y349659D01*
X661865Y349471D01*
X661887Y349440D01*
X661905Y349406D01*
X661963Y349334D01*
X662151Y349069D01*
X662272Y348947D01*
X662330Y348873D01*
X677838Y333366D01*
X678689Y331312D01*
X678689Y125888D01*
X677838Y123834D01*
X650866Y96862D01*
X648812Y96011D01*
X638333Y96011D01*
X638219Y96002D01*
X638105Y96003D01*
X637974Y95982D01*
X637841Y95971D01*
X637730Y95944D01*
X637618Y95926D01*
X637491Y95885D01*
X637362Y95853D01*
X637258Y95808D01*
X637149Y95772D01*
X637031Y95710D01*
X636909Y95658D01*
X636813Y95597D01*
X636711Y95544D01*
X636638Y95485D01*
X636493Y95393D01*
X636251Y95177D01*
X636178Y95119D01*
X634975Y93915D01*
X631643Y92535D01*
X612957Y92535D01*
X609625Y93915D01*
X607075Y96465D01*
X605695Y99797D01*
X605695Y103403D01*
X607075Y106735D01*
X609625Y109285D01*
X612957Y110665D01*
X631643Y110665D01*
X634975Y109285D01*
X636178Y108081D01*
X636265Y108007D01*
X636345Y107926D01*
X636453Y107848D01*
X636554Y107762D01*
X636652Y107703D01*
X636744Y107636D01*
X636863Y107576D01*
X636977Y107507D01*
X637083Y107465D01*
X637185Y107413D01*
X637312Y107373D01*
X637435Y107324D01*
X637546Y107299D01*
X637655Y107265D01*
X637749Y107255D01*
X637916Y107217D01*
X638241Y107199D01*
X638333Y107189D01*
X644123Y107189D01*
X644237Y107198D01*
X644351Y107197D01*
X644482Y107218D01*
X644615Y107229D01*
X644725Y107256D01*
X644838Y107274D01*
X644965Y107315D01*
X645093Y107347D01*
X645198Y107392D01*
X645307Y107428D01*
X645425Y107490D01*
X645547Y107542D01*
X645643Y107603D01*
X645744Y107656D01*
X645818Y107715D01*
X645963Y107807D01*
X646205Y108023D01*
X646278Y108081D01*
X666619Y128422D01*
X666693Y128509D01*
X666774Y128590D01*
X666852Y128697D01*
X666938Y128798D01*
X666997Y128896D01*
X667064Y128988D01*
X667124Y129107D01*
X667193Y129221D01*
X667235Y129327D01*
X667287Y129429D01*
X667327Y129556D01*
X667376Y129679D01*
X667401Y129790D01*
X667435Y129899D01*
X667445Y129993D01*
X667483Y130161D01*
X667501Y130485D01*
X667511Y130577D01*
X667511Y258551D01*
X667508Y258589D01*
X667510Y258627D01*
X667488Y258835D01*
X667471Y259043D01*
X667462Y259080D01*
X667458Y259118D01*
X667403Y259319D01*
X667353Y259521D01*
X667338Y259556D01*
X667327Y259593D01*
X667240Y259783D01*
X667158Y259975D01*
X667138Y260007D01*
X667122Y260042D01*
X667005Y260215D01*
X666893Y260391D01*
X666868Y260419D01*
X666846Y260451D01*
X666703Y260603D01*
X666564Y260759D01*
X666535Y260783D01*
X666509Y260811D01*
X666343Y260938D01*
X666180Y261069D01*
X666147Y261088D01*
X666117Y261111D01*
X665933Y261209D01*
X665752Y261313D01*
X665716Y261326D01*
X665682Y261344D01*
X665485Y261412D01*
X665289Y261484D01*
X665252Y261492D01*
X665216Y261504D01*
X665009Y261539D01*
X664805Y261579D01*
X664767Y261580D01*
X664729Y261587D01*
X664520Y261588D01*
X664312Y261594D01*
X664274Y261589D01*
X664236Y261590D01*
X664029Y261557D01*
X663823Y261530D01*
X663786Y261519D01*
X663749Y261513D01*
X663550Y261448D01*
X663351Y261387D01*
X663316Y261371D01*
X663280Y261359D01*
X663095Y261262D01*
X662907Y261171D01*
X662876Y261149D01*
X662842Y261131D01*
X662770Y261073D01*
X662505Y260885D01*
X662383Y260764D01*
X662309Y260706D01*
X650866Y249262D01*
X648812Y248411D01*
X638333Y248411D01*
X638219Y248402D01*
X638105Y248403D01*
X637974Y248382D01*
X637841Y248371D01*
X637730Y248344D01*
X637618Y248326D01*
X637491Y248285D01*
X637362Y248253D01*
X637258Y248208D01*
X637149Y248172D01*
X637031Y248110D01*
X636909Y248058D01*
X636813Y247997D01*
X636711Y247944D01*
X636638Y247885D01*
X636493Y247793D01*
X636251Y247577D01*
X636178Y247519D01*
X634975Y246315D01*
X631643Y244935D01*
X612957Y244935D01*
X609625Y246315D01*
X607075Y248865D01*
X605695Y252197D01*
X605695Y255803D01*
X607075Y259135D01*
X609625Y261685D01*
X612957Y263065D01*
X631643Y263065D01*
X634975Y261685D01*
X636178Y260481D01*
X636265Y260407D01*
X636345Y260326D01*
X636453Y260248D01*
X636554Y260162D01*
X636652Y260103D01*
X636744Y260036D01*
X636863Y259976D01*
X636977Y259907D01*
X637083Y259865D01*
X637185Y259813D01*
X637312Y259773D01*
X637435Y259724D01*
X637546Y259699D01*
X637655Y259665D01*
X637749Y259655D01*
X637916Y259617D01*
X638241Y259599D01*
X638333Y259589D01*
X644123Y259589D01*
X644237Y259598D01*
X644351Y259597D01*
X644482Y259618D01*
X644615Y259629D01*
X644725Y259656D01*
X644838Y259674D01*
X644965Y259715D01*
X645093Y259747D01*
X645198Y259792D01*
X645307Y259828D01*
X645425Y259890D01*
X645547Y259942D01*
X645643Y260003D01*
X645744Y260056D01*
X645818Y260115D01*
X645963Y260207D01*
X646205Y260423D01*
X646278Y260481D01*
X666619Y280822D01*
X666693Y280909D01*
X666774Y280990D01*
X666852Y281097D01*
X666938Y281198D01*
X666997Y281296D01*
X667064Y281388D01*
X667124Y281507D01*
X667193Y281621D01*
X667235Y281727D01*
X667287Y281829D01*
X667327Y281956D01*
X667376Y282079D01*
X667401Y282190D01*
X667435Y282299D01*
X667445Y282393D01*
X667483Y282561D01*
X667501Y282885D01*
X667511Y282977D01*
X667511Y326623D01*
X667502Y326737D01*
X667503Y326851D01*
X667482Y326982D01*
X667471Y327115D01*
X667444Y327225D01*
X667426Y327338D01*
X667385Y327465D01*
X667353Y327593D01*
X667308Y327698D01*
X667272Y327807D01*
X667210Y327925D01*
X667158Y328047D01*
X667097Y328143D01*
X667044Y328244D01*
X666985Y328318D01*
X666893Y328463D01*
X666677Y328705D01*
X666619Y328778D01*
X642214Y353183D01*
X642127Y353257D01*
X642046Y353338D01*
X641939Y353416D01*
X641838Y353502D01*
X641740Y353561D01*
X641648Y353628D01*
X641529Y353688D01*
X641415Y353757D01*
X641309Y353799D01*
X641207Y353851D01*
X641080Y353891D01*
X640957Y353940D01*
X640846Y353965D01*
X640737Y353999D01*
X640643Y354009D01*
X640475Y354047D01*
X640151Y354065D01*
X640059Y354075D01*
X537485Y354075D01*
X537447Y354072D01*
X537409Y354074D01*
X537201Y354052D01*
X536993Y354035D01*
X536956Y354026D01*
X536918Y354022D01*
X536717Y353967D01*
X536515Y353917D01*
X536479Y353902D01*
X536443Y353891D01*
X536253Y353804D01*
X536061Y353722D01*
X536029Y353702D01*
X535994Y353686D01*
X535821Y353569D01*
X535645Y353457D01*
X535617Y353432D01*
X535585Y353410D01*
X535433Y353267D01*
X535277Y353128D01*
X535253Y353099D01*
X535225Y353072D01*
X535098Y352907D01*
X534967Y352744D01*
X534948Y352711D01*
X534925Y352681D01*
X534826Y352497D01*
X534723Y352316D01*
X534710Y352280D01*
X534692Y352246D01*
X534624Y352049D01*
X534552Y351853D01*
X534544Y351816D01*
X534532Y351780D01*
X534497Y351574D01*
X534457Y351369D01*
X534456Y351331D01*
X534449Y351293D01*
X534448Y351084D01*
X534442Y350876D01*
X534447Y350838D01*
X534446Y350800D01*
X534479Y350594D01*
X534506Y350387D01*
X534517Y350350D01*
X534523Y350313D01*
X534588Y350114D01*
X534649Y349915D01*
X534665Y349880D01*
X534677Y349844D01*
X534774Y349659D01*
X534865Y349471D01*
X534887Y349440D01*
X534905Y349406D01*
X534963Y349333D01*
X535151Y349069D01*
X535272Y348947D01*
X535330Y348873D01*
X536137Y348066D01*
X538138Y346066D01*
X538989Y344012D01*
X538989Y125888D01*
X538138Y123834D01*
X511166Y96862D01*
X509112Y96011D01*
X498633Y96011D01*
X498519Y96002D01*
X498405Y96003D01*
X498273Y95982D01*
X498141Y95971D01*
X498031Y95944D01*
X497918Y95926D01*
X497791Y95885D01*
X497662Y95853D01*
X497558Y95808D01*
X497449Y95772D01*
X497331Y95710D01*
X497209Y95658D01*
X497113Y95597D01*
X497011Y95544D01*
X496938Y95485D01*
X496793Y95393D01*
X496551Y95177D01*
X496478Y95119D01*
X495275Y93915D01*
X491943Y92535D01*
X473257Y92535D01*
X469925Y93915D01*
X467375Y96465D01*
X465995Y99797D01*
X465995Y103403D01*
X467375Y106735D01*
X469925Y109285D01*
X473257Y110665D01*
X491943Y110665D01*
X495275Y109285D01*
X496478Y108081D01*
X496565Y108007D01*
X496645Y107926D01*
X496753Y107848D01*
X496854Y107762D01*
X496952Y107703D01*
X497044Y107636D01*
X497163Y107576D01*
X497277Y107507D01*
X497383Y107465D01*
X497485Y107413D01*
X497611Y107373D01*
X497735Y107324D01*
X497846Y107299D01*
X497955Y107265D01*
X498049Y107255D01*
X498216Y107217D01*
X498541Y107199D01*
X498633Y107189D01*
X504423Y107189D01*
X504537Y107198D01*
X504651Y107197D01*
X504782Y107218D01*
X504915Y107229D01*
X505025Y107256D01*
X505138Y107274D01*
X505265Y107315D01*
X505393Y107347D01*
X505498Y107392D01*
X505607Y107428D01*
X505725Y107490D01*
X505847Y107542D01*
X505943Y107603D01*
X506044Y107656D01*
X506118Y107715D01*
X506263Y107807D01*
X506505Y108023D01*
X506578Y108081D01*
X526919Y128422D01*
X526993Y128509D01*
X527074Y128590D01*
X527152Y128697D01*
X527238Y128798D01*
X527297Y128896D01*
X527364Y128988D01*
X527424Y129107D01*
X527493Y129221D01*
X527535Y129327D01*
X527587Y129429D01*
X527627Y129556D01*
X527676Y129679D01*
X527701Y129790D01*
X527735Y129899D01*
X527745Y129993D01*
X527783Y130161D01*
X527801Y130485D01*
X527811Y130577D01*
X527811Y258551D01*
X527808Y258589D01*
X527810Y258627D01*
X527788Y258835D01*
X527771Y259043D01*
X527762Y259080D01*
X527758Y259118D01*
X527703Y259319D01*
X527653Y259521D01*
X527638Y259556D01*
X527627Y259593D01*
X527540Y259783D01*
X527458Y259975D01*
X527438Y260007D01*
X527422Y260042D01*
X527305Y260215D01*
X527193Y260391D01*
X527168Y260419D01*
X527146Y260451D01*
X527003Y260603D01*
X526864Y260759D01*
X526835Y260783D01*
X526809Y260811D01*
X526643Y260938D01*
X526480Y261069D01*
X526447Y261088D01*
X526417Y261111D01*
X526233Y261209D01*
X526052Y261313D01*
X526016Y261326D01*
X525982Y261344D01*
X525785Y261412D01*
X525589Y261484D01*
X525552Y261492D01*
X525516Y261504D01*
X525309Y261539D01*
X525105Y261579D01*
X525067Y261580D01*
X525029Y261587D01*
X524820Y261588D01*
X524612Y261594D01*
X524574Y261589D01*
X524536Y261590D01*
X524329Y261557D01*
X524123Y261530D01*
X524086Y261519D01*
X524049Y261513D01*
X523850Y261448D01*
X523651Y261387D01*
X523616Y261371D01*
X523580Y261359D01*
X523395Y261262D01*
X523207Y261171D01*
X523176Y261149D01*
X523142Y261131D01*
X523070Y261073D01*
X522805Y260885D01*
X522683Y260764D01*
X522609Y260706D01*
X511166Y249262D01*
X509112Y248411D01*
X498633Y248411D01*
X498519Y248402D01*
X498405Y248403D01*
X498274Y248382D01*
X498141Y248371D01*
X498030Y248344D01*
X497918Y248326D01*
X497791Y248285D01*
X497662Y248253D01*
X497558Y248208D01*
X497449Y248172D01*
X497331Y248110D01*
X497209Y248058D01*
X497113Y247997D01*
X497011Y247944D01*
X496938Y247885D01*
X496793Y247793D01*
X496551Y247577D01*
X496478Y247519D01*
X495275Y246315D01*
X491943Y244935D01*
X473257Y244935D01*
X469925Y246315D01*
X467375Y248865D01*
X465995Y252197D01*
X465995Y255803D01*
X467375Y259135D01*
X469925Y261685D01*
X473257Y263065D01*
X491943Y263065D01*
X495275Y261685D01*
X496478Y260481D01*
X496565Y260407D01*
X496645Y260326D01*
X496753Y260248D01*
X496854Y260162D01*
X496952Y260103D01*
X497044Y260036D01*
X497163Y259976D01*
X497277Y259907D01*
X497383Y259865D01*
X497485Y259813D01*
X497612Y259773D01*
X497735Y259724D01*
X497846Y259699D01*
X497955Y259665D01*
X498049Y259655D01*
X498216Y259617D01*
X498541Y259599D01*
X498633Y259589D01*
X504423Y259589D01*
X504537Y259598D01*
X504651Y259597D01*
X504782Y259618D01*
X504915Y259629D01*
X505025Y259656D01*
X505138Y259674D01*
X505265Y259715D01*
X505393Y259747D01*
X505498Y259792D01*
X505607Y259828D01*
X505725Y259890D01*
X505847Y259942D01*
X505943Y260003D01*
X506044Y260056D01*
X506118Y260115D01*
X506263Y260207D01*
X506505Y260423D01*
X506578Y260481D01*
X526919Y280822D01*
X526993Y280909D01*
X527074Y280990D01*
X527152Y281097D01*
X527238Y281198D01*
X527297Y281296D01*
X527364Y281388D01*
X527424Y281507D01*
X527493Y281621D01*
X527535Y281727D01*
X527587Y281829D01*
X527627Y281956D01*
X527676Y282079D01*
X527701Y282190D01*
X527735Y282299D01*
X527745Y282393D01*
X527783Y282561D01*
X527801Y282885D01*
X527811Y282977D01*
X527811Y339323D01*
X527802Y339437D01*
X527803Y339551D01*
X527782Y339682D01*
X527771Y339815D01*
X527744Y339925D01*
X527726Y340038D01*
X527685Y340165D01*
X527653Y340293D01*
X527608Y340398D01*
X527572Y340507D01*
X527510Y340625D01*
X527458Y340747D01*
X527397Y340843D01*
X527344Y340944D01*
X527285Y341018D01*
X527193Y341163D01*
X526977Y341405D01*
X526919Y341478D01*
X515214Y353183D01*
X515127Y353257D01*
X515046Y353338D01*
X514939Y353416D01*
X514838Y353502D01*
X514740Y353561D01*
X514648Y353628D01*
X514529Y353688D01*
X514415Y353757D01*
X514309Y353799D01*
X514207Y353851D01*
X514080Y353891D01*
X513957Y353940D01*
X513846Y353965D01*
X513737Y353999D01*
X513643Y354009D01*
X513475Y354047D01*
X513151Y354065D01*
X513059Y354075D01*
X397785Y354075D01*
X397747Y354072D01*
X397709Y354074D01*
X397501Y354052D01*
X397293Y354035D01*
X397256Y354026D01*
X397218Y354022D01*
X397017Y353967D01*
X396815Y353917D01*
X396780Y353902D01*
X396743Y353891D01*
X396553Y353804D01*
X396361Y353722D01*
X396329Y353702D01*
X396294Y353686D01*
X396121Y353569D01*
X395945Y353457D01*
X395917Y353432D01*
X395885Y353410D01*
X395733Y353267D01*
X395577Y353128D01*
X395553Y353099D01*
X395525Y353073D01*
X395398Y352906D01*
X395267Y352744D01*
X395249Y352712D01*
X395225Y352681D01*
X395126Y352497D01*
X395023Y352316D01*
X395010Y352280D01*
X394992Y352246D01*
X394924Y352049D01*
X394852Y351853D01*
X394844Y351816D01*
X394832Y351780D01*
X394797Y351573D01*
X394757Y351369D01*
X394756Y351331D01*
X394749Y351293D01*
X394748Y351084D01*
X394742Y350876D01*
X394747Y350838D01*
X394746Y350800D01*
X394779Y350593D01*
X394806Y350387D01*
X394817Y350350D01*
X394823Y350313D01*
X394888Y350114D01*
X394949Y349915D01*
X394965Y349880D01*
X394977Y349844D01*
X395074Y349659D01*
X395165Y349471D01*
X395187Y349440D01*
X395205Y349406D01*
X395263Y349334D01*
X395451Y349069D01*
X395572Y348947D01*
X395630Y348873D01*
X398438Y346066D01*
X399289Y344012D01*
X399289Y113188D01*
X398438Y111134D01*
X384166Y96862D01*
X382112Y96011D01*
X358933Y96011D01*
X358819Y96002D01*
X358705Y96003D01*
X358574Y95982D01*
X358441Y95971D01*
X358330Y95944D01*
X358218Y95926D01*
X358091Y95885D01*
X357962Y95853D01*
X357858Y95808D01*
X357749Y95772D01*
X357631Y95710D01*
X357509Y95658D01*
X357413Y95597D01*
X357311Y95544D01*
X357238Y95485D01*
X357093Y95393D01*
X356851Y95177D01*
X356778Y95119D01*
X355575Y93915D01*
X352243Y92535D01*
X333557Y92535D01*
X330225Y93915D01*
X327675Y96465D01*
X326295Y99797D01*
X326295Y103403D01*
X327675Y106735D01*
X330225Y109285D01*
X333557Y110665D01*
X352243Y110665D01*
X355575Y109285D01*
X356778Y108081D01*
X356865Y108007D01*
X356945Y107926D01*
X357053Y107848D01*
X357154Y107762D01*
X357252Y107703D01*
X357344Y107636D01*
X357463Y107576D01*
X357577Y107507D01*
X357683Y107465D01*
X357785Y107413D01*
X357912Y107373D01*
X358035Y107324D01*
X358146Y107299D01*
X358255Y107265D01*
X358349Y107255D01*
X358516Y107217D01*
X358841Y107199D01*
X358933Y107189D01*
X377423Y107189D01*
X377537Y107198D01*
X377651Y107197D01*
X377782Y107218D01*
X377915Y107229D01*
X378025Y107256D01*
X378138Y107274D01*
X378265Y107315D01*
X378393Y107347D01*
X378498Y107392D01*
X378607Y107428D01*
X378725Y107490D01*
X378847Y107542D01*
X378943Y107603D01*
X379044Y107656D01*
X379118Y107715D01*
X379263Y107807D01*
X379505Y108023D01*
X379578Y108081D01*
X387219Y115722D01*
X387293Y115809D01*
X387374Y115890D01*
X387452Y115997D01*
X387538Y116098D01*
X387597Y116196D01*
X387664Y116288D01*
X387724Y116407D01*
X387793Y116521D01*
X387835Y116627D01*
X387887Y116729D01*
X387927Y116856D01*
X387976Y116979D01*
X388001Y117090D01*
X388035Y117199D01*
X388045Y117293D01*
X388083Y117461D01*
X388101Y117785D01*
X388111Y117877D01*
X388111Y246336D01*
X388097Y246516D01*
X388090Y246696D01*
X388077Y246761D01*
X388071Y246828D01*
X388028Y247003D01*
X387992Y247180D01*
X387969Y247242D01*
X387953Y247306D01*
X387881Y247472D01*
X387818Y247641D01*
X387784Y247699D01*
X387758Y247760D01*
X387661Y247912D01*
X387571Y248068D01*
X387529Y248120D01*
X387493Y248176D01*
X387373Y248310D01*
X387258Y248450D01*
X387209Y248494D01*
X387164Y248544D01*
X387024Y248657D01*
X386889Y248777D01*
X386832Y248812D01*
X386780Y248854D01*
X386624Y248943D01*
X386471Y249039D01*
X386409Y249065D01*
X386352Y249098D01*
X386182Y249160D01*
X386016Y249231D01*
X385952Y249246D01*
X385889Y249269D01*
X385712Y249304D01*
X385537Y249346D01*
X385470Y249351D01*
X385405Y249364D01*
X385225Y249370D01*
X385045Y249383D01*
X384978Y249377D01*
X384912Y249379D01*
X384733Y249356D01*
X384553Y249340D01*
X384503Y249325D01*
X384423Y249315D01*
X383951Y249172D01*
X383920Y249158D01*
X383898Y249151D01*
X382112Y248411D01*
X358933Y248411D01*
X358819Y248402D01*
X358705Y248403D01*
X358573Y248382D01*
X358441Y248371D01*
X358331Y248344D01*
X358218Y248326D01*
X358091Y248285D01*
X357962Y248253D01*
X357858Y248208D01*
X357749Y248172D01*
X357631Y248110D01*
X357509Y248058D01*
X357413Y247997D01*
X357311Y247944D01*
X357238Y247885D01*
X357093Y247793D01*
X356851Y247577D01*
X356778Y247519D01*
X355575Y246315D01*
X352243Y244935D01*
X333557Y244935D01*
X330225Y246315D01*
X327675Y248865D01*
X326295Y252197D01*
X326295Y255803D01*
X327675Y259135D01*
X330225Y261685D01*
X333557Y263065D01*
X352243Y263065D01*
X355575Y261685D01*
X356778Y260481D01*
X356865Y260407D01*
X356945Y260326D01*
X357053Y260248D01*
X357154Y260162D01*
X357252Y260103D01*
X357344Y260036D01*
X357463Y259976D01*
X357577Y259907D01*
X357683Y259865D01*
X357785Y259813D01*
X357911Y259773D01*
X358035Y259724D01*
X358146Y259699D01*
X358255Y259665D01*
X358349Y259655D01*
X358516Y259617D01*
X358841Y259599D01*
X358933Y259589D01*
X377423Y259589D01*
X377537Y259598D01*
X377651Y259597D01*
X377782Y259618D01*
X377915Y259629D01*
X378025Y259656D01*
X378138Y259674D01*
X378265Y259715D01*
X378393Y259747D01*
X378498Y259792D01*
X378607Y259828D01*
X378725Y259890D01*
X378847Y259942D01*
X378943Y260003D01*
X379044Y260056D01*
X379118Y260115D01*
X379263Y260207D01*
X379505Y260423D01*
X379578Y260481D01*
X387219Y268122D01*
X387293Y268209D01*
X387374Y268290D01*
X387452Y268397D01*
X387538Y268498D01*
X387597Y268596D01*
X387664Y268688D01*
X387724Y268807D01*
X387793Y268921D01*
X387835Y269027D01*
X387887Y269129D01*
X387927Y269256D01*
X387976Y269379D01*
X388001Y269490D01*
X388035Y269599D01*
X388045Y269693D01*
X388083Y269861D01*
X388101Y270185D01*
X388111Y270277D01*
X388111Y339323D01*
X388102Y339437D01*
X388103Y339551D01*
X388082Y339682D01*
X388071Y339815D01*
X388044Y339925D01*
X388026Y340038D01*
X387985Y340164D01*
X387953Y340293D01*
X387908Y340398D01*
X387872Y340507D01*
X387810Y340625D01*
X387758Y340747D01*
X387697Y340843D01*
X387644Y340944D01*
X387585Y341018D01*
X387493Y341163D01*
X387277Y341405D01*
X387219Y341478D01*
X375514Y353183D01*
X375427Y353257D01*
X375346Y353338D01*
X375239Y353416D01*
X375138Y353502D01*
X375040Y353561D01*
X374948Y353628D01*
X374829Y353688D01*
X374715Y353757D01*
X374609Y353799D01*
X374507Y353851D01*
X374380Y353891D01*
X374257Y353940D01*
X374146Y353965D01*
X374037Y353999D01*
X373943Y354009D01*
X373775Y354047D01*
X373451Y354065D01*
X373359Y354075D01*
X258085Y354075D01*
X258047Y354072D01*
X258009Y354074D01*
X257801Y354052D01*
X257593Y354035D01*
X257556Y354026D01*
X257518Y354022D01*
X257317Y353967D01*
X257115Y353917D01*
X257080Y353902D01*
X257043Y353891D01*
X256853Y353804D01*
X256661Y353722D01*
X256629Y353702D01*
X256594Y353686D01*
X256421Y353569D01*
X256245Y353457D01*
X256217Y353432D01*
X256185Y353410D01*
X256033Y353267D01*
X255877Y353128D01*
X255853Y353099D01*
X255825Y353073D01*
X255698Y352906D01*
X255567Y352744D01*
X255549Y352712D01*
X255525Y352681D01*
X255426Y352497D01*
X255323Y352316D01*
X255310Y352280D01*
X255292Y352246D01*
X255224Y352049D01*
X255152Y351853D01*
X255144Y351816D01*
X255132Y351780D01*
X255097Y351573D01*
X255057Y351369D01*
X255056Y351331D01*
X255049Y351293D01*
X255048Y351084D01*
X255042Y350876D01*
X255047Y350838D01*
X255046Y350800D01*
X255079Y350593D01*
X255106Y350387D01*
X255117Y350350D01*
X255123Y350313D01*
X255188Y350114D01*
X255249Y349915D01*
X255265Y349880D01*
X255277Y349844D01*
X255374Y349659D01*
X255465Y349471D01*
X255487Y349440D01*
X255505Y349406D01*
X255563Y349334D01*
X255751Y349069D01*
X255872Y348947D01*
X255930Y348873D01*
X258738Y346066D01*
X259589Y344012D01*
X259589Y113188D01*
X258738Y111134D01*
X244466Y96862D01*
X242412Y96011D01*
X219233Y96011D01*
X219119Y96002D01*
X219005Y96003D01*
X218873Y95982D01*
X218741Y95971D01*
X218631Y95944D01*
X218518Y95926D01*
X218391Y95885D01*
X218262Y95853D01*
X218158Y95808D01*
X218049Y95772D01*
X217931Y95710D01*
X217809Y95658D01*
X217713Y95597D01*
X217611Y95544D01*
X217538Y95485D01*
X217393Y95393D01*
X217151Y95177D01*
X217078Y95119D01*
X215875Y93915D01*
X212543Y92535D01*
X193857Y92535D01*
X190525Y93915D01*
X187975Y96465D01*
X186595Y99797D01*
X186595Y103403D01*
X187975Y106735D01*
X190525Y109285D01*
X193857Y110665D01*
X212543Y110665D01*
X215875Y109285D01*
X217078Y108081D01*
X217165Y108007D01*
X217245Y107926D01*
X217353Y107848D01*
X217454Y107762D01*
X217552Y107703D01*
X217644Y107636D01*
X217763Y107576D01*
X217877Y107507D01*
X217983Y107465D01*
X218085Y107413D01*
X218211Y107373D01*
X218335Y107324D01*
X218446Y107299D01*
X218555Y107265D01*
X218649Y107255D01*
X218816Y107217D01*
X219141Y107199D01*
X219233Y107189D01*
X237723Y107189D01*
X237837Y107198D01*
X237951Y107197D01*
X238082Y107218D01*
X238215Y107229D01*
X238325Y107256D01*
X238438Y107274D01*
X238565Y107315D01*
X238693Y107347D01*
X238798Y107392D01*
X238907Y107428D01*
X239025Y107490D01*
X239147Y107542D01*
X239243Y107603D01*
X239344Y107656D01*
X239418Y107715D01*
X239563Y107807D01*
X239805Y108023D01*
X239878Y108081D01*
X247519Y115722D01*
X247593Y115809D01*
X247674Y115890D01*
X247752Y115997D01*
X247838Y116098D01*
X247897Y116196D01*
X247964Y116288D01*
X248024Y116407D01*
X248093Y116521D01*
X248135Y116627D01*
X248187Y116729D01*
X248227Y116856D01*
X248276Y116979D01*
X248301Y117090D01*
X248335Y117199D01*
X248345Y117293D01*
X248383Y117461D01*
X248401Y117785D01*
X248411Y117877D01*
X248411Y246336D01*
X248397Y246516D01*
X248390Y246696D01*
X248377Y246761D01*
X248371Y246828D01*
X248328Y247003D01*
X248292Y247180D01*
X248269Y247242D01*
X248253Y247306D01*
X248181Y247472D01*
X248118Y247641D01*
X248084Y247699D01*
X248058Y247760D01*
X247961Y247912D01*
X247871Y248068D01*
X247829Y248120D01*
X247793Y248176D01*
X247673Y248310D01*
X247558Y248450D01*
X247509Y248494D01*
X247464Y248544D01*
X247324Y248657D01*
X247189Y248777D01*
X247132Y248812D01*
X247080Y248854D01*
X246924Y248943D01*
X246771Y249039D01*
X246709Y249065D01*
X246652Y249098D01*
X246482Y249160D01*
X246316Y249231D01*
X246252Y249246D01*
X246189Y249269D01*
X246012Y249304D01*
X245837Y249346D01*
X245770Y249351D01*
X245705Y249364D01*
X245525Y249370D01*
X245345Y249383D01*
X245278Y249377D01*
X245212Y249379D01*
X245033Y249356D01*
X244853Y249340D01*
X244803Y249325D01*
X244723Y249315D01*
X244251Y249172D01*
X244220Y249158D01*
X244198Y249151D01*
X242412Y248411D01*
X219233Y248411D01*
X219119Y248402D01*
X219005Y248403D01*
X218874Y248382D01*
X218741Y248371D01*
X218630Y248344D01*
X218518Y248326D01*
X218391Y248285D01*
X218262Y248253D01*
X218158Y248208D01*
X218049Y248172D01*
X217931Y248110D01*
X217809Y248058D01*
X217713Y247997D01*
X217611Y247944D01*
X217538Y247885D01*
X217393Y247793D01*
X217151Y247577D01*
X217078Y247519D01*
X215875Y246315D01*
X212543Y244935D01*
X193857Y244935D01*
X190525Y246315D01*
X187975Y248865D01*
X186595Y252197D01*
X186595Y255803D01*
X187975Y259135D01*
X190525Y261685D01*
X193857Y263065D01*
X212543Y263065D01*
X215875Y261685D01*
X217078Y260481D01*
X217165Y260407D01*
X217245Y260326D01*
X217353Y260248D01*
X217454Y260162D01*
X217552Y260103D01*
X217644Y260036D01*
X217763Y259976D01*
X217877Y259907D01*
X217983Y259865D01*
X218085Y259813D01*
X218212Y259773D01*
X218335Y259724D01*
X218446Y259699D01*
X218555Y259665D01*
X218649Y259655D01*
X218816Y259617D01*
X219141Y259599D01*
X219233Y259589D01*
X237723Y259589D01*
X237837Y259598D01*
X237951Y259597D01*
X238082Y259618D01*
X238215Y259629D01*
X238325Y259656D01*
X238438Y259674D01*
X238565Y259715D01*
X238693Y259747D01*
X238798Y259792D01*
X238907Y259828D01*
X239025Y259890D01*
X239147Y259942D01*
X239243Y260003D01*
X239344Y260056D01*
X239418Y260115D01*
X239563Y260207D01*
X239805Y260423D01*
X239878Y260481D01*
X247519Y268122D01*
X247593Y268209D01*
X247674Y268290D01*
X247752Y268397D01*
X247838Y268498D01*
X247897Y268596D01*
X247964Y268688D01*
X248024Y268807D01*
X248093Y268921D01*
X248135Y269027D01*
X248187Y269129D01*
X248227Y269256D01*
X248276Y269379D01*
X248301Y269490D01*
X248335Y269599D01*
X248345Y269693D01*
X248383Y269861D01*
X248401Y270185D01*
X248411Y270277D01*
X248411Y339323D01*
X248402Y339437D01*
X248403Y339551D01*
X248382Y339682D01*
X248371Y339815D01*
X248344Y339925D01*
X248326Y340038D01*
X248285Y340165D01*
X248253Y340293D01*
X248208Y340398D01*
X248172Y340507D01*
X248110Y340625D01*
X248058Y340747D01*
X247997Y340843D01*
X247944Y340944D01*
X247885Y341018D01*
X247793Y341163D01*
X247577Y341405D01*
X247519Y341478D01*
X235814Y353183D01*
X235727Y353257D01*
X235646Y353338D01*
X235539Y353416D01*
X235438Y353502D01*
X235340Y353561D01*
X235248Y353628D01*
X235129Y353688D01*
X235015Y353757D01*
X234909Y353799D01*
X234807Y353851D01*
X234680Y353891D01*
X234557Y353940D01*
X234446Y353965D01*
X234337Y353999D01*
X234243Y354009D01*
X234075Y354047D01*
X233751Y354065D01*
X233659Y354075D01*
X147341Y354075D01*
X147227Y354066D01*
X147113Y354067D01*
X146982Y354046D01*
X146849Y354035D01*
X146739Y354008D01*
X146626Y353990D01*
X146499Y353949D01*
X146371Y353917D01*
X146266Y353872D01*
X146157Y353836D01*
X146039Y353774D01*
X145917Y353722D01*
X145821Y353661D01*
X145720Y353608D01*
X145646Y353549D01*
X145501Y353457D01*
X145259Y353241D01*
X145186Y353183D01*
X133481Y341478D01*
X133407Y341391D01*
X133326Y341310D01*
X133248Y341203D01*
X133162Y341102D01*
X133103Y341004D01*
X133036Y340912D01*
X132976Y340793D01*
X132907Y340679D01*
X132865Y340573D01*
X132813Y340471D01*
X132773Y340344D01*
X132724Y340221D01*
X132699Y340110D01*
X132665Y340001D01*
X132655Y339907D01*
X132617Y339739D01*
X132599Y339415D01*
X132589Y339323D01*
X132589Y113188D01*
X131738Y111134D01*
X117466Y96862D01*
X115412Y96011D01*
X92233Y96011D01*
X92119Y96002D01*
X92005Y96003D01*
X91874Y95982D01*
X91741Y95971D01*
X91630Y95944D01*
X91518Y95926D01*
X91391Y95885D01*
X91262Y95853D01*
X91158Y95808D01*
X91049Y95772D01*
X90931Y95710D01*
X90809Y95658D01*
X90713Y95597D01*
X90611Y95544D01*
X90538Y95485D01*
X90393Y95393D01*
X90151Y95177D01*
X90078Y95119D01*
X88875Y93915D01*
X85543Y92535D01*
X66857Y92535D01*
G37*
%LPD*%
%LPC*%
G36*
X37190Y20827D02*
X37190Y20827D01*
X35510Y21523D01*
X33795Y23238D01*
X8823Y48210D01*
X8127Y49890D01*
X8127Y267610D01*
X8823Y269290D01*
X22410Y282877D01*
X24090Y283573D01*
X59151Y283573D01*
X59265Y283582D01*
X59379Y283581D01*
X59510Y283602D01*
X59643Y283613D01*
X59754Y283640D01*
X59866Y283658D01*
X59993Y283699D01*
X60122Y283731D01*
X60226Y283776D01*
X60335Y283812D01*
X60453Y283874D01*
X60575Y283926D01*
X60671Y283987D01*
X60773Y284040D01*
X60846Y284099D01*
X60991Y284191D01*
X61233Y284407D01*
X61306Y284465D01*
X63525Y286685D01*
X66857Y288065D01*
X85543Y288065D01*
X88875Y286685D01*
X91425Y284135D01*
X92805Y280803D01*
X92805Y277197D01*
X91425Y273865D01*
X88875Y271315D01*
X85543Y269935D01*
X66857Y269935D01*
X63525Y271315D01*
X61306Y273535D01*
X61219Y273609D01*
X61139Y273690D01*
X61031Y273768D01*
X60930Y273854D01*
X60832Y273913D01*
X60740Y273980D01*
X60621Y274040D01*
X60507Y274109D01*
X60401Y274151D01*
X60299Y274203D01*
X60172Y274243D01*
X60049Y274292D01*
X59938Y274317D01*
X59829Y274351D01*
X59735Y274361D01*
X59568Y274399D01*
X59243Y274417D01*
X59151Y274427D01*
X28156Y274427D01*
X28043Y274418D01*
X27928Y274419D01*
X27797Y274398D01*
X27665Y274387D01*
X27554Y274360D01*
X27441Y274342D01*
X27315Y274301D01*
X27186Y274269D01*
X27081Y274224D01*
X26972Y274188D01*
X26854Y274126D01*
X26732Y274074D01*
X26636Y274013D01*
X26535Y273960D01*
X26461Y273901D01*
X26316Y273809D01*
X26074Y273593D01*
X26002Y273535D01*
X18165Y265698D01*
X18091Y265611D01*
X18010Y265531D01*
X17932Y265424D01*
X17846Y265322D01*
X17787Y265225D01*
X17720Y265132D01*
X17660Y265014D01*
X17591Y264900D01*
X17549Y264794D01*
X17497Y264692D01*
X17457Y264565D01*
X17408Y264442D01*
X17383Y264331D01*
X17349Y264221D01*
X17339Y264128D01*
X17301Y263960D01*
X17283Y263636D01*
X17273Y263544D01*
X17273Y142856D01*
X17282Y142743D01*
X17281Y142628D01*
X17302Y142497D01*
X17313Y142365D01*
X17340Y142254D01*
X17358Y142141D01*
X17399Y142015D01*
X17431Y141886D01*
X17476Y141781D01*
X17512Y141672D01*
X17574Y141554D01*
X17626Y141432D01*
X17687Y141336D01*
X17740Y141235D01*
X17799Y141161D01*
X17891Y141016D01*
X18107Y140774D01*
X18165Y140702D01*
X26802Y132065D01*
X26889Y131991D01*
X26969Y131910D01*
X27076Y131832D01*
X27178Y131746D01*
X27275Y131687D01*
X27368Y131620D01*
X27486Y131560D01*
X27600Y131491D01*
X27706Y131449D01*
X27808Y131397D01*
X27935Y131357D01*
X28058Y131308D01*
X28169Y131283D01*
X28279Y131249D01*
X28372Y131239D01*
X28540Y131201D01*
X28864Y131183D01*
X28956Y131173D01*
X59151Y131173D01*
X59265Y131182D01*
X59379Y131181D01*
X59510Y131202D01*
X59643Y131213D01*
X59754Y131240D01*
X59866Y131258D01*
X59993Y131299D01*
X60122Y131331D01*
X60226Y131376D01*
X60335Y131412D01*
X60453Y131474D01*
X60575Y131526D01*
X60671Y131587D01*
X60773Y131640D01*
X60846Y131699D01*
X60991Y131791D01*
X61233Y132007D01*
X61306Y132065D01*
X63525Y134285D01*
X66857Y135665D01*
X85543Y135665D01*
X88875Y134285D01*
X91425Y131735D01*
X92805Y128403D01*
X92805Y124797D01*
X91425Y121465D01*
X88875Y118915D01*
X85543Y117535D01*
X66857Y117535D01*
X63525Y118915D01*
X61306Y121135D01*
X61219Y121209D01*
X61139Y121290D01*
X61031Y121368D01*
X60930Y121454D01*
X60832Y121513D01*
X60740Y121580D01*
X60621Y121640D01*
X60507Y121709D01*
X60401Y121751D01*
X60299Y121803D01*
X60172Y121843D01*
X60049Y121892D01*
X59938Y121917D01*
X59829Y121951D01*
X59735Y121961D01*
X59568Y121999D01*
X59243Y122017D01*
X59151Y122027D01*
X24890Y122027D01*
X23210Y122723D01*
X22475Y123458D01*
X22446Y123483D01*
X22420Y123512D01*
X22258Y123643D01*
X22099Y123778D01*
X22066Y123798D01*
X22036Y123822D01*
X21855Y123925D01*
X21676Y124033D01*
X21641Y124047D01*
X21608Y124066D01*
X21412Y124138D01*
X21218Y124216D01*
X21181Y124224D01*
X21145Y124237D01*
X20941Y124277D01*
X20737Y124322D01*
X20698Y124325D01*
X20661Y124332D01*
X20453Y124338D01*
X20244Y124350D01*
X20206Y124346D01*
X20168Y124347D01*
X19962Y124320D01*
X19753Y124298D01*
X19717Y124288D01*
X19679Y124283D01*
X19479Y124222D01*
X19278Y124167D01*
X19243Y124151D01*
X19206Y124140D01*
X19019Y124048D01*
X18829Y123961D01*
X18798Y123940D01*
X18763Y123923D01*
X18593Y123803D01*
X18420Y123686D01*
X18392Y123660D01*
X18361Y123638D01*
X18213Y123491D01*
X18060Y123348D01*
X18037Y123318D01*
X18010Y123291D01*
X17887Y123123D01*
X17760Y122957D01*
X17742Y122923D01*
X17720Y122892D01*
X17626Y122706D01*
X17527Y122522D01*
X17515Y122486D01*
X17497Y122452D01*
X17434Y122252D01*
X17367Y122055D01*
X17361Y122018D01*
X17349Y121981D01*
X17339Y121889D01*
X17284Y121569D01*
X17283Y121397D01*
X17273Y121304D01*
X17273Y53956D01*
X17282Y53843D01*
X17281Y53728D01*
X17302Y53597D01*
X17313Y53465D01*
X17340Y53354D01*
X17358Y53241D01*
X17399Y53115D01*
X17431Y52986D01*
X17476Y52881D01*
X17512Y52772D01*
X17574Y52654D01*
X17626Y52532D01*
X17687Y52436D01*
X17740Y52335D01*
X17799Y52261D01*
X17891Y52116D01*
X18107Y51874D01*
X18165Y51802D01*
X39102Y30865D01*
X39189Y30791D01*
X39269Y30710D01*
X39376Y30632D01*
X39477Y30546D01*
X39575Y30487D01*
X39668Y30420D01*
X39786Y30360D01*
X39900Y30291D01*
X40006Y30249D01*
X40108Y30197D01*
X40235Y30157D01*
X40358Y30108D01*
X40469Y30083D01*
X40579Y30049D01*
X40672Y30039D01*
X40840Y30001D01*
X41164Y29983D01*
X41256Y29973D01*
X146704Y29973D01*
X146742Y29976D01*
X146780Y29974D01*
X146988Y29996D01*
X147195Y30013D01*
X147232Y30022D01*
X147270Y30026D01*
X147472Y30081D01*
X147674Y30131D01*
X147709Y30146D01*
X147746Y30157D01*
X147936Y30244D01*
X148128Y30326D01*
X148160Y30346D01*
X148195Y30362D01*
X148368Y30479D01*
X148544Y30591D01*
X148572Y30616D01*
X148604Y30638D01*
X148756Y30781D01*
X148912Y30920D01*
X148936Y30949D01*
X148963Y30976D01*
X149090Y31141D01*
X149222Y31304D01*
X149240Y31337D01*
X149264Y31367D01*
X149362Y31551D01*
X149466Y31732D01*
X149479Y31768D01*
X149497Y31802D01*
X149565Y31999D01*
X149637Y32195D01*
X149644Y32232D01*
X149657Y32268D01*
X149692Y32474D01*
X149732Y32679D01*
X149733Y32717D01*
X149739Y32755D01*
X149741Y32964D01*
X149747Y33172D01*
X149742Y33210D01*
X149742Y33248D01*
X149710Y33454D01*
X149683Y33661D01*
X149672Y33698D01*
X149666Y33735D01*
X149601Y33933D01*
X149540Y34133D01*
X149523Y34168D01*
X149512Y34204D01*
X149415Y34389D01*
X149323Y34577D01*
X149301Y34608D01*
X149284Y34642D01*
X149226Y34715D01*
X149038Y34979D01*
X148917Y35101D01*
X148858Y35175D01*
X148523Y35510D01*
X147827Y37190D01*
X147827Y254910D01*
X148523Y256590D01*
X175210Y283277D01*
X176890Y283973D01*
X186551Y283973D01*
X186665Y283982D01*
X186779Y283981D01*
X186910Y284002D01*
X187043Y284013D01*
X187154Y284040D01*
X187266Y284058D01*
X187393Y284099D01*
X187522Y284131D01*
X187626Y284176D01*
X187735Y284212D01*
X187853Y284274D01*
X187975Y284326D01*
X188071Y284387D01*
X188173Y284440D01*
X188246Y284499D01*
X188391Y284591D01*
X188633Y284807D01*
X188706Y284865D01*
X190525Y286685D01*
X193857Y288065D01*
X212543Y288065D01*
X215875Y286685D01*
X218425Y284135D01*
X219805Y280803D01*
X219805Y277197D01*
X218425Y273865D01*
X215875Y271315D01*
X212543Y269935D01*
X193857Y269935D01*
X190525Y271315D01*
X187906Y273935D01*
X187819Y274009D01*
X187739Y274090D01*
X187631Y274168D01*
X187530Y274254D01*
X187432Y274313D01*
X187340Y274380D01*
X187221Y274440D01*
X187107Y274509D01*
X187001Y274551D01*
X186899Y274603D01*
X186772Y274643D01*
X186649Y274692D01*
X186538Y274717D01*
X186429Y274751D01*
X186335Y274761D01*
X186168Y274799D01*
X185843Y274817D01*
X185751Y274827D01*
X180956Y274827D01*
X180843Y274818D01*
X180728Y274819D01*
X180597Y274798D01*
X180465Y274787D01*
X180354Y274760D01*
X180241Y274742D01*
X180115Y274701D01*
X179986Y274669D01*
X179881Y274624D01*
X179772Y274588D01*
X179654Y274526D01*
X179532Y274474D01*
X179436Y274413D01*
X179335Y274360D01*
X179261Y274301D01*
X179116Y274209D01*
X178874Y273993D01*
X178802Y273935D01*
X157865Y252998D01*
X157791Y252911D01*
X157710Y252831D01*
X157632Y252724D01*
X157546Y252622D01*
X157487Y252525D01*
X157420Y252432D01*
X157360Y252314D01*
X157291Y252200D01*
X157249Y252094D01*
X157197Y251992D01*
X157157Y251865D01*
X157108Y251742D01*
X157083Y251631D01*
X157049Y251521D01*
X157039Y251428D01*
X157001Y251260D01*
X156983Y250936D01*
X156973Y250844D01*
X156973Y119996D01*
X156976Y119958D01*
X156974Y119920D01*
X156996Y119712D01*
X157013Y119505D01*
X157022Y119467D01*
X157026Y119430D01*
X157081Y119228D01*
X157131Y119026D01*
X157146Y118991D01*
X157157Y118954D01*
X157244Y118763D01*
X157326Y118572D01*
X157346Y118540D01*
X157362Y118506D01*
X157479Y118332D01*
X157591Y118156D01*
X157616Y118128D01*
X157638Y118096D01*
X157781Y117944D01*
X157920Y117788D01*
X157949Y117764D01*
X157975Y117737D01*
X158141Y117609D01*
X158304Y117478D01*
X158337Y117460D01*
X158367Y117436D01*
X158551Y117338D01*
X158732Y117234D01*
X158768Y117221D01*
X158802Y117203D01*
X158999Y117135D01*
X159195Y117063D01*
X159232Y117056D01*
X159268Y117043D01*
X159475Y117008D01*
X159679Y116968D01*
X159717Y116967D01*
X159755Y116961D01*
X159964Y116959D01*
X160172Y116953D01*
X160210Y116958D01*
X160248Y116958D01*
X160455Y116990D01*
X160661Y117017D01*
X160698Y117028D01*
X160735Y117034D01*
X160934Y117099D01*
X161133Y117160D01*
X161168Y117177D01*
X161204Y117188D01*
X161389Y117285D01*
X161577Y117377D01*
X161608Y117399D01*
X161642Y117416D01*
X161714Y117474D01*
X161979Y117662D01*
X162101Y117783D01*
X162175Y117842D01*
X174810Y130477D01*
X176490Y131173D01*
X186151Y131173D01*
X186265Y131182D01*
X186379Y131181D01*
X186511Y131202D01*
X186643Y131213D01*
X186754Y131240D01*
X186866Y131258D01*
X186993Y131299D01*
X187122Y131331D01*
X187226Y131376D01*
X187335Y131412D01*
X187453Y131474D01*
X187575Y131526D01*
X187671Y131587D01*
X187773Y131640D01*
X187846Y131699D01*
X187991Y131791D01*
X188233Y132007D01*
X188306Y132065D01*
X190525Y134285D01*
X193857Y135665D01*
X212543Y135665D01*
X215875Y134285D01*
X218425Y131735D01*
X219805Y128403D01*
X219805Y124797D01*
X218425Y121465D01*
X215875Y118915D01*
X212543Y117535D01*
X193857Y117535D01*
X190525Y118915D01*
X188306Y121135D01*
X188219Y121209D01*
X188139Y121290D01*
X188031Y121368D01*
X187930Y121454D01*
X187832Y121513D01*
X187740Y121580D01*
X187621Y121640D01*
X187507Y121709D01*
X187401Y121751D01*
X187299Y121803D01*
X187173Y121843D01*
X187049Y121892D01*
X186938Y121917D01*
X186829Y121951D01*
X186735Y121961D01*
X186568Y121999D01*
X186243Y122017D01*
X186151Y122027D01*
X180556Y122027D01*
X180443Y122018D01*
X180328Y122019D01*
X180197Y121998D01*
X180065Y121987D01*
X179954Y121960D01*
X179841Y121942D01*
X179715Y121901D01*
X179586Y121869D01*
X179481Y121824D01*
X179372Y121788D01*
X179254Y121726D01*
X179132Y121674D01*
X179036Y121613D01*
X178935Y121560D01*
X178861Y121501D01*
X178716Y121409D01*
X178474Y121193D01*
X178402Y121135D01*
X157865Y100598D01*
X157791Y100511D01*
X157710Y100431D01*
X157632Y100324D01*
X157546Y100222D01*
X157487Y100125D01*
X157420Y100032D01*
X157360Y99914D01*
X157291Y99800D01*
X157249Y99694D01*
X157197Y99592D01*
X157157Y99465D01*
X157108Y99342D01*
X157083Y99231D01*
X157049Y99121D01*
X157039Y99028D01*
X157001Y98860D01*
X156983Y98536D01*
X156973Y98444D01*
X156973Y41256D01*
X156982Y41143D01*
X156981Y41028D01*
X157002Y40897D01*
X157013Y40765D01*
X157040Y40654D01*
X157058Y40541D01*
X157099Y40415D01*
X157131Y40286D01*
X157176Y40181D01*
X157212Y40072D01*
X157274Y39954D01*
X157326Y39832D01*
X157387Y39736D01*
X157440Y39635D01*
X157499Y39561D01*
X157591Y39416D01*
X157807Y39174D01*
X157865Y39102D01*
X166102Y30865D01*
X166189Y30791D01*
X166269Y30710D01*
X166376Y30632D01*
X166478Y30546D01*
X166575Y30487D01*
X166668Y30420D01*
X166786Y30360D01*
X166900Y30291D01*
X167006Y30249D01*
X167108Y30197D01*
X167235Y30157D01*
X167358Y30108D01*
X167469Y30083D01*
X167579Y30049D01*
X167672Y30039D01*
X167840Y30001D01*
X168164Y29983D01*
X168256Y29973D01*
X286404Y29973D01*
X286442Y29976D01*
X286480Y29974D01*
X286688Y29996D01*
X286895Y30013D01*
X286932Y30022D01*
X286970Y30026D01*
X287172Y30081D01*
X287374Y30131D01*
X287409Y30146D01*
X287446Y30157D01*
X287636Y30244D01*
X287828Y30326D01*
X287860Y30346D01*
X287895Y30362D01*
X288068Y30479D01*
X288244Y30591D01*
X288272Y30616D01*
X288304Y30638D01*
X288456Y30781D01*
X288612Y30920D01*
X288636Y30949D01*
X288663Y30976D01*
X288790Y31141D01*
X288922Y31304D01*
X288940Y31337D01*
X288964Y31367D01*
X289062Y31551D01*
X289166Y31732D01*
X289179Y31768D01*
X289197Y31802D01*
X289265Y31999D01*
X289337Y32195D01*
X289344Y32232D01*
X289357Y32268D01*
X289392Y32474D01*
X289432Y32679D01*
X289433Y32717D01*
X289439Y32755D01*
X289441Y32964D01*
X289447Y33172D01*
X289442Y33210D01*
X289442Y33248D01*
X289410Y33454D01*
X289383Y33661D01*
X289372Y33698D01*
X289366Y33735D01*
X289301Y33933D01*
X289240Y34133D01*
X289223Y34168D01*
X289212Y34204D01*
X289115Y34389D01*
X289023Y34577D01*
X289001Y34608D01*
X288984Y34642D01*
X288926Y34715D01*
X288738Y34979D01*
X288617Y35101D01*
X288558Y35175D01*
X288223Y35510D01*
X287527Y37190D01*
X287527Y267610D01*
X288223Y269290D01*
X301810Y282877D01*
X303490Y283573D01*
X325851Y283573D01*
X325965Y283582D01*
X326079Y283581D01*
X326210Y283602D01*
X326343Y283613D01*
X326454Y283640D01*
X326566Y283658D01*
X326693Y283699D01*
X326822Y283731D01*
X326926Y283776D01*
X327035Y283812D01*
X327153Y283874D01*
X327275Y283926D01*
X327371Y283987D01*
X327473Y284040D01*
X327546Y284099D01*
X327691Y284191D01*
X327933Y284407D01*
X328006Y284465D01*
X330225Y286685D01*
X333557Y288065D01*
X352243Y288065D01*
X355575Y286685D01*
X358125Y284135D01*
X359505Y280803D01*
X359505Y277197D01*
X358125Y273865D01*
X355575Y271315D01*
X352243Y269935D01*
X333557Y269935D01*
X330225Y271315D01*
X328006Y273535D01*
X327919Y273609D01*
X327839Y273690D01*
X327731Y273768D01*
X327630Y273854D01*
X327532Y273913D01*
X327440Y273980D01*
X327321Y274040D01*
X327207Y274109D01*
X327101Y274151D01*
X326999Y274203D01*
X326872Y274243D01*
X326749Y274292D01*
X326638Y274317D01*
X326529Y274351D01*
X326435Y274361D01*
X326268Y274399D01*
X325943Y274417D01*
X325851Y274427D01*
X307556Y274427D01*
X307443Y274418D01*
X307328Y274419D01*
X307197Y274398D01*
X307065Y274387D01*
X306954Y274360D01*
X306841Y274342D01*
X306715Y274301D01*
X306586Y274269D01*
X306481Y274224D01*
X306372Y274188D01*
X306254Y274126D01*
X306132Y274074D01*
X306036Y274013D01*
X305935Y273960D01*
X305861Y273901D01*
X305716Y273809D01*
X305474Y273593D01*
X305402Y273535D01*
X297565Y265698D01*
X297491Y265611D01*
X297410Y265531D01*
X297332Y265424D01*
X297246Y265322D01*
X297187Y265225D01*
X297120Y265132D01*
X297060Y265014D01*
X296991Y264900D01*
X296949Y264794D01*
X296897Y264692D01*
X296857Y264565D01*
X296808Y264442D01*
X296783Y264331D01*
X296749Y264221D01*
X296739Y264128D01*
X296701Y263960D01*
X296683Y263636D01*
X296673Y263544D01*
X296673Y142856D01*
X296682Y142743D01*
X296681Y142628D01*
X296702Y142497D01*
X296713Y142365D01*
X296740Y142254D01*
X296758Y142141D01*
X296799Y142015D01*
X296831Y141886D01*
X296876Y141781D01*
X296912Y141672D01*
X296974Y141554D01*
X297026Y141432D01*
X297087Y141336D01*
X297140Y141235D01*
X297199Y141161D01*
X297291Y141016D01*
X297507Y140774D01*
X297565Y140702D01*
X306202Y132065D01*
X306289Y131991D01*
X306369Y131910D01*
X306476Y131832D01*
X306578Y131746D01*
X306675Y131687D01*
X306768Y131620D01*
X306886Y131560D01*
X307000Y131491D01*
X307106Y131449D01*
X307208Y131397D01*
X307335Y131357D01*
X307458Y131308D01*
X307569Y131283D01*
X307679Y131249D01*
X307772Y131239D01*
X307940Y131201D01*
X308264Y131183D01*
X308356Y131173D01*
X325851Y131173D01*
X325965Y131182D01*
X326079Y131181D01*
X326210Y131202D01*
X326343Y131213D01*
X326454Y131240D01*
X326566Y131258D01*
X326693Y131299D01*
X326822Y131331D01*
X326926Y131376D01*
X327035Y131412D01*
X327153Y131474D01*
X327275Y131526D01*
X327371Y131587D01*
X327473Y131640D01*
X327546Y131699D01*
X327691Y131791D01*
X327933Y132007D01*
X328006Y132065D01*
X330225Y134285D01*
X333557Y135665D01*
X352243Y135665D01*
X355575Y134285D01*
X358125Y131735D01*
X359505Y128403D01*
X359505Y124797D01*
X358125Y121465D01*
X355575Y118915D01*
X352243Y117535D01*
X333557Y117535D01*
X330225Y118915D01*
X328006Y121135D01*
X327919Y121209D01*
X327839Y121290D01*
X327731Y121368D01*
X327630Y121454D01*
X327532Y121513D01*
X327440Y121580D01*
X327321Y121640D01*
X327207Y121709D01*
X327101Y121751D01*
X326999Y121803D01*
X326872Y121843D01*
X326749Y121892D01*
X326638Y121917D01*
X326529Y121951D01*
X326435Y121961D01*
X326268Y121999D01*
X325943Y122017D01*
X325851Y122027D01*
X304290Y122027D01*
X302610Y122723D01*
X301875Y123458D01*
X301846Y123483D01*
X301820Y123512D01*
X301658Y123643D01*
X301499Y123778D01*
X301466Y123798D01*
X301436Y123822D01*
X301255Y123925D01*
X301076Y124033D01*
X301041Y124047D01*
X301008Y124066D01*
X300812Y124138D01*
X300618Y124216D01*
X300581Y124224D01*
X300545Y124237D01*
X300341Y124277D01*
X300137Y124322D01*
X300098Y124325D01*
X300061Y124332D01*
X299853Y124338D01*
X299644Y124350D01*
X299606Y124346D01*
X299568Y124347D01*
X299362Y124320D01*
X299153Y124298D01*
X299117Y124288D01*
X299079Y124283D01*
X298879Y124222D01*
X298678Y124167D01*
X298643Y124151D01*
X298606Y124140D01*
X298419Y124048D01*
X298229Y123961D01*
X298198Y123940D01*
X298163Y123923D01*
X297993Y123803D01*
X297820Y123686D01*
X297792Y123660D01*
X297761Y123638D01*
X297613Y123491D01*
X297460Y123348D01*
X297437Y123318D01*
X297410Y123291D01*
X297287Y123123D01*
X297160Y122957D01*
X297142Y122923D01*
X297120Y122892D01*
X297026Y122706D01*
X296927Y122522D01*
X296915Y122486D01*
X296897Y122452D01*
X296834Y122252D01*
X296767Y122055D01*
X296761Y122018D01*
X296749Y121981D01*
X296739Y121889D01*
X296684Y121569D01*
X296683Y121397D01*
X296673Y121304D01*
X296673Y41256D01*
X296682Y41143D01*
X296681Y41028D01*
X296702Y40897D01*
X296713Y40765D01*
X296740Y40654D01*
X296758Y40541D01*
X296799Y40415D01*
X296831Y40286D01*
X296876Y40181D01*
X296912Y40072D01*
X296974Y39954D01*
X297026Y39832D01*
X297087Y39736D01*
X297140Y39635D01*
X297199Y39561D01*
X297291Y39416D01*
X297507Y39174D01*
X297565Y39102D01*
X305802Y30865D01*
X305889Y30791D01*
X305969Y30710D01*
X306076Y30632D01*
X306178Y30546D01*
X306275Y30487D01*
X306368Y30420D01*
X306486Y30360D01*
X306600Y30291D01*
X306706Y30249D01*
X306808Y30197D01*
X306935Y30157D01*
X307058Y30108D01*
X307169Y30083D01*
X307279Y30049D01*
X307372Y30039D01*
X307540Y30001D01*
X307864Y29983D01*
X307956Y29973D01*
X426104Y29973D01*
X426142Y29976D01*
X426180Y29974D01*
X426388Y29996D01*
X426595Y30013D01*
X426632Y30022D01*
X426670Y30026D01*
X426872Y30081D01*
X427074Y30131D01*
X427109Y30146D01*
X427146Y30157D01*
X427336Y30244D01*
X427528Y30326D01*
X427560Y30346D01*
X427595Y30362D01*
X427768Y30479D01*
X427944Y30591D01*
X427972Y30616D01*
X428004Y30638D01*
X428156Y30781D01*
X428312Y30920D01*
X428336Y30949D01*
X428363Y30976D01*
X428490Y31141D01*
X428622Y31304D01*
X428640Y31337D01*
X428664Y31367D01*
X428762Y31551D01*
X428866Y31732D01*
X428879Y31768D01*
X428897Y31802D01*
X428965Y31999D01*
X429037Y32195D01*
X429044Y32232D01*
X429057Y32268D01*
X429092Y32474D01*
X429132Y32679D01*
X429133Y32717D01*
X429139Y32755D01*
X429141Y32964D01*
X429147Y33172D01*
X429142Y33210D01*
X429142Y33248D01*
X429110Y33454D01*
X429083Y33661D01*
X429072Y33698D01*
X429066Y33735D01*
X429001Y33933D01*
X428940Y34133D01*
X428923Y34168D01*
X428912Y34204D01*
X428815Y34389D01*
X428723Y34577D01*
X428701Y34608D01*
X428684Y34642D01*
X428626Y34715D01*
X428438Y34979D01*
X428317Y35101D01*
X428258Y35175D01*
X427923Y35510D01*
X427227Y37190D01*
X427227Y267610D01*
X427923Y269290D01*
X441510Y282877D01*
X443190Y283573D01*
X465551Y283573D01*
X465665Y283582D01*
X465779Y283581D01*
X465911Y283602D01*
X466043Y283613D01*
X466154Y283640D01*
X466266Y283658D01*
X466393Y283699D01*
X466522Y283731D01*
X466626Y283776D01*
X466735Y283812D01*
X466853Y283874D01*
X466975Y283926D01*
X467071Y283987D01*
X467173Y284040D01*
X467246Y284099D01*
X467391Y284191D01*
X467633Y284407D01*
X467706Y284465D01*
X469925Y286685D01*
X473257Y288065D01*
X491943Y288065D01*
X495275Y286685D01*
X497825Y284135D01*
X499205Y280803D01*
X499205Y277197D01*
X497825Y273865D01*
X495275Y271315D01*
X491943Y269935D01*
X473257Y269935D01*
X469925Y271315D01*
X467706Y273535D01*
X467619Y273609D01*
X467539Y273690D01*
X467431Y273768D01*
X467330Y273854D01*
X467232Y273913D01*
X467140Y273980D01*
X467021Y274040D01*
X466907Y274109D01*
X466801Y274151D01*
X466699Y274203D01*
X466573Y274243D01*
X466449Y274292D01*
X466338Y274317D01*
X466229Y274351D01*
X466135Y274361D01*
X465968Y274399D01*
X465643Y274417D01*
X465551Y274427D01*
X447256Y274427D01*
X447143Y274418D01*
X447028Y274419D01*
X446897Y274398D01*
X446765Y274387D01*
X446654Y274360D01*
X446541Y274342D01*
X446415Y274301D01*
X446286Y274269D01*
X446181Y274224D01*
X446072Y274188D01*
X445954Y274126D01*
X445832Y274074D01*
X445736Y274013D01*
X445635Y273960D01*
X445561Y273901D01*
X445416Y273809D01*
X445174Y273593D01*
X445102Y273535D01*
X437265Y265698D01*
X437191Y265611D01*
X437110Y265531D01*
X437032Y265424D01*
X436946Y265322D01*
X436887Y265225D01*
X436820Y265132D01*
X436760Y265014D01*
X436691Y264900D01*
X436649Y264794D01*
X436597Y264692D01*
X436557Y264565D01*
X436508Y264442D01*
X436483Y264331D01*
X436449Y264221D01*
X436439Y264128D01*
X436401Y263960D01*
X436383Y263636D01*
X436373Y263544D01*
X436373Y142856D01*
X436382Y142743D01*
X436381Y142628D01*
X436402Y142497D01*
X436413Y142365D01*
X436440Y142254D01*
X436458Y142141D01*
X436499Y142015D01*
X436531Y141886D01*
X436576Y141781D01*
X436612Y141672D01*
X436674Y141554D01*
X436726Y141432D01*
X436787Y141336D01*
X436840Y141235D01*
X436899Y141161D01*
X436991Y141016D01*
X437207Y140774D01*
X437265Y140702D01*
X445902Y132065D01*
X445989Y131991D01*
X446069Y131910D01*
X446176Y131832D01*
X446278Y131746D01*
X446375Y131687D01*
X446468Y131620D01*
X446586Y131560D01*
X446700Y131491D01*
X446806Y131449D01*
X446908Y131397D01*
X447035Y131357D01*
X447158Y131308D01*
X447269Y131283D01*
X447379Y131249D01*
X447472Y131239D01*
X447640Y131201D01*
X447964Y131183D01*
X448056Y131173D01*
X465551Y131173D01*
X465665Y131182D01*
X465779Y131181D01*
X465911Y131202D01*
X466043Y131213D01*
X466154Y131240D01*
X466266Y131258D01*
X466393Y131299D01*
X466522Y131331D01*
X466626Y131376D01*
X466735Y131412D01*
X466853Y131474D01*
X466975Y131526D01*
X467071Y131587D01*
X467173Y131640D01*
X467246Y131699D01*
X467391Y131791D01*
X467633Y132007D01*
X467706Y132065D01*
X469925Y134285D01*
X473257Y135665D01*
X491943Y135665D01*
X495275Y134285D01*
X497825Y131735D01*
X499205Y128403D01*
X499205Y124797D01*
X497825Y121465D01*
X495275Y118915D01*
X491943Y117535D01*
X473257Y117535D01*
X469925Y118915D01*
X467706Y121135D01*
X467619Y121209D01*
X467539Y121290D01*
X467431Y121368D01*
X467330Y121454D01*
X467232Y121513D01*
X467140Y121580D01*
X467021Y121640D01*
X466907Y121709D01*
X466801Y121751D01*
X466699Y121803D01*
X466573Y121843D01*
X466449Y121892D01*
X466338Y121917D01*
X466229Y121951D01*
X466135Y121961D01*
X465968Y121999D01*
X465643Y122017D01*
X465551Y122027D01*
X443990Y122027D01*
X442310Y122723D01*
X441575Y123458D01*
X441546Y123483D01*
X441520Y123512D01*
X441358Y123643D01*
X441199Y123778D01*
X441166Y123798D01*
X441136Y123822D01*
X440955Y123925D01*
X440776Y124033D01*
X440741Y124047D01*
X440708Y124066D01*
X440512Y124138D01*
X440318Y124216D01*
X440281Y124224D01*
X440245Y124237D01*
X440041Y124277D01*
X439837Y124322D01*
X439798Y124325D01*
X439761Y124332D01*
X439553Y124338D01*
X439344Y124350D01*
X439306Y124346D01*
X439268Y124347D01*
X439062Y124320D01*
X438853Y124298D01*
X438817Y124288D01*
X438779Y124283D01*
X438579Y124222D01*
X438378Y124167D01*
X438343Y124151D01*
X438306Y124140D01*
X438119Y124048D01*
X437929Y123961D01*
X437898Y123940D01*
X437863Y123923D01*
X437693Y123803D01*
X437520Y123686D01*
X437492Y123660D01*
X437461Y123638D01*
X437313Y123491D01*
X437160Y123348D01*
X437137Y123318D01*
X437110Y123291D01*
X436987Y123123D01*
X436860Y122957D01*
X436842Y122923D01*
X436820Y122892D01*
X436726Y122706D01*
X436627Y122522D01*
X436615Y122486D01*
X436597Y122452D01*
X436534Y122252D01*
X436467Y122055D01*
X436461Y122018D01*
X436449Y121981D01*
X436439Y121889D01*
X436384Y121569D01*
X436383Y121397D01*
X436373Y121304D01*
X436373Y41256D01*
X436382Y41143D01*
X436381Y41028D01*
X436402Y40897D01*
X436413Y40765D01*
X436440Y40654D01*
X436458Y40541D01*
X436499Y40415D01*
X436531Y40286D01*
X436576Y40181D01*
X436612Y40072D01*
X436674Y39954D01*
X436726Y39832D01*
X436787Y39736D01*
X436840Y39635D01*
X436899Y39561D01*
X436991Y39416D01*
X437207Y39174D01*
X437265Y39102D01*
X445502Y30865D01*
X445589Y30791D01*
X445669Y30710D01*
X445776Y30632D01*
X445878Y30546D01*
X445975Y30487D01*
X446068Y30420D01*
X446186Y30360D01*
X446300Y30291D01*
X446406Y30249D01*
X446508Y30197D01*
X446635Y30157D01*
X446758Y30108D01*
X446869Y30083D01*
X446979Y30049D01*
X447072Y30039D01*
X447240Y30001D01*
X447564Y29983D01*
X447656Y29973D01*
X565804Y29973D01*
X565842Y29976D01*
X565880Y29974D01*
X566088Y29996D01*
X566295Y30013D01*
X566332Y30022D01*
X566370Y30026D01*
X566572Y30081D01*
X566774Y30131D01*
X566809Y30146D01*
X566846Y30157D01*
X567036Y30244D01*
X567228Y30326D01*
X567260Y30346D01*
X567295Y30362D01*
X567468Y30479D01*
X567644Y30591D01*
X567672Y30616D01*
X567704Y30638D01*
X567856Y30781D01*
X568012Y30920D01*
X568036Y30949D01*
X568063Y30976D01*
X568190Y31141D01*
X568322Y31304D01*
X568340Y31337D01*
X568364Y31367D01*
X568462Y31551D01*
X568566Y31732D01*
X568579Y31768D01*
X568597Y31802D01*
X568665Y31999D01*
X568737Y32195D01*
X568744Y32232D01*
X568757Y32268D01*
X568792Y32474D01*
X568832Y32679D01*
X568833Y32717D01*
X568839Y32755D01*
X568841Y32964D01*
X568847Y33172D01*
X568842Y33210D01*
X568842Y33248D01*
X568810Y33454D01*
X568783Y33661D01*
X568772Y33698D01*
X568766Y33735D01*
X568701Y33933D01*
X568640Y34133D01*
X568623Y34168D01*
X568612Y34204D01*
X568515Y34389D01*
X568423Y34577D01*
X568401Y34608D01*
X568384Y34642D01*
X568326Y34715D01*
X568138Y34979D01*
X568017Y35101D01*
X567958Y35175D01*
X567623Y35510D01*
X566927Y37190D01*
X566927Y267610D01*
X567623Y269290D01*
X581210Y282877D01*
X582890Y283573D01*
X605251Y283573D01*
X605365Y283582D01*
X605479Y283581D01*
X605611Y283602D01*
X605743Y283613D01*
X605854Y283640D01*
X605966Y283658D01*
X606093Y283699D01*
X606222Y283731D01*
X606326Y283776D01*
X606435Y283812D01*
X606553Y283874D01*
X606675Y283926D01*
X606771Y283987D01*
X606873Y284040D01*
X606946Y284099D01*
X607091Y284191D01*
X607333Y284407D01*
X607406Y284465D01*
X609625Y286685D01*
X612957Y288065D01*
X631643Y288065D01*
X634975Y286685D01*
X637525Y284135D01*
X638905Y280803D01*
X638905Y277197D01*
X637525Y273865D01*
X634975Y271315D01*
X631643Y269935D01*
X612957Y269935D01*
X609625Y271315D01*
X607406Y273535D01*
X607319Y273609D01*
X607239Y273690D01*
X607131Y273768D01*
X607030Y273854D01*
X606932Y273913D01*
X606840Y273980D01*
X606721Y274040D01*
X606607Y274109D01*
X606501Y274151D01*
X606399Y274203D01*
X606273Y274243D01*
X606149Y274292D01*
X606038Y274317D01*
X605929Y274351D01*
X605835Y274361D01*
X605668Y274399D01*
X605343Y274417D01*
X605251Y274427D01*
X586956Y274427D01*
X586843Y274418D01*
X586728Y274419D01*
X586597Y274398D01*
X586465Y274387D01*
X586354Y274360D01*
X586241Y274342D01*
X586115Y274301D01*
X585986Y274269D01*
X585881Y274224D01*
X585772Y274188D01*
X585654Y274126D01*
X585532Y274074D01*
X585436Y274013D01*
X585335Y273960D01*
X585261Y273901D01*
X585116Y273809D01*
X584874Y273593D01*
X584802Y273535D01*
X576965Y265698D01*
X576891Y265611D01*
X576810Y265531D01*
X576732Y265424D01*
X576646Y265322D01*
X576587Y265225D01*
X576520Y265132D01*
X576460Y265014D01*
X576391Y264900D01*
X576349Y264794D01*
X576297Y264692D01*
X576257Y264565D01*
X576208Y264442D01*
X576183Y264331D01*
X576149Y264221D01*
X576139Y264128D01*
X576101Y263960D01*
X576083Y263636D01*
X576073Y263544D01*
X576073Y142856D01*
X576082Y142743D01*
X576081Y142628D01*
X576102Y142497D01*
X576113Y142365D01*
X576140Y142254D01*
X576158Y142141D01*
X576199Y142015D01*
X576231Y141886D01*
X576276Y141781D01*
X576312Y141672D01*
X576374Y141554D01*
X576426Y141432D01*
X576487Y141336D01*
X576540Y141235D01*
X576599Y141161D01*
X576691Y141016D01*
X576907Y140774D01*
X576965Y140702D01*
X585602Y132065D01*
X585689Y131991D01*
X585769Y131910D01*
X585876Y131832D01*
X585977Y131746D01*
X586075Y131687D01*
X586168Y131620D01*
X586286Y131560D01*
X586400Y131491D01*
X586506Y131449D01*
X586608Y131397D01*
X586735Y131357D01*
X586858Y131308D01*
X586969Y131283D01*
X587079Y131249D01*
X587172Y131239D01*
X587340Y131201D01*
X587664Y131183D01*
X587756Y131173D01*
X605251Y131173D01*
X605365Y131182D01*
X605479Y131181D01*
X605610Y131202D01*
X605743Y131213D01*
X605854Y131240D01*
X605966Y131258D01*
X606093Y131299D01*
X606222Y131331D01*
X606326Y131376D01*
X606435Y131412D01*
X606553Y131474D01*
X606675Y131526D01*
X606771Y131587D01*
X606873Y131640D01*
X606946Y131699D01*
X607091Y131791D01*
X607333Y132007D01*
X607406Y132065D01*
X609625Y134285D01*
X612957Y135665D01*
X631643Y135665D01*
X634975Y134285D01*
X637525Y131735D01*
X638905Y128403D01*
X638905Y124797D01*
X637525Y121465D01*
X634975Y118915D01*
X631643Y117535D01*
X612957Y117535D01*
X609625Y118915D01*
X607406Y121135D01*
X607319Y121209D01*
X607239Y121290D01*
X607131Y121368D01*
X607030Y121454D01*
X606932Y121513D01*
X606840Y121580D01*
X606721Y121640D01*
X606607Y121709D01*
X606501Y121751D01*
X606399Y121803D01*
X606272Y121843D01*
X606149Y121892D01*
X606038Y121917D01*
X605929Y121951D01*
X605835Y121961D01*
X605668Y121999D01*
X605343Y122017D01*
X605251Y122027D01*
X583690Y122027D01*
X582010Y122723D01*
X581275Y123458D01*
X581246Y123483D01*
X581220Y123512D01*
X581058Y123643D01*
X580899Y123778D01*
X580866Y123798D01*
X580836Y123822D01*
X580655Y123925D01*
X580476Y124033D01*
X580441Y124047D01*
X580408Y124066D01*
X580212Y124138D01*
X580018Y124216D01*
X579981Y124224D01*
X579945Y124237D01*
X579741Y124277D01*
X579537Y124322D01*
X579498Y124325D01*
X579461Y124332D01*
X579253Y124338D01*
X579044Y124350D01*
X579006Y124346D01*
X578968Y124347D01*
X578762Y124320D01*
X578553Y124298D01*
X578517Y124288D01*
X578479Y124283D01*
X578279Y124222D01*
X578078Y124167D01*
X578043Y124151D01*
X578006Y124140D01*
X577819Y124048D01*
X577629Y123961D01*
X577598Y123940D01*
X577563Y123923D01*
X577393Y123803D01*
X577220Y123686D01*
X577192Y123660D01*
X577161Y123638D01*
X577013Y123491D01*
X576860Y123348D01*
X576837Y123318D01*
X576810Y123291D01*
X576687Y123123D01*
X576560Y122957D01*
X576542Y122923D01*
X576520Y122892D01*
X576426Y122706D01*
X576327Y122522D01*
X576315Y122486D01*
X576297Y122452D01*
X576234Y122252D01*
X576167Y122055D01*
X576161Y122018D01*
X576149Y121981D01*
X576139Y121889D01*
X576084Y121569D01*
X576083Y121397D01*
X576073Y121304D01*
X576073Y41256D01*
X576082Y41143D01*
X576081Y41028D01*
X576102Y40897D01*
X576113Y40765D01*
X576140Y40654D01*
X576158Y40541D01*
X576199Y40415D01*
X576231Y40286D01*
X576276Y40181D01*
X576312Y40072D01*
X576374Y39954D01*
X576426Y39832D01*
X576487Y39736D01*
X576540Y39635D01*
X576599Y39561D01*
X576691Y39416D01*
X576907Y39174D01*
X576965Y39102D01*
X585202Y30865D01*
X585289Y30791D01*
X585369Y30710D01*
X585476Y30632D01*
X585578Y30546D01*
X585675Y30487D01*
X585768Y30420D01*
X585886Y30360D01*
X586000Y30291D01*
X586106Y30249D01*
X586208Y30197D01*
X586335Y30157D01*
X586458Y30108D01*
X586569Y30083D01*
X586679Y30049D01*
X586772Y30039D01*
X586940Y30001D01*
X587264Y29983D01*
X587356Y29973D01*
X705504Y29973D01*
X705542Y29976D01*
X705580Y29974D01*
X705788Y29996D01*
X705995Y30013D01*
X706032Y30022D01*
X706070Y30026D01*
X706272Y30081D01*
X706474Y30131D01*
X706509Y30146D01*
X706546Y30157D01*
X706736Y30244D01*
X706928Y30326D01*
X706960Y30346D01*
X706995Y30362D01*
X707168Y30479D01*
X707344Y30591D01*
X707372Y30616D01*
X707404Y30638D01*
X707556Y30781D01*
X707712Y30920D01*
X707736Y30949D01*
X707763Y30976D01*
X707890Y31141D01*
X708022Y31304D01*
X708040Y31337D01*
X708064Y31367D01*
X708162Y31551D01*
X708266Y31732D01*
X708279Y31768D01*
X708297Y31802D01*
X708365Y31999D01*
X708437Y32195D01*
X708444Y32232D01*
X708457Y32268D01*
X708492Y32474D01*
X708532Y32679D01*
X708533Y32717D01*
X708539Y32755D01*
X708541Y32964D01*
X708547Y33172D01*
X708542Y33210D01*
X708542Y33248D01*
X708510Y33454D01*
X708483Y33661D01*
X708472Y33698D01*
X708466Y33735D01*
X708401Y33933D01*
X708340Y34133D01*
X708323Y34168D01*
X708312Y34204D01*
X708215Y34389D01*
X708123Y34577D01*
X708101Y34608D01*
X708084Y34642D01*
X708026Y34715D01*
X707838Y34979D01*
X707717Y35101D01*
X707658Y35175D01*
X707323Y35510D01*
X706627Y37190D01*
X706627Y280310D01*
X707323Y281990D01*
X720910Y295577D01*
X722590Y296273D01*
X744951Y296273D01*
X745065Y296282D01*
X745179Y296281D01*
X745311Y296302D01*
X745443Y296313D01*
X745554Y296340D01*
X745666Y296358D01*
X745793Y296399D01*
X745922Y296431D01*
X746026Y296476D01*
X746135Y296512D01*
X746253Y296574D01*
X746375Y296626D01*
X746471Y296687D01*
X746573Y296740D01*
X746646Y296799D01*
X746791Y296891D01*
X747033Y297107D01*
X747106Y297165D01*
X749325Y299385D01*
X752657Y300765D01*
X771343Y300765D01*
X774675Y299385D01*
X777225Y296835D01*
X778605Y293503D01*
X778605Y289897D01*
X777225Y286565D01*
X774675Y284015D01*
X771343Y282635D01*
X752657Y282635D01*
X749325Y284015D01*
X747106Y286235D01*
X747019Y286309D01*
X746939Y286390D01*
X746831Y286468D01*
X746730Y286554D01*
X746632Y286613D01*
X746540Y286680D01*
X746421Y286740D01*
X746307Y286809D01*
X746201Y286851D01*
X746099Y286903D01*
X745973Y286943D01*
X745849Y286992D01*
X745738Y287017D01*
X745629Y287051D01*
X745535Y287061D01*
X745368Y287099D01*
X745043Y287117D01*
X744951Y287127D01*
X726656Y287127D01*
X726543Y287118D01*
X726428Y287119D01*
X726297Y287098D01*
X726165Y287087D01*
X726054Y287060D01*
X725941Y287042D01*
X725815Y287001D01*
X725686Y286969D01*
X725581Y286924D01*
X725472Y286888D01*
X725354Y286826D01*
X725232Y286774D01*
X725136Y286713D01*
X725035Y286660D01*
X724961Y286601D01*
X724816Y286509D01*
X724574Y286293D01*
X724502Y286235D01*
X716665Y278398D01*
X716591Y278311D01*
X716510Y278231D01*
X716432Y278124D01*
X716346Y278022D01*
X716287Y277925D01*
X716220Y277832D01*
X716160Y277714D01*
X716091Y277600D01*
X716049Y277494D01*
X715997Y277392D01*
X715957Y277265D01*
X715908Y277142D01*
X715883Y277031D01*
X715849Y276921D01*
X715839Y276828D01*
X715801Y276660D01*
X715783Y276336D01*
X715773Y276244D01*
X715773Y142856D01*
X715782Y142743D01*
X715781Y142628D01*
X715802Y142497D01*
X715813Y142365D01*
X715840Y142254D01*
X715858Y142141D01*
X715899Y142015D01*
X715931Y141886D01*
X715976Y141781D01*
X716012Y141672D01*
X716074Y141554D01*
X716126Y141432D01*
X716187Y141336D01*
X716240Y141235D01*
X716299Y141161D01*
X716391Y141016D01*
X716607Y140774D01*
X716665Y140702D01*
X725302Y132065D01*
X725389Y131991D01*
X725469Y131910D01*
X725576Y131832D01*
X725678Y131746D01*
X725775Y131687D01*
X725868Y131620D01*
X725986Y131560D01*
X726100Y131491D01*
X726206Y131449D01*
X726308Y131397D01*
X726435Y131357D01*
X726558Y131308D01*
X726669Y131283D01*
X726779Y131249D01*
X726872Y131239D01*
X727040Y131201D01*
X727364Y131183D01*
X727456Y131173D01*
X744951Y131173D01*
X745065Y131182D01*
X745179Y131181D01*
X745310Y131202D01*
X745443Y131213D01*
X745554Y131240D01*
X745666Y131258D01*
X745793Y131299D01*
X745922Y131331D01*
X746026Y131376D01*
X746135Y131412D01*
X746253Y131474D01*
X746375Y131526D01*
X746471Y131587D01*
X746573Y131640D01*
X746646Y131699D01*
X746791Y131791D01*
X747033Y132007D01*
X747106Y132065D01*
X749325Y134285D01*
X752657Y135665D01*
X771343Y135665D01*
X774675Y134285D01*
X777225Y131735D01*
X778605Y128403D01*
X778605Y124797D01*
X777225Y121465D01*
X774675Y118915D01*
X771343Y117535D01*
X752657Y117535D01*
X749325Y118915D01*
X747106Y121135D01*
X747019Y121209D01*
X746939Y121290D01*
X746831Y121368D01*
X746730Y121454D01*
X746632Y121513D01*
X746540Y121580D01*
X746421Y121640D01*
X746307Y121709D01*
X746201Y121751D01*
X746099Y121803D01*
X745972Y121843D01*
X745849Y121892D01*
X745738Y121917D01*
X745629Y121951D01*
X745535Y121961D01*
X745368Y121999D01*
X745043Y122017D01*
X744951Y122027D01*
X723390Y122027D01*
X721710Y122723D01*
X720975Y123458D01*
X720946Y123483D01*
X720920Y123512D01*
X720758Y123643D01*
X720599Y123778D01*
X720566Y123798D01*
X720536Y123822D01*
X720355Y123925D01*
X720176Y124033D01*
X720141Y124047D01*
X720108Y124066D01*
X719912Y124138D01*
X719718Y124216D01*
X719681Y124224D01*
X719645Y124237D01*
X719441Y124277D01*
X719237Y124322D01*
X719198Y124325D01*
X719161Y124332D01*
X718953Y124338D01*
X718744Y124350D01*
X718706Y124346D01*
X718668Y124347D01*
X718462Y124320D01*
X718253Y124298D01*
X718217Y124288D01*
X718179Y124283D01*
X717979Y124222D01*
X717778Y124167D01*
X717743Y124151D01*
X717706Y124140D01*
X717519Y124048D01*
X717329Y123961D01*
X717298Y123940D01*
X717263Y123923D01*
X717093Y123803D01*
X716920Y123686D01*
X716892Y123660D01*
X716861Y123638D01*
X716713Y123491D01*
X716560Y123348D01*
X716537Y123318D01*
X716510Y123291D01*
X716387Y123123D01*
X716260Y122957D01*
X716242Y122923D01*
X716220Y122892D01*
X716126Y122706D01*
X716027Y122522D01*
X716015Y122486D01*
X715997Y122452D01*
X715934Y122252D01*
X715867Y122055D01*
X715861Y122018D01*
X715849Y121981D01*
X715839Y121889D01*
X715784Y121569D01*
X715783Y121397D01*
X715773Y121304D01*
X715773Y41256D01*
X715782Y41143D01*
X715781Y41028D01*
X715802Y40897D01*
X715813Y40765D01*
X715840Y40654D01*
X715858Y40541D01*
X715899Y40415D01*
X715931Y40286D01*
X715976Y40181D01*
X716012Y40072D01*
X716074Y39954D01*
X716126Y39832D01*
X716187Y39736D01*
X716240Y39635D01*
X716299Y39561D01*
X716391Y39416D01*
X716607Y39174D01*
X716665Y39102D01*
X724902Y30865D01*
X724989Y30791D01*
X725069Y30710D01*
X725176Y30632D01*
X725278Y30546D01*
X725375Y30487D01*
X725468Y30420D01*
X725586Y30360D01*
X725700Y30291D01*
X725806Y30249D01*
X725908Y30197D01*
X726035Y30157D01*
X726158Y30108D01*
X726269Y30083D01*
X726379Y30049D01*
X726472Y30039D01*
X726640Y30001D01*
X726964Y29983D01*
X727056Y29973D01*
X847744Y29973D01*
X847857Y29982D01*
X847972Y29981D01*
X848103Y30002D01*
X848235Y30013D01*
X848346Y30040D01*
X848459Y30058D01*
X848585Y30099D01*
X848714Y30131D01*
X848819Y30176D01*
X848928Y30212D01*
X849046Y30274D01*
X849168Y30326D01*
X849264Y30387D01*
X849365Y30440D01*
X849439Y30499D01*
X849584Y30591D01*
X849826Y30807D01*
X849898Y30865D01*
X858135Y39102D01*
X858209Y39189D01*
X858290Y39269D01*
X858368Y39376D01*
X858454Y39478D01*
X858513Y39575D01*
X858580Y39668D01*
X858640Y39786D01*
X858709Y39900D01*
X858751Y40006D01*
X858803Y40108D01*
X858843Y40235D01*
X858892Y40358D01*
X858917Y40469D01*
X858951Y40579D01*
X858961Y40672D01*
X858999Y40840D01*
X859017Y41164D01*
X859027Y41256D01*
X859027Y242288D01*
X859021Y242364D01*
X859023Y242440D01*
X859001Y242609D01*
X858987Y242780D01*
X858969Y242854D01*
X858959Y242929D01*
X858910Y243093D01*
X858869Y243259D01*
X858839Y243328D01*
X858817Y243402D01*
X858741Y243555D01*
X858674Y243712D01*
X858633Y243776D01*
X858600Y243845D01*
X858501Y243984D01*
X858409Y244128D01*
X858358Y244185D01*
X858314Y244247D01*
X858194Y244368D01*
X858080Y244496D01*
X858021Y244544D01*
X857967Y244598D01*
X857829Y244699D01*
X857696Y244806D01*
X857630Y244843D01*
X857569Y244888D01*
X857416Y244965D01*
X857268Y245050D01*
X857196Y245076D01*
X857128Y245111D01*
X856965Y245162D01*
X856805Y245221D01*
X856730Y245236D01*
X856658Y245259D01*
X856553Y245271D01*
X856321Y245316D01*
X856085Y245323D01*
X855980Y245335D01*
X854257Y245335D01*
X850925Y246715D01*
X848375Y249265D01*
X846995Y252597D01*
X846995Y256203D01*
X848375Y259535D01*
X850925Y262085D01*
X854257Y263465D01*
X872943Y263465D01*
X876275Y262085D01*
X878494Y259865D01*
X878578Y259794D01*
X878621Y259751D01*
X878623Y259749D01*
X878661Y259710D01*
X878769Y259632D01*
X878870Y259546D01*
X878968Y259487D01*
X879060Y259420D01*
X879179Y259360D01*
X879293Y259291D01*
X879399Y259249D01*
X879501Y259197D01*
X879627Y259157D01*
X879751Y259108D01*
X879862Y259083D01*
X879971Y259049D01*
X880065Y259039D01*
X880232Y259001D01*
X880557Y258983D01*
X880649Y258973D01*
X886244Y258973D01*
X886357Y258982D01*
X886472Y258981D01*
X886603Y259002D01*
X886735Y259013D01*
X886846Y259040D01*
X886959Y259058D01*
X887085Y259099D01*
X887214Y259131D01*
X887319Y259176D01*
X887428Y259212D01*
X887546Y259274D01*
X887668Y259326D01*
X887764Y259387D01*
X887865Y259440D01*
X887939Y259499D01*
X888084Y259591D01*
X888326Y259807D01*
X888398Y259865D01*
X896235Y267702D01*
X896309Y267789D01*
X896390Y267869D01*
X896468Y267976D01*
X896554Y268078D01*
X896613Y268175D01*
X896680Y268268D01*
X896740Y268386D01*
X896809Y268500D01*
X896851Y268606D01*
X896903Y268708D01*
X896943Y268835D01*
X896992Y268958D01*
X897017Y269069D01*
X897051Y269179D01*
X897061Y269272D01*
X897099Y269440D01*
X897117Y269764D01*
X897127Y269856D01*
X897127Y568344D01*
X897118Y568457D01*
X897119Y568572D01*
X897098Y568703D01*
X897087Y568835D01*
X897060Y568946D01*
X897042Y569059D01*
X897001Y569185D01*
X896969Y569314D01*
X896924Y569419D01*
X896888Y569528D01*
X896826Y569646D01*
X896774Y569768D01*
X896713Y569864D01*
X896660Y569965D01*
X896601Y570039D01*
X896509Y570184D01*
X896293Y570426D01*
X896235Y570498D01*
X824498Y642235D01*
X824411Y642309D01*
X824331Y642390D01*
X824224Y642468D01*
X824122Y642554D01*
X824025Y642613D01*
X823932Y642680D01*
X823814Y642740D01*
X823700Y642809D01*
X823594Y642851D01*
X823492Y642903D01*
X823365Y642943D01*
X823242Y642992D01*
X823131Y643017D01*
X823021Y643051D01*
X822928Y643061D01*
X822760Y643099D01*
X822436Y643117D01*
X822344Y643127D01*
X804849Y643127D01*
X804735Y643118D01*
X804621Y643119D01*
X804490Y643098D01*
X804357Y643087D01*
X804246Y643060D01*
X804134Y643042D01*
X804007Y643001D01*
X803878Y642969D01*
X803774Y642924D01*
X803665Y642888D01*
X803547Y642826D01*
X803425Y642774D01*
X803329Y642713D01*
X803227Y642660D01*
X803154Y642601D01*
X803009Y642509D01*
X802767Y642293D01*
X802694Y642235D01*
X800075Y639615D01*
X796743Y638235D01*
X778057Y638235D01*
X774725Y639615D01*
X772106Y642235D01*
X772019Y642309D01*
X771939Y642390D01*
X771831Y642468D01*
X771730Y642554D01*
X771632Y642613D01*
X771540Y642680D01*
X771421Y642740D01*
X771307Y642809D01*
X771201Y642851D01*
X771099Y642903D01*
X770972Y642943D01*
X770849Y642992D01*
X770738Y643017D01*
X770629Y643051D01*
X770535Y643061D01*
X770368Y643099D01*
X770043Y643117D01*
X769951Y643127D01*
X752456Y643127D01*
X752343Y643118D01*
X752228Y643119D01*
X752097Y643098D01*
X751965Y643087D01*
X751854Y643060D01*
X751741Y643042D01*
X751615Y643001D01*
X751486Y642969D01*
X751381Y642924D01*
X751272Y642888D01*
X751154Y642826D01*
X751032Y642774D01*
X750936Y642713D01*
X750835Y642660D01*
X750761Y642601D01*
X750616Y642509D01*
X750374Y642293D01*
X750302Y642235D01*
X742065Y633998D01*
X741991Y633911D01*
X741910Y633831D01*
X741832Y633724D01*
X741746Y633622D01*
X741687Y633525D01*
X741620Y633432D01*
X741560Y633314D01*
X741491Y633200D01*
X741449Y633094D01*
X741397Y632992D01*
X741357Y632865D01*
X741308Y632742D01*
X741283Y632631D01*
X741249Y632521D01*
X741239Y632428D01*
X741201Y632260D01*
X741183Y631936D01*
X741173Y631844D01*
X741173Y523856D01*
X741182Y523743D01*
X741181Y523628D01*
X741202Y523497D01*
X741213Y523365D01*
X741240Y523254D01*
X741258Y523141D01*
X741299Y523015D01*
X741331Y522886D01*
X741376Y522781D01*
X741412Y522672D01*
X741474Y522554D01*
X741526Y522432D01*
X741587Y522336D01*
X741640Y522235D01*
X741699Y522161D01*
X741791Y522016D01*
X742007Y521774D01*
X742065Y521702D01*
X763402Y500365D01*
X763489Y500291D01*
X763569Y500210D01*
X763676Y500132D01*
X763778Y500046D01*
X763875Y499987D01*
X763968Y499920D01*
X764086Y499860D01*
X764200Y499791D01*
X764306Y499749D01*
X764408Y499697D01*
X764535Y499657D01*
X764658Y499608D01*
X764769Y499583D01*
X764879Y499549D01*
X764972Y499539D01*
X765140Y499501D01*
X765464Y499483D01*
X765556Y499473D01*
X770351Y499473D01*
X770465Y499482D01*
X770579Y499481D01*
X770710Y499502D01*
X770843Y499513D01*
X770954Y499540D01*
X771066Y499558D01*
X771193Y499599D01*
X771322Y499631D01*
X771426Y499676D01*
X771535Y499712D01*
X771653Y499774D01*
X771775Y499826D01*
X771871Y499887D01*
X771973Y499940D01*
X772046Y499999D01*
X772191Y500091D01*
X772433Y500307D01*
X772506Y500365D01*
X774725Y502585D01*
X778057Y503965D01*
X796743Y503965D01*
X800075Y502585D01*
X802625Y500035D01*
X804005Y496703D01*
X804005Y493097D01*
X802625Y489765D01*
X800075Y487215D01*
X796743Y485835D01*
X778057Y485835D01*
X774725Y487215D01*
X772506Y489435D01*
X772419Y489509D01*
X772339Y489590D01*
X772231Y489668D01*
X772130Y489754D01*
X772032Y489813D01*
X771940Y489880D01*
X771821Y489940D01*
X771707Y490009D01*
X771601Y490051D01*
X771499Y490103D01*
X771372Y490143D01*
X771249Y490192D01*
X771138Y490217D01*
X771029Y490251D01*
X770935Y490261D01*
X770768Y490299D01*
X770443Y490317D01*
X770351Y490327D01*
X761490Y490327D01*
X759810Y491023D01*
X732723Y518110D01*
X732027Y519790D01*
X732027Y635910D01*
X732723Y637590D01*
X733058Y637925D01*
X733083Y637954D01*
X733112Y637980D01*
X733243Y638142D01*
X733378Y638301D01*
X733398Y638334D01*
X733422Y638364D01*
X733525Y638545D01*
X733633Y638724D01*
X733647Y638759D01*
X733666Y638792D01*
X733738Y638988D01*
X733816Y639182D01*
X733824Y639219D01*
X733837Y639255D01*
X733877Y639459D01*
X733922Y639663D01*
X733925Y639702D01*
X733932Y639739D01*
X733938Y639945D01*
X733950Y640156D01*
X733946Y640194D01*
X733947Y640232D01*
X733920Y640438D01*
X733898Y640647D01*
X733888Y640683D01*
X733883Y640721D01*
X733822Y640922D01*
X733767Y641122D01*
X733751Y641157D01*
X733740Y641194D01*
X733648Y641381D01*
X733561Y641571D01*
X733540Y641602D01*
X733523Y641637D01*
X733403Y641806D01*
X733286Y641980D01*
X733260Y642008D01*
X733238Y642039D01*
X733091Y642187D01*
X732948Y642340D01*
X732918Y642363D01*
X732891Y642390D01*
X732723Y642513D01*
X732557Y642640D01*
X732523Y642658D01*
X732492Y642680D01*
X732306Y642774D01*
X732122Y642873D01*
X732086Y642885D01*
X732052Y642903D01*
X731853Y642965D01*
X731655Y643033D01*
X731618Y643039D01*
X731581Y643051D01*
X731489Y643061D01*
X731169Y643116D01*
X730997Y643117D01*
X730904Y643127D01*
X677849Y643127D01*
X677735Y643118D01*
X677621Y643119D01*
X677490Y643098D01*
X677357Y643087D01*
X677246Y643060D01*
X677134Y643042D01*
X677007Y643001D01*
X676878Y642969D01*
X676774Y642924D01*
X676665Y642888D01*
X676547Y642826D01*
X676425Y642774D01*
X676329Y642713D01*
X676227Y642660D01*
X676154Y642601D01*
X676009Y642509D01*
X675767Y642293D01*
X675694Y642235D01*
X673075Y639615D01*
X669743Y638235D01*
X651057Y638235D01*
X647725Y639615D01*
X645506Y641835D01*
X645419Y641909D01*
X645339Y641990D01*
X645231Y642068D01*
X645130Y642154D01*
X645032Y642213D01*
X644940Y642280D01*
X644821Y642340D01*
X644707Y642409D01*
X644601Y642451D01*
X644499Y642503D01*
X644372Y642543D01*
X644249Y642592D01*
X644138Y642617D01*
X644029Y642651D01*
X643935Y642661D01*
X643768Y642699D01*
X643443Y642717D01*
X643351Y642727D01*
X625056Y642727D01*
X624943Y642718D01*
X624828Y642719D01*
X624697Y642698D01*
X624565Y642687D01*
X624454Y642660D01*
X624341Y642642D01*
X624215Y642601D01*
X624086Y642569D01*
X623981Y642524D01*
X623872Y642488D01*
X623754Y642426D01*
X623632Y642374D01*
X623536Y642313D01*
X623435Y642260D01*
X623361Y642201D01*
X623216Y642109D01*
X622974Y641893D01*
X622902Y641835D01*
X615065Y633998D01*
X614991Y633911D01*
X614910Y633831D01*
X614832Y633724D01*
X614746Y633622D01*
X614687Y633525D01*
X614620Y633432D01*
X614560Y633314D01*
X614491Y633200D01*
X614449Y633094D01*
X614397Y632992D01*
X614357Y632865D01*
X614308Y632742D01*
X614283Y632631D01*
X614249Y632521D01*
X614239Y632428D01*
X614201Y632260D01*
X614183Y631936D01*
X614173Y631844D01*
X614173Y511156D01*
X614182Y511043D01*
X614181Y510928D01*
X614202Y510797D01*
X614213Y510665D01*
X614240Y510554D01*
X614258Y510441D01*
X614299Y510315D01*
X614331Y510186D01*
X614376Y510081D01*
X614412Y509972D01*
X614474Y509854D01*
X614526Y509732D01*
X614587Y509636D01*
X614640Y509535D01*
X614699Y509461D01*
X614791Y509316D01*
X615007Y509074D01*
X615065Y509002D01*
X623702Y500365D01*
X623789Y500291D01*
X623869Y500210D01*
X623976Y500132D01*
X624078Y500046D01*
X624175Y499987D01*
X624268Y499920D01*
X624386Y499860D01*
X624500Y499791D01*
X624606Y499749D01*
X624708Y499697D01*
X624835Y499657D01*
X624958Y499608D01*
X625069Y499583D01*
X625179Y499549D01*
X625272Y499539D01*
X625440Y499501D01*
X625764Y499483D01*
X625856Y499473D01*
X643351Y499473D01*
X643465Y499482D01*
X643579Y499481D01*
X643711Y499502D01*
X643843Y499513D01*
X643954Y499540D01*
X644066Y499558D01*
X644193Y499599D01*
X644322Y499631D01*
X644426Y499676D01*
X644535Y499712D01*
X644653Y499774D01*
X644775Y499826D01*
X644871Y499887D01*
X644973Y499940D01*
X645046Y499999D01*
X645191Y500091D01*
X645433Y500307D01*
X645506Y500365D01*
X647725Y502585D01*
X651057Y503965D01*
X669743Y503965D01*
X673075Y502585D01*
X675625Y500035D01*
X677005Y496703D01*
X677005Y493097D01*
X675625Y489765D01*
X673075Y487215D01*
X669743Y485835D01*
X651057Y485835D01*
X647725Y487215D01*
X645506Y489435D01*
X645419Y489509D01*
X645339Y489590D01*
X645231Y489668D01*
X645130Y489754D01*
X645032Y489813D01*
X644940Y489880D01*
X644821Y489940D01*
X644707Y490009D01*
X644601Y490051D01*
X644499Y490103D01*
X644373Y490143D01*
X644249Y490192D01*
X644138Y490217D01*
X644029Y490251D01*
X643935Y490261D01*
X643768Y490299D01*
X643443Y490317D01*
X643351Y490327D01*
X621790Y490327D01*
X620110Y491023D01*
X605723Y505410D01*
X605027Y507090D01*
X605027Y635910D01*
X605727Y637599D01*
X605843Y637742D01*
X605978Y637901D01*
X605998Y637934D01*
X606022Y637964D01*
X606125Y638144D01*
X606232Y638324D01*
X606247Y638359D01*
X606266Y638392D01*
X606338Y638588D01*
X606416Y638782D01*
X606424Y638819D01*
X606437Y638855D01*
X606477Y639060D01*
X606522Y639263D01*
X606525Y639302D01*
X606532Y639339D01*
X606538Y639547D01*
X606550Y639756D01*
X606546Y639794D01*
X606547Y639832D01*
X606520Y640039D01*
X606498Y640247D01*
X606488Y640283D01*
X606483Y640321D01*
X606422Y640521D01*
X606367Y640722D01*
X606351Y640757D01*
X606340Y640794D01*
X606248Y640981D01*
X606162Y641171D01*
X606140Y641202D01*
X606123Y641237D01*
X606003Y641407D01*
X605886Y641580D01*
X605860Y641608D01*
X605838Y641639D01*
X605691Y641787D01*
X605548Y641940D01*
X605518Y641963D01*
X605491Y641990D01*
X605323Y642113D01*
X605157Y642240D01*
X605123Y642258D01*
X605092Y642280D01*
X604906Y642374D01*
X604722Y642473D01*
X604686Y642485D01*
X604652Y642503D01*
X604453Y642565D01*
X604256Y642633D01*
X604218Y642639D01*
X604181Y642651D01*
X604089Y642661D01*
X603769Y642716D01*
X603597Y642717D01*
X603504Y642727D01*
X537749Y642727D01*
X537635Y642718D01*
X537521Y642719D01*
X537389Y642698D01*
X537257Y642687D01*
X537146Y642660D01*
X537034Y642642D01*
X536907Y642601D01*
X536778Y642569D01*
X536674Y642524D01*
X536565Y642488D01*
X536447Y642426D01*
X536325Y642374D01*
X536229Y642313D01*
X536127Y642260D01*
X536054Y642201D01*
X535909Y642109D01*
X535667Y641893D01*
X535594Y641835D01*
X533375Y639615D01*
X530043Y638235D01*
X511357Y638235D01*
X508025Y639615D01*
X505806Y641835D01*
X505719Y641909D01*
X505639Y641990D01*
X505531Y642068D01*
X505430Y642154D01*
X505332Y642213D01*
X505240Y642280D01*
X505121Y642340D01*
X505007Y642409D01*
X504901Y642451D01*
X504799Y642503D01*
X504673Y642543D01*
X504549Y642592D01*
X504438Y642617D01*
X504329Y642651D01*
X504235Y642661D01*
X504068Y642699D01*
X503743Y642717D01*
X503651Y642727D01*
X485356Y642727D01*
X485243Y642718D01*
X485128Y642719D01*
X484997Y642698D01*
X484865Y642687D01*
X484754Y642660D01*
X484641Y642642D01*
X484515Y642601D01*
X484386Y642569D01*
X484281Y642524D01*
X484172Y642488D01*
X484054Y642426D01*
X483932Y642374D01*
X483836Y642313D01*
X483735Y642260D01*
X483661Y642201D01*
X483516Y642109D01*
X483274Y641893D01*
X483202Y641835D01*
X475365Y633998D01*
X475291Y633911D01*
X475210Y633831D01*
X475132Y633724D01*
X475046Y633622D01*
X474987Y633525D01*
X474920Y633432D01*
X474860Y633314D01*
X474791Y633200D01*
X474749Y633094D01*
X474697Y632992D01*
X474657Y632865D01*
X474608Y632742D01*
X474583Y632631D01*
X474549Y632521D01*
X474539Y632428D01*
X474501Y632260D01*
X474483Y631936D01*
X474473Y631844D01*
X474473Y511156D01*
X474482Y511043D01*
X474481Y510928D01*
X474502Y510797D01*
X474513Y510665D01*
X474540Y510554D01*
X474558Y510441D01*
X474599Y510315D01*
X474631Y510186D01*
X474676Y510081D01*
X474712Y509972D01*
X474774Y509854D01*
X474826Y509732D01*
X474887Y509636D01*
X474940Y509535D01*
X474999Y509461D01*
X475091Y509316D01*
X475307Y509074D01*
X475365Y509002D01*
X484002Y500365D01*
X484089Y500291D01*
X484169Y500210D01*
X484276Y500132D01*
X484378Y500046D01*
X484475Y499987D01*
X484568Y499920D01*
X484686Y499860D01*
X484800Y499791D01*
X484906Y499749D01*
X485008Y499697D01*
X485135Y499657D01*
X485258Y499608D01*
X485369Y499583D01*
X485479Y499549D01*
X485572Y499539D01*
X485740Y499501D01*
X486064Y499483D01*
X486156Y499473D01*
X503651Y499473D01*
X503765Y499482D01*
X503879Y499481D01*
X504011Y499502D01*
X504143Y499513D01*
X504254Y499540D01*
X504366Y499558D01*
X504493Y499599D01*
X504622Y499631D01*
X504726Y499676D01*
X504835Y499712D01*
X504953Y499774D01*
X505075Y499826D01*
X505171Y499887D01*
X505273Y499940D01*
X505346Y499999D01*
X505491Y500091D01*
X505733Y500307D01*
X505806Y500365D01*
X508025Y502585D01*
X511357Y503965D01*
X530043Y503965D01*
X533375Y502585D01*
X535925Y500035D01*
X537305Y496703D01*
X537305Y493097D01*
X535925Y489765D01*
X533375Y487215D01*
X530043Y485835D01*
X511357Y485835D01*
X508025Y487215D01*
X505806Y489435D01*
X505719Y489509D01*
X505639Y489590D01*
X505531Y489668D01*
X505430Y489754D01*
X505332Y489813D01*
X505240Y489880D01*
X505121Y489940D01*
X505007Y490009D01*
X504901Y490051D01*
X504799Y490103D01*
X504673Y490143D01*
X504549Y490192D01*
X504438Y490217D01*
X504329Y490251D01*
X504235Y490261D01*
X504068Y490299D01*
X503743Y490317D01*
X503651Y490327D01*
X482090Y490327D01*
X480410Y491023D01*
X466023Y505410D01*
X465327Y507090D01*
X465327Y635910D01*
X466027Y637599D01*
X466143Y637742D01*
X466278Y637901D01*
X466298Y637934D01*
X466322Y637964D01*
X466425Y638144D01*
X466532Y638324D01*
X466547Y638359D01*
X466566Y638392D01*
X466638Y638588D01*
X466716Y638782D01*
X466724Y638819D01*
X466737Y638855D01*
X466777Y639060D01*
X466822Y639263D01*
X466825Y639302D01*
X466832Y639339D01*
X466838Y639547D01*
X466850Y639756D01*
X466846Y639794D01*
X466847Y639832D01*
X466820Y640039D01*
X466798Y640247D01*
X466788Y640283D01*
X466783Y640321D01*
X466722Y640521D01*
X466667Y640722D01*
X466651Y640757D01*
X466640Y640794D01*
X466548Y640981D01*
X466462Y641171D01*
X466440Y641202D01*
X466423Y641237D01*
X466303Y641407D01*
X466186Y641580D01*
X466160Y641608D01*
X466138Y641639D01*
X465991Y641787D01*
X465848Y641940D01*
X465818Y641963D01*
X465791Y641990D01*
X465623Y642113D01*
X465457Y642240D01*
X465423Y642258D01*
X465392Y642280D01*
X465206Y642374D01*
X465022Y642473D01*
X464986Y642485D01*
X464952Y642503D01*
X464753Y642565D01*
X464556Y642633D01*
X464518Y642639D01*
X464481Y642651D01*
X464389Y642661D01*
X464069Y642716D01*
X463897Y642717D01*
X463804Y642727D01*
X398049Y642727D01*
X397935Y642718D01*
X397821Y642719D01*
X397690Y642698D01*
X397557Y642687D01*
X397446Y642660D01*
X397334Y642642D01*
X397207Y642601D01*
X397078Y642569D01*
X396974Y642524D01*
X396865Y642488D01*
X396747Y642426D01*
X396625Y642374D01*
X396529Y642313D01*
X396427Y642260D01*
X396354Y642201D01*
X396209Y642109D01*
X395967Y641893D01*
X395894Y641835D01*
X393675Y639615D01*
X390343Y638235D01*
X371657Y638235D01*
X368325Y639615D01*
X366106Y641835D01*
X366019Y641909D01*
X365939Y641990D01*
X365831Y642068D01*
X365730Y642154D01*
X365632Y642213D01*
X365540Y642280D01*
X365421Y642340D01*
X365307Y642409D01*
X365201Y642451D01*
X365099Y642503D01*
X364972Y642543D01*
X364849Y642592D01*
X364738Y642617D01*
X364629Y642651D01*
X364535Y642661D01*
X364368Y642699D01*
X364043Y642717D01*
X363951Y642727D01*
X345656Y642727D01*
X345543Y642718D01*
X345428Y642719D01*
X345297Y642698D01*
X345165Y642687D01*
X345054Y642660D01*
X344941Y642642D01*
X344815Y642601D01*
X344686Y642569D01*
X344581Y642524D01*
X344472Y642488D01*
X344354Y642426D01*
X344232Y642374D01*
X344136Y642313D01*
X344035Y642260D01*
X343961Y642201D01*
X343816Y642109D01*
X343574Y641893D01*
X343502Y641835D01*
X335665Y633998D01*
X335591Y633911D01*
X335510Y633831D01*
X335432Y633724D01*
X335346Y633622D01*
X335287Y633525D01*
X335220Y633432D01*
X335160Y633314D01*
X335091Y633200D01*
X335049Y633094D01*
X334997Y632992D01*
X334957Y632865D01*
X334908Y632742D01*
X334883Y632631D01*
X334849Y632521D01*
X334839Y632428D01*
X334801Y632260D01*
X334783Y631936D01*
X334773Y631844D01*
X334773Y511156D01*
X334782Y511043D01*
X334781Y510928D01*
X334802Y510797D01*
X334813Y510665D01*
X334840Y510554D01*
X334858Y510441D01*
X334899Y510315D01*
X334931Y510186D01*
X334976Y510081D01*
X335012Y509972D01*
X335074Y509854D01*
X335126Y509732D01*
X335187Y509636D01*
X335240Y509535D01*
X335299Y509461D01*
X335391Y509316D01*
X335607Y509074D01*
X335665Y509002D01*
X344302Y500365D01*
X344389Y500291D01*
X344469Y500210D01*
X344576Y500132D01*
X344678Y500046D01*
X344775Y499987D01*
X344868Y499920D01*
X344986Y499860D01*
X345100Y499791D01*
X345206Y499749D01*
X345308Y499697D01*
X345435Y499657D01*
X345558Y499608D01*
X345669Y499583D01*
X345779Y499549D01*
X345872Y499539D01*
X346040Y499501D01*
X346364Y499483D01*
X346456Y499473D01*
X363951Y499473D01*
X364065Y499482D01*
X364179Y499481D01*
X364310Y499502D01*
X364443Y499513D01*
X364554Y499540D01*
X364666Y499558D01*
X364793Y499599D01*
X364922Y499631D01*
X365026Y499676D01*
X365135Y499712D01*
X365253Y499774D01*
X365375Y499826D01*
X365471Y499887D01*
X365573Y499940D01*
X365646Y499999D01*
X365791Y500091D01*
X366033Y500307D01*
X366106Y500365D01*
X368325Y502585D01*
X371657Y503965D01*
X390343Y503965D01*
X393675Y502585D01*
X396225Y500035D01*
X397605Y496703D01*
X397605Y493097D01*
X396225Y489765D01*
X393675Y487215D01*
X390343Y485835D01*
X371657Y485835D01*
X368325Y487215D01*
X366106Y489435D01*
X366019Y489509D01*
X365939Y489590D01*
X365831Y489668D01*
X365730Y489754D01*
X365632Y489813D01*
X365540Y489880D01*
X365421Y489940D01*
X365307Y490009D01*
X365201Y490051D01*
X365099Y490103D01*
X364972Y490143D01*
X364849Y490192D01*
X364738Y490217D01*
X364629Y490251D01*
X364535Y490261D01*
X364368Y490299D01*
X364043Y490317D01*
X363951Y490327D01*
X342390Y490327D01*
X340710Y491023D01*
X326323Y505410D01*
X325627Y507090D01*
X325627Y635910D01*
X326327Y637599D01*
X326443Y637742D01*
X326578Y637901D01*
X326598Y637934D01*
X326622Y637964D01*
X326725Y638144D01*
X326832Y638324D01*
X326847Y638359D01*
X326866Y638392D01*
X326938Y638588D01*
X327016Y638782D01*
X327024Y638819D01*
X327037Y638855D01*
X327077Y639060D01*
X327122Y639263D01*
X327125Y639302D01*
X327132Y639339D01*
X327138Y639547D01*
X327150Y639756D01*
X327146Y639794D01*
X327147Y639832D01*
X327120Y640039D01*
X327098Y640247D01*
X327088Y640283D01*
X327083Y640321D01*
X327022Y640521D01*
X326967Y640722D01*
X326951Y640757D01*
X326940Y640794D01*
X326848Y640981D01*
X326762Y641171D01*
X326740Y641202D01*
X326723Y641237D01*
X326603Y641407D01*
X326486Y641580D01*
X326460Y641608D01*
X326438Y641639D01*
X326291Y641787D01*
X326148Y641940D01*
X326118Y641963D01*
X326091Y641990D01*
X325923Y642113D01*
X325757Y642240D01*
X325723Y642258D01*
X325692Y642280D01*
X325506Y642374D01*
X325322Y642473D01*
X325286Y642485D01*
X325252Y642503D01*
X325053Y642565D01*
X324856Y642633D01*
X324818Y642639D01*
X324781Y642651D01*
X324689Y642661D01*
X324369Y642716D01*
X324197Y642717D01*
X324104Y642727D01*
X258349Y642727D01*
X258235Y642718D01*
X258121Y642719D01*
X257989Y642698D01*
X257857Y642687D01*
X257746Y642660D01*
X257634Y642642D01*
X257507Y642601D01*
X257378Y642569D01*
X257274Y642524D01*
X257165Y642488D01*
X257047Y642426D01*
X256925Y642374D01*
X256829Y642313D01*
X256727Y642260D01*
X256654Y642201D01*
X256509Y642109D01*
X256267Y641893D01*
X256194Y641835D01*
X253975Y639615D01*
X250643Y638235D01*
X231957Y638235D01*
X228625Y639615D01*
X226075Y642165D01*
X224695Y645497D01*
X224695Y649103D01*
X226153Y652623D01*
X226218Y652743D01*
X226306Y652890D01*
X226335Y652961D01*
X226370Y653028D01*
X226426Y653190D01*
X226489Y653348D01*
X226506Y653422D01*
X226530Y653495D01*
X226559Y653663D01*
X226596Y653830D01*
X226600Y653906D01*
X226613Y653981D01*
X226614Y654152D01*
X226624Y654322D01*
X226616Y654398D01*
X226616Y654474D01*
X226590Y654643D01*
X226571Y654813D01*
X226551Y654886D01*
X226539Y654962D01*
X226486Y655124D01*
X226441Y655289D01*
X226409Y655358D01*
X226385Y655430D01*
X226306Y655582D01*
X226235Y655737D01*
X226193Y655800D01*
X226157Y655868D01*
X226092Y655950D01*
X225960Y656146D01*
X225798Y656319D01*
X225732Y656401D01*
X201798Y680335D01*
X201711Y680409D01*
X201631Y680490D01*
X201524Y680568D01*
X201423Y680654D01*
X201325Y680713D01*
X201232Y680780D01*
X201114Y680840D01*
X201000Y680909D01*
X200894Y680951D01*
X200792Y681003D01*
X200665Y681043D01*
X200542Y681092D01*
X200431Y681117D01*
X200321Y681151D01*
X200228Y681161D01*
X200060Y681199D01*
X199736Y681217D01*
X199644Y681227D01*
X126012Y681227D01*
X125936Y681221D01*
X125860Y681223D01*
X125691Y681201D01*
X125520Y681187D01*
X125446Y681169D01*
X125371Y681159D01*
X125207Y681110D01*
X125041Y681069D01*
X124972Y681039D01*
X124898Y681017D01*
X124745Y680941D01*
X124588Y680874D01*
X124524Y680833D01*
X124455Y680800D01*
X124316Y680701D01*
X124172Y680609D01*
X124115Y680558D01*
X124053Y680514D01*
X123932Y680394D01*
X123804Y680280D01*
X123756Y680221D01*
X123702Y680167D01*
X123601Y680029D01*
X123494Y679896D01*
X123457Y679830D01*
X123412Y679769D01*
X123335Y679616D01*
X123250Y679468D01*
X123224Y679396D01*
X123189Y679328D01*
X123138Y679165D01*
X123079Y679005D01*
X123064Y678930D01*
X123041Y678858D01*
X123029Y678753D01*
X122984Y678521D01*
X122977Y678285D01*
X122965Y678180D01*
X122965Y676457D01*
X121585Y673125D01*
X119365Y670906D01*
X119291Y670819D01*
X119210Y670739D01*
X119132Y670631D01*
X119046Y670530D01*
X118987Y670432D01*
X118920Y670340D01*
X118860Y670221D01*
X118791Y670107D01*
X118749Y670001D01*
X118697Y669899D01*
X118657Y669772D01*
X118608Y669649D01*
X118583Y669538D01*
X118549Y669429D01*
X118539Y669335D01*
X118501Y669168D01*
X118483Y668843D01*
X118473Y668751D01*
X118473Y601249D01*
X118482Y601135D01*
X118481Y601021D01*
X118502Y600890D01*
X118513Y600757D01*
X118540Y600646D01*
X118558Y600534D01*
X118599Y600407D01*
X118631Y600278D01*
X118676Y600174D01*
X118712Y600065D01*
X118774Y599947D01*
X118826Y599825D01*
X118887Y599729D01*
X118940Y599627D01*
X118999Y599554D01*
X119091Y599409D01*
X119307Y599167D01*
X119365Y599094D01*
X121585Y596875D01*
X122965Y593543D01*
X122965Y574857D01*
X121585Y571525D01*
X119365Y569306D01*
X119291Y569219D01*
X119210Y569139D01*
X119132Y569031D01*
X119046Y568930D01*
X118987Y568832D01*
X118920Y568740D01*
X118860Y568621D01*
X118791Y568507D01*
X118749Y568401D01*
X118697Y568299D01*
X118657Y568172D01*
X118608Y568049D01*
X118583Y567938D01*
X118549Y567829D01*
X118539Y567735D01*
X118501Y567568D01*
X118483Y567243D01*
X118473Y567151D01*
X118473Y536956D01*
X118482Y536843D01*
X118481Y536728D01*
X118502Y536597D01*
X118513Y536465D01*
X118540Y536354D01*
X118558Y536241D01*
X118599Y536115D01*
X118631Y535986D01*
X118676Y535881D01*
X118712Y535772D01*
X118774Y535654D01*
X118826Y535532D01*
X118887Y535436D01*
X118940Y535335D01*
X118999Y535261D01*
X119091Y535116D01*
X119307Y534874D01*
X119365Y534802D01*
X153802Y500365D01*
X153889Y500291D01*
X153969Y500210D01*
X154076Y500132D01*
X154178Y500046D01*
X154275Y499987D01*
X154368Y499920D01*
X154486Y499860D01*
X154600Y499791D01*
X154706Y499749D01*
X154808Y499697D01*
X154935Y499657D01*
X155058Y499608D01*
X155169Y499583D01*
X155279Y499549D01*
X155372Y499539D01*
X155540Y499501D01*
X155864Y499483D01*
X155956Y499473D01*
X224251Y499473D01*
X224365Y499482D01*
X224479Y499481D01*
X224610Y499502D01*
X224743Y499513D01*
X224854Y499540D01*
X224966Y499558D01*
X225093Y499599D01*
X225222Y499631D01*
X225326Y499676D01*
X225435Y499712D01*
X225553Y499774D01*
X225675Y499826D01*
X225771Y499887D01*
X225873Y499940D01*
X225946Y499999D01*
X226091Y500091D01*
X226333Y500307D01*
X226406Y500365D01*
X228625Y502585D01*
X231957Y503965D01*
X250643Y503965D01*
X253975Y502585D01*
X256525Y500035D01*
X257905Y496703D01*
X257905Y493097D01*
X256525Y489765D01*
X253975Y487215D01*
X250643Y485835D01*
X231957Y485835D01*
X228625Y487215D01*
X226406Y489435D01*
X226319Y489509D01*
X226239Y489590D01*
X226131Y489668D01*
X226030Y489754D01*
X225932Y489813D01*
X225840Y489880D01*
X225721Y489940D01*
X225607Y490009D01*
X225501Y490051D01*
X225399Y490103D01*
X225272Y490143D01*
X225149Y490192D01*
X225038Y490217D01*
X224929Y490251D01*
X224835Y490261D01*
X224668Y490299D01*
X224343Y490317D01*
X224251Y490327D01*
X151890Y490327D01*
X150210Y491023D01*
X110023Y531210D01*
X109327Y532890D01*
X109327Y567151D01*
X109318Y567265D01*
X109319Y567379D01*
X109298Y567510D01*
X109287Y567643D01*
X109260Y567754D01*
X109242Y567866D01*
X109201Y567993D01*
X109169Y568122D01*
X109124Y568226D01*
X109088Y568335D01*
X109026Y568453D01*
X108974Y568575D01*
X108913Y568671D01*
X108860Y568773D01*
X108801Y568846D01*
X108709Y568991D01*
X108493Y569233D01*
X108435Y569306D01*
X106215Y571525D01*
X104835Y574857D01*
X104835Y593543D01*
X106215Y596875D01*
X108435Y599094D01*
X108509Y599181D01*
X108590Y599261D01*
X108668Y599369D01*
X108754Y599470D01*
X108813Y599568D01*
X108880Y599660D01*
X108940Y599779D01*
X109009Y599893D01*
X109051Y599999D01*
X109103Y600101D01*
X109143Y600228D01*
X109192Y600351D01*
X109217Y600462D01*
X109251Y600571D01*
X109261Y600665D01*
X109299Y600832D01*
X109317Y601157D01*
X109327Y601249D01*
X109327Y668751D01*
X109318Y668865D01*
X109319Y668979D01*
X109298Y669110D01*
X109287Y669243D01*
X109260Y669354D01*
X109242Y669466D01*
X109201Y669593D01*
X109169Y669722D01*
X109124Y669826D01*
X109088Y669935D01*
X109026Y670053D01*
X108974Y670175D01*
X108913Y670271D01*
X108860Y670373D01*
X108801Y670446D01*
X108709Y670591D01*
X108493Y670833D01*
X108435Y670906D01*
X106215Y673125D01*
X104835Y676457D01*
X104835Y695143D01*
X106215Y698475D01*
X108765Y701025D01*
X112097Y702405D01*
X115703Y702405D01*
X119035Y701025D01*
X121585Y698475D01*
X122965Y695143D01*
X122965Y693420D01*
X122971Y693344D01*
X122969Y693268D01*
X122991Y693099D01*
X123005Y692928D01*
X123023Y692854D01*
X123033Y692779D01*
X123082Y692615D01*
X123123Y692449D01*
X123153Y692380D01*
X123175Y692306D01*
X123251Y692153D01*
X123318Y691996D01*
X123359Y691932D01*
X123392Y691863D01*
X123491Y691724D01*
X123583Y691580D01*
X123634Y691523D01*
X123678Y691461D01*
X123798Y691340D01*
X123912Y691212D01*
X123971Y691164D01*
X124025Y691110D01*
X124163Y691009D01*
X124296Y690902D01*
X124362Y690865D01*
X124423Y690820D01*
X124576Y690743D01*
X124724Y690658D01*
X124796Y690632D01*
X124864Y690597D01*
X125027Y690546D01*
X125187Y690487D01*
X125262Y690472D01*
X125334Y690449D01*
X125439Y690437D01*
X125671Y690392D01*
X125907Y690385D01*
X126012Y690373D01*
X203710Y690373D01*
X205390Y689677D01*
X207105Y687962D01*
X237810Y657257D01*
X237897Y657183D01*
X237977Y657102D01*
X238084Y657024D01*
X238185Y656938D01*
X238283Y656879D01*
X238376Y656812D01*
X238494Y656752D01*
X238608Y656683D01*
X238714Y656641D01*
X238816Y656589D01*
X238943Y656549D01*
X239066Y656500D01*
X239177Y656475D01*
X239287Y656441D01*
X239380Y656431D01*
X239548Y656393D01*
X239872Y656375D01*
X239964Y656365D01*
X250643Y656365D01*
X253975Y654985D01*
X256194Y652765D01*
X256281Y652691D01*
X256361Y652610D01*
X256469Y652532D01*
X256570Y652446D01*
X256668Y652387D01*
X256760Y652320D01*
X256879Y652260D01*
X256993Y652191D01*
X257099Y652149D01*
X257201Y652097D01*
X257327Y652057D01*
X257451Y652008D01*
X257562Y651983D01*
X257671Y651949D01*
X257765Y651939D01*
X257932Y651901D01*
X258257Y651883D01*
X258349Y651873D01*
X363951Y651873D01*
X364065Y651882D01*
X364179Y651881D01*
X364310Y651902D01*
X364443Y651913D01*
X364554Y651940D01*
X364666Y651958D01*
X364793Y651999D01*
X364922Y652031D01*
X365026Y652076D01*
X365135Y652112D01*
X365253Y652174D01*
X365375Y652226D01*
X365471Y652287D01*
X365573Y652340D01*
X365646Y652399D01*
X365791Y652491D01*
X366033Y652707D01*
X366106Y652765D01*
X368325Y654985D01*
X371657Y656365D01*
X390343Y656365D01*
X393675Y654985D01*
X395894Y652765D01*
X395981Y652691D01*
X396061Y652610D01*
X396169Y652532D01*
X396270Y652446D01*
X396368Y652387D01*
X396460Y652320D01*
X396579Y652260D01*
X396693Y652191D01*
X396799Y652149D01*
X396901Y652097D01*
X397028Y652057D01*
X397151Y652008D01*
X397262Y651983D01*
X397371Y651949D01*
X397465Y651939D01*
X397632Y651901D01*
X397957Y651883D01*
X398049Y651873D01*
X503651Y651873D01*
X503765Y651882D01*
X503879Y651881D01*
X504011Y651902D01*
X504143Y651913D01*
X504254Y651940D01*
X504366Y651958D01*
X504493Y651999D01*
X504622Y652031D01*
X504726Y652076D01*
X504835Y652112D01*
X504953Y652174D01*
X505075Y652226D01*
X505171Y652287D01*
X505273Y652340D01*
X505346Y652399D01*
X505491Y652491D01*
X505733Y652707D01*
X505806Y652765D01*
X508025Y654985D01*
X511357Y656365D01*
X530043Y656365D01*
X533375Y654985D01*
X535594Y652765D01*
X535681Y652691D01*
X535761Y652610D01*
X535869Y652532D01*
X535970Y652446D01*
X536068Y652387D01*
X536160Y652320D01*
X536279Y652260D01*
X536393Y652191D01*
X536499Y652149D01*
X536601Y652097D01*
X536727Y652057D01*
X536851Y652008D01*
X536962Y651983D01*
X537071Y651949D01*
X537165Y651939D01*
X537332Y651901D01*
X537657Y651883D01*
X537749Y651873D01*
X643351Y651873D01*
X643465Y651882D01*
X643579Y651881D01*
X643710Y651902D01*
X643843Y651913D01*
X643954Y651940D01*
X644066Y651958D01*
X644193Y651999D01*
X644322Y652031D01*
X644426Y652076D01*
X644535Y652112D01*
X644653Y652174D01*
X644775Y652226D01*
X644871Y652287D01*
X644973Y652340D01*
X645046Y652399D01*
X645191Y652491D01*
X645433Y652707D01*
X645506Y652765D01*
X647725Y654985D01*
X651057Y656365D01*
X669743Y656365D01*
X673075Y654985D01*
X674894Y653165D01*
X674981Y653091D01*
X675061Y653010D01*
X675169Y652932D01*
X675270Y652846D01*
X675368Y652787D01*
X675460Y652720D01*
X675579Y652660D01*
X675693Y652591D01*
X675799Y652549D01*
X675901Y652497D01*
X676028Y652457D01*
X676151Y652408D01*
X676262Y652383D01*
X676371Y652349D01*
X676465Y652339D01*
X676632Y652301D01*
X676957Y652283D01*
X677049Y652273D01*
X770751Y652273D01*
X770865Y652282D01*
X770979Y652281D01*
X771110Y652302D01*
X771243Y652313D01*
X771354Y652340D01*
X771466Y652358D01*
X771593Y652399D01*
X771722Y652431D01*
X771826Y652476D01*
X771935Y652512D01*
X772053Y652574D01*
X772175Y652626D01*
X772271Y652687D01*
X772373Y652740D01*
X772446Y652799D01*
X772591Y652891D01*
X772833Y653107D01*
X772906Y653165D01*
X774725Y654985D01*
X778057Y656365D01*
X796743Y656365D01*
X800075Y654985D01*
X801894Y653165D01*
X801981Y653091D01*
X802061Y653010D01*
X802169Y652932D01*
X802270Y652846D01*
X802368Y652787D01*
X802460Y652720D01*
X802579Y652660D01*
X802693Y652591D01*
X802799Y652549D01*
X802901Y652497D01*
X803028Y652457D01*
X803151Y652408D01*
X803262Y652383D01*
X803371Y652349D01*
X803465Y652339D01*
X803632Y652301D01*
X803957Y652283D01*
X804049Y652273D01*
X826410Y652273D01*
X828090Y651577D01*
X905577Y574090D01*
X906273Y572410D01*
X906273Y265790D01*
X905577Y264110D01*
X891990Y250523D01*
X890310Y249827D01*
X880649Y249827D01*
X880535Y249818D01*
X880421Y249819D01*
X880289Y249798D01*
X880157Y249787D01*
X880046Y249760D01*
X879934Y249742D01*
X879807Y249701D01*
X879678Y249669D01*
X879574Y249624D01*
X879465Y249588D01*
X879347Y249526D01*
X879225Y249474D01*
X879129Y249413D01*
X879027Y249360D01*
X878954Y249301D01*
X878809Y249209D01*
X878567Y248993D01*
X878494Y248935D01*
X876275Y246715D01*
X872943Y245335D01*
X871220Y245335D01*
X871144Y245329D01*
X871068Y245331D01*
X870899Y245309D01*
X870728Y245295D01*
X870654Y245277D01*
X870579Y245267D01*
X870415Y245218D01*
X870249Y245177D01*
X870180Y245147D01*
X870106Y245125D01*
X869953Y245049D01*
X869796Y244982D01*
X869732Y244941D01*
X869663Y244908D01*
X869524Y244809D01*
X869380Y244717D01*
X869323Y244666D01*
X869261Y244622D01*
X869140Y244502D01*
X869012Y244388D01*
X868964Y244329D01*
X868910Y244275D01*
X868809Y244137D01*
X868702Y244004D01*
X868665Y243938D01*
X868620Y243877D01*
X868543Y243724D01*
X868458Y243576D01*
X868432Y243504D01*
X868397Y243436D01*
X868346Y243273D01*
X868287Y243113D01*
X868272Y243038D01*
X868249Y242966D01*
X868237Y242861D01*
X868192Y242629D01*
X868185Y242393D01*
X868173Y242288D01*
X868173Y37190D01*
X867477Y35510D01*
X853490Y21523D01*
X851810Y20827D01*
X37190Y20827D01*
G37*
%LPD*%
%LPC*%
G36*
X79501Y434847D02*
X79501Y434847D01*
X79501Y443993D01*
X87086Y443993D01*
X89021Y443686D01*
X90884Y443081D01*
X92630Y442191D01*
X94215Y441040D01*
X95600Y439655D01*
X96751Y438070D01*
X97641Y436324D01*
X98121Y434847D01*
X79501Y434847D01*
G37*
%LPD*%
%LPC*%
G36*
X54279Y434847D02*
X54279Y434847D01*
X54759Y436324D01*
X55649Y438070D01*
X56800Y439655D01*
X58185Y441040D01*
X59770Y442191D01*
X61516Y443081D01*
X63379Y443686D01*
X65314Y443993D01*
X72899Y443993D01*
X72899Y434847D01*
X54279Y434847D01*
G37*
%LPD*%
%LPC*%
G36*
X79501Y419099D02*
X79501Y419099D01*
X79501Y428245D01*
X98121Y428245D01*
X97641Y426768D01*
X96751Y425022D01*
X95600Y423437D01*
X94215Y422052D01*
X92630Y420901D01*
X90884Y420011D01*
X89021Y419406D01*
X87086Y419099D01*
X79501Y419099D01*
G37*
%LPD*%
%LPC*%
G36*
X65314Y419099D02*
X65314Y419099D01*
X63379Y419406D01*
X61516Y420011D01*
X59770Y420901D01*
X58185Y422052D01*
X56800Y423437D01*
X55649Y425022D01*
X54759Y426768D01*
X54279Y428245D01*
X72899Y428245D01*
X72899Y419099D01*
X65314Y419099D01*
G37*
%LPD*%
%LPC*%
G36*
X523747Y599947D02*
X523747Y599947D01*
X523747Y606981D01*
X528575Y606981D01*
X529221Y606808D01*
X529800Y606473D01*
X530273Y606000D01*
X530608Y605421D01*
X530781Y604775D01*
X530781Y599947D01*
X523747Y599947D01*
G37*
%LPD*%
%LPC*%
G36*
X790447Y599947D02*
X790447Y599947D01*
X790447Y606981D01*
X795275Y606981D01*
X795921Y606808D01*
X796500Y606473D01*
X796973Y606000D01*
X797308Y605421D01*
X797481Y604775D01*
X797481Y599947D01*
X790447Y599947D01*
G37*
%LPD*%
%LPC*%
G36*
X384047Y599947D02*
X384047Y599947D01*
X384047Y606981D01*
X388875Y606981D01*
X389521Y606808D01*
X390100Y606473D01*
X390573Y606000D01*
X390908Y605421D01*
X391081Y604775D01*
X391081Y599947D01*
X384047Y599947D01*
G37*
%LPD*%
%LPC*%
G36*
X244347Y599947D02*
X244347Y599947D01*
X244347Y606981D01*
X249175Y606981D01*
X249821Y606808D01*
X250400Y606473D01*
X250873Y606000D01*
X251208Y605421D01*
X251381Y604775D01*
X251381Y599947D01*
X244347Y599947D01*
G37*
%LPD*%
%LPC*%
G36*
X663447Y599947D02*
X663447Y599947D01*
X663447Y606981D01*
X668275Y606981D01*
X668921Y606808D01*
X669500Y606473D01*
X669973Y606000D01*
X670308Y605421D01*
X670481Y604775D01*
X670481Y599947D01*
X663447Y599947D01*
G37*
%LPD*%
%LPC*%
G36*
X523747Y447547D02*
X523747Y447547D01*
X523747Y454581D01*
X528575Y454581D01*
X529221Y454408D01*
X529800Y454073D01*
X530273Y453600D01*
X530608Y453021D01*
X530781Y452375D01*
X530781Y447547D01*
X523747Y447547D01*
G37*
%LPD*%
%LPC*%
G36*
X66547Y688847D02*
X66547Y688847D01*
X66547Y695881D01*
X71375Y695881D01*
X72021Y695708D01*
X72600Y695373D01*
X73073Y694900D01*
X73408Y694321D01*
X73581Y693675D01*
X73581Y688847D01*
X66547Y688847D01*
G37*
%LPD*%
%LPC*%
G36*
X384047Y447547D02*
X384047Y447547D01*
X384047Y454581D01*
X388875Y454581D01*
X389521Y454408D01*
X390100Y454073D01*
X390573Y453600D01*
X390908Y453021D01*
X391081Y452375D01*
X391081Y447547D01*
X384047Y447547D01*
G37*
%LPD*%
%LPC*%
G36*
X663447Y447547D02*
X663447Y447547D01*
X663447Y454581D01*
X668275Y454581D01*
X668921Y454408D01*
X669500Y454073D01*
X669973Y453600D01*
X670308Y453021D01*
X670481Y452375D01*
X670481Y447547D01*
X663447Y447547D01*
G37*
%LPD*%
%LPC*%
G36*
X485647Y231647D02*
X485647Y231647D01*
X485647Y238681D01*
X490475Y238681D01*
X491121Y238508D01*
X491700Y238173D01*
X492173Y237700D01*
X492508Y237121D01*
X492681Y236475D01*
X492681Y231647D01*
X485647Y231647D01*
G37*
%LPD*%
%LPC*%
G36*
X244347Y447547D02*
X244347Y447547D01*
X244347Y454581D01*
X249175Y454581D01*
X249821Y454408D01*
X250400Y454073D01*
X250873Y453600D01*
X251208Y453021D01*
X251381Y452375D01*
X251381Y447547D01*
X244347Y447547D01*
G37*
%LPD*%
%LPC*%
G36*
X765047Y244347D02*
X765047Y244347D01*
X765047Y251381D01*
X769875Y251381D01*
X770521Y251208D01*
X771100Y250873D01*
X771573Y250400D01*
X771908Y249821D01*
X772081Y249175D01*
X772081Y244347D01*
X765047Y244347D01*
G37*
%LPD*%
%LPC*%
G36*
X866647Y307847D02*
X866647Y307847D01*
X866647Y314881D01*
X871475Y314881D01*
X872121Y314708D01*
X872700Y314373D01*
X873173Y313900D01*
X873508Y313321D01*
X873681Y312675D01*
X873681Y307847D01*
X866647Y307847D01*
G37*
%LPD*%
%LPC*%
G36*
X66547Y587247D02*
X66547Y587247D01*
X66547Y594281D01*
X71375Y594281D01*
X72021Y594108D01*
X72600Y593773D01*
X73073Y593300D01*
X73408Y592721D01*
X73581Y592075D01*
X73581Y587247D01*
X66547Y587247D01*
G37*
%LPD*%
%LPC*%
G36*
X206247Y79247D02*
X206247Y79247D01*
X206247Y86281D01*
X211075Y86281D01*
X211721Y86108D01*
X212300Y85773D01*
X212773Y85300D01*
X213108Y84721D01*
X213281Y84075D01*
X213281Y79247D01*
X206247Y79247D01*
G37*
%LPD*%
%LPC*%
G36*
X79247Y79247D02*
X79247Y79247D01*
X79247Y86281D01*
X84075Y86281D01*
X84721Y86108D01*
X85300Y85773D01*
X85773Y85300D01*
X86108Y84721D01*
X86281Y84075D01*
X86281Y79247D01*
X79247Y79247D01*
G37*
%LPD*%
%LPC*%
G36*
X625347Y231647D02*
X625347Y231647D01*
X625347Y238681D01*
X630175Y238681D01*
X630821Y238508D01*
X631400Y238173D01*
X631873Y237700D01*
X632208Y237121D01*
X632381Y236475D01*
X632381Y231647D01*
X625347Y231647D01*
G37*
%LPD*%
%LPC*%
G36*
X345947Y231647D02*
X345947Y231647D01*
X345947Y238681D01*
X350775Y238681D01*
X351421Y238508D01*
X352000Y238173D01*
X352473Y237700D01*
X352808Y237121D01*
X352981Y236475D01*
X352981Y231647D01*
X345947Y231647D01*
G37*
%LPD*%
%LPC*%
G36*
X79247Y231647D02*
X79247Y231647D01*
X79247Y238681D01*
X84075Y238681D01*
X84721Y238508D01*
X85300Y238173D01*
X85773Y237700D01*
X86108Y237121D01*
X86281Y236475D01*
X86281Y231647D01*
X79247Y231647D01*
G37*
%LPD*%
%LPC*%
G36*
X206247Y231647D02*
X206247Y231647D01*
X206247Y238681D01*
X211075Y238681D01*
X211721Y238508D01*
X212300Y238173D01*
X212773Y237700D01*
X213108Y237121D01*
X213281Y236475D01*
X213281Y231647D01*
X206247Y231647D01*
G37*
%LPD*%
%LPC*%
G36*
X765047Y79247D02*
X765047Y79247D01*
X765047Y86281D01*
X769875Y86281D01*
X770521Y86108D01*
X771100Y85773D01*
X771573Y85300D01*
X771908Y84721D01*
X772081Y84075D01*
X772081Y79247D01*
X765047Y79247D01*
G37*
%LPD*%
%LPC*%
G36*
X625347Y79247D02*
X625347Y79247D01*
X625347Y86281D01*
X630175Y86281D01*
X630821Y86108D01*
X631400Y85773D01*
X631873Y85300D01*
X632208Y84721D01*
X632381Y84075D01*
X632381Y79247D01*
X625347Y79247D01*
G37*
%LPD*%
%LPC*%
G36*
X485647Y79247D02*
X485647Y79247D01*
X485647Y86281D01*
X490475Y86281D01*
X491121Y86108D01*
X491700Y85773D01*
X492173Y85300D01*
X492508Y84721D01*
X492681Y84075D01*
X492681Y79247D01*
X485647Y79247D01*
G37*
%LPD*%
%LPC*%
G36*
X345947Y79247D02*
X345947Y79247D01*
X345947Y86281D01*
X350775Y86281D01*
X351421Y86108D01*
X352000Y85773D01*
X352473Y85300D01*
X352808Y84721D01*
X352981Y84075D01*
X352981Y79247D01*
X345947Y79247D01*
G37*
%LPD*%
%LPC*%
G36*
X790447Y447547D02*
X790447Y447547D01*
X790447Y454581D01*
X795275Y454581D01*
X795921Y454408D01*
X796500Y454073D01*
X796973Y453600D01*
X797308Y453021D01*
X797481Y452375D01*
X797481Y447547D01*
X790447Y447547D01*
G37*
%LPD*%
%LPC*%
G36*
X53419Y688847D02*
X53419Y688847D01*
X53419Y693675D01*
X53592Y694321D01*
X53927Y694900D01*
X54400Y695373D01*
X54979Y695708D01*
X55625Y695881D01*
X60453Y695881D01*
X60453Y688847D01*
X53419Y688847D01*
G37*
%LPD*%
%LPC*%
G36*
X472519Y231647D02*
X472519Y231647D01*
X472519Y236475D01*
X472692Y237121D01*
X473027Y237700D01*
X473500Y238173D01*
X474079Y238508D01*
X474725Y238681D01*
X479553Y238681D01*
X479553Y231647D01*
X472519Y231647D01*
G37*
%LPD*%
%LPC*%
G36*
X332819Y231647D02*
X332819Y231647D01*
X332819Y236475D01*
X332992Y237121D01*
X333327Y237700D01*
X333800Y238173D01*
X334379Y238508D01*
X335025Y238681D01*
X339853Y238681D01*
X339853Y231647D01*
X332819Y231647D01*
G37*
%LPD*%
%LPC*%
G36*
X370919Y599947D02*
X370919Y599947D01*
X370919Y604775D01*
X371092Y605421D01*
X371427Y606000D01*
X371900Y606473D01*
X372479Y606808D01*
X373125Y606981D01*
X377953Y606981D01*
X377953Y599947D01*
X370919Y599947D01*
G37*
%LPD*%
%LPC*%
G36*
X510619Y599947D02*
X510619Y599947D01*
X510619Y604775D01*
X510792Y605421D01*
X511127Y606000D01*
X511600Y606473D01*
X512179Y606808D01*
X512825Y606981D01*
X517653Y606981D01*
X517653Y599947D01*
X510619Y599947D01*
G37*
%LPD*%
%LPC*%
G36*
X650319Y599947D02*
X650319Y599947D01*
X650319Y604775D01*
X650492Y605421D01*
X650827Y606000D01*
X651300Y606473D01*
X651879Y606808D01*
X652525Y606981D01*
X657353Y606981D01*
X657353Y599947D01*
X650319Y599947D01*
G37*
%LPD*%
%LPC*%
G36*
X231219Y599947D02*
X231219Y599947D01*
X231219Y604775D01*
X231392Y605421D01*
X231727Y606000D01*
X232200Y606473D01*
X232779Y606808D01*
X233425Y606981D01*
X238253Y606981D01*
X238253Y599947D01*
X231219Y599947D01*
G37*
%LPD*%
%LPC*%
G36*
X777319Y599947D02*
X777319Y599947D01*
X777319Y604775D01*
X777492Y605421D01*
X777827Y606000D01*
X778300Y606473D01*
X778879Y606808D01*
X779525Y606981D01*
X784353Y606981D01*
X784353Y599947D01*
X777319Y599947D01*
G37*
%LPD*%
%LPC*%
G36*
X53419Y587247D02*
X53419Y587247D01*
X53419Y592075D01*
X53592Y592721D01*
X53927Y593300D01*
X54400Y593773D01*
X54979Y594108D01*
X55625Y594281D01*
X60453Y594281D01*
X60453Y587247D01*
X53419Y587247D01*
G37*
%LPD*%
%LPC*%
G36*
X193119Y231647D02*
X193119Y231647D01*
X193119Y236475D01*
X193292Y237121D01*
X193627Y237700D01*
X194100Y238173D01*
X194679Y238508D01*
X195325Y238681D01*
X200153Y238681D01*
X200153Y231647D01*
X193119Y231647D01*
G37*
%LPD*%
%LPC*%
G36*
X66119Y231647D02*
X66119Y231647D01*
X66119Y236475D01*
X66292Y237121D01*
X66627Y237700D01*
X67100Y238173D01*
X67679Y238508D01*
X68325Y238681D01*
X73153Y238681D01*
X73153Y231647D01*
X66119Y231647D01*
G37*
%LPD*%
%LPC*%
G36*
X332819Y79247D02*
X332819Y79247D01*
X332819Y84075D01*
X332992Y84721D01*
X333327Y85300D01*
X333800Y85773D01*
X334379Y86108D01*
X335025Y86281D01*
X339853Y86281D01*
X339853Y79247D01*
X332819Y79247D01*
G37*
%LPD*%
%LPC*%
G36*
X66119Y79247D02*
X66119Y79247D01*
X66119Y84075D01*
X66292Y84721D01*
X66627Y85300D01*
X67100Y85773D01*
X67679Y86108D01*
X68325Y86281D01*
X73153Y86281D01*
X73153Y79247D01*
X66119Y79247D01*
G37*
%LPD*%
%LPC*%
G36*
X751919Y79247D02*
X751919Y79247D01*
X751919Y84075D01*
X752092Y84721D01*
X752427Y85300D01*
X752900Y85773D01*
X753479Y86108D01*
X754125Y86281D01*
X758953Y86281D01*
X758953Y79247D01*
X751919Y79247D01*
G37*
%LPD*%
%LPC*%
G36*
X612219Y79247D02*
X612219Y79247D01*
X612219Y84075D01*
X612392Y84721D01*
X612727Y85300D01*
X613200Y85773D01*
X613779Y86108D01*
X614425Y86281D01*
X619253Y86281D01*
X619253Y79247D01*
X612219Y79247D01*
G37*
%LPD*%
%LPC*%
G36*
X472519Y79247D02*
X472519Y79247D01*
X472519Y84075D01*
X472692Y84721D01*
X473027Y85300D01*
X473500Y85773D01*
X474079Y86108D01*
X474725Y86281D01*
X479553Y86281D01*
X479553Y79247D01*
X472519Y79247D01*
G37*
%LPD*%
%LPC*%
G36*
X193119Y79247D02*
X193119Y79247D01*
X193119Y84075D01*
X193292Y84721D01*
X193627Y85300D01*
X194100Y85773D01*
X194679Y86108D01*
X195325Y86281D01*
X200153Y86281D01*
X200153Y79247D01*
X193119Y79247D01*
G37*
%LPD*%
%LPC*%
G36*
X777319Y447547D02*
X777319Y447547D01*
X777319Y452375D01*
X777492Y453021D01*
X777827Y453600D01*
X778300Y454073D01*
X778879Y454408D01*
X779525Y454581D01*
X784353Y454581D01*
X784353Y447547D01*
X777319Y447547D01*
G37*
%LPD*%
%LPC*%
G36*
X231219Y447547D02*
X231219Y447547D01*
X231219Y452375D01*
X231392Y453021D01*
X231727Y453600D01*
X232200Y454073D01*
X232779Y454408D01*
X233425Y454581D01*
X238253Y454581D01*
X238253Y447547D01*
X231219Y447547D01*
G37*
%LPD*%
%LPC*%
G36*
X370919Y447547D02*
X370919Y447547D01*
X370919Y452375D01*
X371092Y453021D01*
X371427Y453600D01*
X371900Y454073D01*
X372479Y454408D01*
X373125Y454581D01*
X377953Y454581D01*
X377953Y447547D01*
X370919Y447547D01*
G37*
%LPD*%
%LPC*%
G36*
X650319Y447547D02*
X650319Y447547D01*
X650319Y452375D01*
X650492Y453021D01*
X650827Y453600D01*
X651300Y454073D01*
X651879Y454408D01*
X652525Y454581D01*
X657353Y454581D01*
X657353Y447547D01*
X650319Y447547D01*
G37*
%LPD*%
%LPC*%
G36*
X510619Y447547D02*
X510619Y447547D01*
X510619Y452375D01*
X510792Y453021D01*
X511127Y453600D01*
X511600Y454073D01*
X512179Y454408D01*
X512825Y454581D01*
X517653Y454581D01*
X517653Y447547D01*
X510619Y447547D01*
G37*
%LPD*%
%LPC*%
G36*
X853519Y307847D02*
X853519Y307847D01*
X853519Y312675D01*
X853692Y313321D01*
X854027Y313900D01*
X854500Y314373D01*
X855079Y314708D01*
X855725Y314881D01*
X860553Y314881D01*
X860553Y307847D01*
X853519Y307847D01*
G37*
%LPD*%
%LPC*%
G36*
X751919Y244347D02*
X751919Y244347D01*
X751919Y249175D01*
X752092Y249821D01*
X752427Y250400D01*
X752900Y250873D01*
X753479Y251208D01*
X754125Y251381D01*
X758953Y251381D01*
X758953Y244347D01*
X751919Y244347D01*
G37*
%LPD*%
%LPC*%
G36*
X612219Y231647D02*
X612219Y231647D01*
X612219Y236475D01*
X612392Y237121D01*
X612727Y237700D01*
X613200Y238173D01*
X613779Y238508D01*
X614425Y238681D01*
X619253Y238681D01*
X619253Y231647D01*
X612219Y231647D01*
G37*
%LPD*%
%LPC*%
G36*
X66547Y675719D02*
X66547Y675719D01*
X66547Y682753D01*
X73581Y682753D01*
X73581Y677925D01*
X73408Y677279D01*
X73073Y676700D01*
X72600Y676227D01*
X72021Y675892D01*
X71375Y675719D01*
X66547Y675719D01*
G37*
%LPD*%
%LPC*%
G36*
X765047Y231219D02*
X765047Y231219D01*
X765047Y238253D01*
X772081Y238253D01*
X772081Y233425D01*
X771908Y232779D01*
X771573Y232200D01*
X771100Y231727D01*
X770521Y231392D01*
X769875Y231219D01*
X765047Y231219D01*
G37*
%LPD*%
%LPC*%
G36*
X663447Y586819D02*
X663447Y586819D01*
X663447Y593853D01*
X670481Y593853D01*
X670481Y589025D01*
X670308Y588379D01*
X669973Y587800D01*
X669500Y587327D01*
X668921Y586992D01*
X668275Y586819D01*
X663447Y586819D01*
G37*
%LPD*%
%LPC*%
G36*
X345947Y218519D02*
X345947Y218519D01*
X345947Y225553D01*
X352981Y225553D01*
X352981Y220725D01*
X352808Y220079D01*
X352473Y219500D01*
X352000Y219027D01*
X351421Y218692D01*
X350775Y218519D01*
X345947Y218519D01*
G37*
%LPD*%
%LPC*%
G36*
X523747Y586819D02*
X523747Y586819D01*
X523747Y593853D01*
X530781Y593853D01*
X530781Y589025D01*
X530608Y588379D01*
X530273Y587800D01*
X529800Y587327D01*
X529221Y586992D01*
X528575Y586819D01*
X523747Y586819D01*
G37*
%LPD*%
%LPC*%
G36*
X79247Y218519D02*
X79247Y218519D01*
X79247Y225553D01*
X86281Y225553D01*
X86281Y220725D01*
X86108Y220079D01*
X85773Y219500D01*
X85300Y219027D01*
X84721Y218692D01*
X84075Y218519D01*
X79247Y218519D01*
G37*
%LPD*%
%LPC*%
G36*
X384047Y586819D02*
X384047Y586819D01*
X384047Y593853D01*
X391081Y593853D01*
X391081Y589025D01*
X390908Y588379D01*
X390573Y587800D01*
X390100Y587327D01*
X389521Y586992D01*
X388875Y586819D01*
X384047Y586819D01*
G37*
%LPD*%
%LPC*%
G36*
X206247Y218519D02*
X206247Y218519D01*
X206247Y225553D01*
X213281Y225553D01*
X213281Y220725D01*
X213108Y220079D01*
X212773Y219500D01*
X212300Y219027D01*
X211721Y218692D01*
X211075Y218519D01*
X206247Y218519D01*
G37*
%LPD*%
%LPC*%
G36*
X244347Y586819D02*
X244347Y586819D01*
X244347Y593853D01*
X251381Y593853D01*
X251381Y589025D01*
X251208Y588379D01*
X250873Y587800D01*
X250400Y587327D01*
X249821Y586992D01*
X249175Y586819D01*
X244347Y586819D01*
G37*
%LPD*%
%LPC*%
G36*
X790447Y586819D02*
X790447Y586819D01*
X790447Y593853D01*
X797481Y593853D01*
X797481Y589025D01*
X797308Y588379D01*
X796973Y587800D01*
X796500Y587327D01*
X795921Y586992D01*
X795275Y586819D01*
X790447Y586819D01*
G37*
%LPD*%
%LPC*%
G36*
X523747Y434419D02*
X523747Y434419D01*
X523747Y441453D01*
X530781Y441453D01*
X530781Y436625D01*
X530608Y435979D01*
X530273Y435400D01*
X529800Y434927D01*
X529221Y434592D01*
X528575Y434419D01*
X523747Y434419D01*
G37*
%LPD*%
%LPC*%
G36*
X244347Y434419D02*
X244347Y434419D01*
X244347Y441453D01*
X251381Y441453D01*
X251381Y436625D01*
X251208Y435979D01*
X250873Y435400D01*
X250400Y434927D01*
X249821Y434592D01*
X249175Y434419D01*
X244347Y434419D01*
G37*
%LPD*%
%LPC*%
G36*
X625347Y218519D02*
X625347Y218519D01*
X625347Y225553D01*
X632381Y225553D01*
X632381Y220725D01*
X632208Y220079D01*
X631873Y219500D01*
X631400Y219027D01*
X630821Y218692D01*
X630175Y218519D01*
X625347Y218519D01*
G37*
%LPD*%
%LPC*%
G36*
X790447Y434419D02*
X790447Y434419D01*
X790447Y441453D01*
X797481Y441453D01*
X797481Y436625D01*
X797308Y435979D01*
X796973Y435400D01*
X796500Y434927D01*
X795921Y434592D01*
X795275Y434419D01*
X790447Y434419D01*
G37*
%LPD*%
%LPC*%
G36*
X663447Y434419D02*
X663447Y434419D01*
X663447Y441453D01*
X670481Y441453D01*
X670481Y436625D01*
X670308Y435979D01*
X669973Y435400D01*
X669500Y434927D01*
X668921Y434592D01*
X668275Y434419D01*
X663447Y434419D01*
G37*
%LPD*%
%LPC*%
G36*
X66547Y574119D02*
X66547Y574119D01*
X66547Y581153D01*
X73581Y581153D01*
X73581Y576325D01*
X73408Y575679D01*
X73073Y575100D01*
X72600Y574627D01*
X72021Y574292D01*
X71375Y574119D01*
X66547Y574119D01*
G37*
%LPD*%
%LPC*%
G36*
X866647Y294719D02*
X866647Y294719D01*
X866647Y301753D01*
X873681Y301753D01*
X873681Y296925D01*
X873508Y296279D01*
X873173Y295700D01*
X872700Y295227D01*
X872121Y294892D01*
X871475Y294719D01*
X866647Y294719D01*
G37*
%LPD*%
%LPC*%
G36*
X485647Y218519D02*
X485647Y218519D01*
X485647Y225553D01*
X492681Y225553D01*
X492681Y220725D01*
X492508Y220079D01*
X492173Y219500D01*
X491700Y219027D01*
X491121Y218692D01*
X490475Y218519D01*
X485647Y218519D01*
G37*
%LPD*%
%LPC*%
G36*
X384047Y434419D02*
X384047Y434419D01*
X384047Y441453D01*
X391081Y441453D01*
X391081Y436625D01*
X390908Y435979D01*
X390573Y435400D01*
X390100Y434927D01*
X389521Y434592D01*
X388875Y434419D01*
X384047Y434419D01*
G37*
%LPD*%
%LPC*%
G36*
X765047Y66119D02*
X765047Y66119D01*
X765047Y73153D01*
X772081Y73153D01*
X772081Y68325D01*
X771908Y67679D01*
X771573Y67100D01*
X771100Y66627D01*
X770521Y66292D01*
X769875Y66119D01*
X765047Y66119D01*
G37*
%LPD*%
%LPC*%
G36*
X625347Y66119D02*
X625347Y66119D01*
X625347Y73153D01*
X632381Y73153D01*
X632381Y68325D01*
X632208Y67679D01*
X631873Y67100D01*
X631400Y66627D01*
X630821Y66292D01*
X630175Y66119D01*
X625347Y66119D01*
G37*
%LPD*%
%LPC*%
G36*
X485647Y66119D02*
X485647Y66119D01*
X485647Y73153D01*
X492681Y73153D01*
X492681Y68325D01*
X492508Y67679D01*
X492173Y67100D01*
X491700Y66627D01*
X491121Y66292D01*
X490475Y66119D01*
X485647Y66119D01*
G37*
%LPD*%
%LPC*%
G36*
X345947Y66119D02*
X345947Y66119D01*
X345947Y73153D01*
X352981Y73153D01*
X352981Y68325D01*
X352808Y67679D01*
X352473Y67100D01*
X352000Y66627D01*
X351421Y66292D01*
X350775Y66119D01*
X345947Y66119D01*
G37*
%LPD*%
%LPC*%
G36*
X206247Y66119D02*
X206247Y66119D01*
X206247Y73153D01*
X213281Y73153D01*
X213281Y68325D01*
X213108Y67679D01*
X212773Y67100D01*
X212300Y66627D01*
X211721Y66292D01*
X211075Y66119D01*
X206247Y66119D01*
G37*
%LPD*%
%LPC*%
G36*
X79247Y66119D02*
X79247Y66119D01*
X79247Y73153D01*
X86281Y73153D01*
X86281Y68325D01*
X86108Y67679D01*
X85773Y67100D01*
X85300Y66627D01*
X84721Y66292D01*
X84075Y66119D01*
X79247Y66119D01*
G37*
%LPD*%
%LPC*%
G36*
X68325Y218519D02*
X68325Y218519D01*
X67679Y218692D01*
X67100Y219027D01*
X66627Y219500D01*
X66292Y220079D01*
X66119Y220725D01*
X66119Y225553D01*
X73153Y225553D01*
X73153Y218519D01*
X68325Y218519D01*
G37*
%LPD*%
%LPC*%
G36*
X373125Y434419D02*
X373125Y434419D01*
X372479Y434592D01*
X371900Y434927D01*
X371427Y435400D01*
X371092Y435979D01*
X370919Y436625D01*
X370919Y441453D01*
X377953Y441453D01*
X377953Y434419D01*
X373125Y434419D01*
G37*
%LPD*%
%LPC*%
G36*
X779525Y434419D02*
X779525Y434419D01*
X778879Y434592D01*
X778300Y434927D01*
X777827Y435400D01*
X777492Y435979D01*
X777319Y436625D01*
X777319Y441453D01*
X784353Y441453D01*
X784353Y434419D01*
X779525Y434419D01*
G37*
%LPD*%
%LPC*%
G36*
X55625Y675719D02*
X55625Y675719D01*
X54979Y675892D01*
X54400Y676227D01*
X53927Y676700D01*
X53592Y677279D01*
X53419Y677925D01*
X53419Y682753D01*
X60453Y682753D01*
X60453Y675719D01*
X55625Y675719D01*
G37*
%LPD*%
%LPC*%
G36*
X55625Y574119D02*
X55625Y574119D01*
X54979Y574292D01*
X54400Y574627D01*
X53927Y575100D01*
X53592Y575679D01*
X53419Y576325D01*
X53419Y581153D01*
X60453Y581153D01*
X60453Y574119D01*
X55625Y574119D01*
G37*
%LPD*%
%LPC*%
G36*
X652525Y586819D02*
X652525Y586819D01*
X651879Y586992D01*
X651300Y587327D01*
X650827Y587800D01*
X650492Y588379D01*
X650319Y589025D01*
X650319Y593853D01*
X657353Y593853D01*
X657353Y586819D01*
X652525Y586819D01*
G37*
%LPD*%
%LPC*%
G36*
X233425Y586819D02*
X233425Y586819D01*
X232779Y586992D01*
X232200Y587327D01*
X231727Y587800D01*
X231392Y588379D01*
X231219Y589025D01*
X231219Y593853D01*
X238253Y593853D01*
X238253Y586819D01*
X233425Y586819D01*
G37*
%LPD*%
%LPC*%
G36*
X779525Y586819D02*
X779525Y586819D01*
X778879Y586992D01*
X778300Y587327D01*
X777827Y587800D01*
X777492Y588379D01*
X777319Y589025D01*
X777319Y593853D01*
X784353Y593853D01*
X784353Y586819D01*
X779525Y586819D01*
G37*
%LPD*%
%LPC*%
G36*
X512825Y434419D02*
X512825Y434419D01*
X512179Y434592D01*
X511600Y434927D01*
X511127Y435400D01*
X510792Y435979D01*
X510619Y436625D01*
X510619Y441453D01*
X517653Y441453D01*
X517653Y434419D01*
X512825Y434419D01*
G37*
%LPD*%
%LPC*%
G36*
X855725Y294719D02*
X855725Y294719D01*
X855079Y294892D01*
X854500Y295227D01*
X854027Y295700D01*
X853692Y296279D01*
X853519Y296925D01*
X853519Y301753D01*
X860553Y301753D01*
X860553Y294719D01*
X855725Y294719D01*
G37*
%LPD*%
%LPC*%
G36*
X512825Y586819D02*
X512825Y586819D01*
X512179Y586992D01*
X511600Y587327D01*
X511127Y587800D01*
X510792Y588379D01*
X510619Y589025D01*
X510619Y593853D01*
X517653Y593853D01*
X517653Y586819D01*
X512825Y586819D01*
G37*
%LPD*%
%LPC*%
G36*
X373125Y586819D02*
X373125Y586819D01*
X372479Y586992D01*
X371900Y587327D01*
X371427Y587800D01*
X371092Y588379D01*
X370919Y589025D01*
X370919Y593853D01*
X377953Y593853D01*
X377953Y586819D01*
X373125Y586819D01*
G37*
%LPD*%
%LPC*%
G36*
X233425Y434419D02*
X233425Y434419D01*
X232779Y434592D01*
X232200Y434927D01*
X231727Y435400D01*
X231392Y435979D01*
X231219Y436625D01*
X231219Y441453D01*
X238253Y441453D01*
X238253Y434419D01*
X233425Y434419D01*
G37*
%LPD*%
%LPC*%
G36*
X754125Y231219D02*
X754125Y231219D01*
X753479Y231392D01*
X752900Y231727D01*
X752427Y232200D01*
X752092Y232779D01*
X751919Y233425D01*
X751919Y238253D01*
X758953Y238253D01*
X758953Y231219D01*
X754125Y231219D01*
G37*
%LPD*%
%LPC*%
G36*
X754125Y66119D02*
X754125Y66119D01*
X753479Y66292D01*
X752900Y66627D01*
X752427Y67100D01*
X752092Y67679D01*
X751919Y68325D01*
X751919Y73153D01*
X758953Y73153D01*
X758953Y66119D01*
X754125Y66119D01*
G37*
%LPD*%
%LPC*%
G36*
X335025Y218519D02*
X335025Y218519D01*
X334379Y218692D01*
X333800Y219027D01*
X333327Y219500D01*
X332992Y220079D01*
X332819Y220725D01*
X332819Y225553D01*
X339853Y225553D01*
X339853Y218519D01*
X335025Y218519D01*
G37*
%LPD*%
%LPC*%
G36*
X614425Y66119D02*
X614425Y66119D01*
X613779Y66292D01*
X613200Y66627D01*
X612727Y67100D01*
X612392Y67679D01*
X612219Y68325D01*
X612219Y73153D01*
X619253Y73153D01*
X619253Y66119D01*
X614425Y66119D01*
G37*
%LPD*%
%LPC*%
G36*
X195325Y218519D02*
X195325Y218519D01*
X194679Y218692D01*
X194100Y219027D01*
X193627Y219500D01*
X193292Y220079D01*
X193119Y220725D01*
X193119Y225553D01*
X200153Y225553D01*
X200153Y218519D01*
X195325Y218519D01*
G37*
%LPD*%
%LPC*%
G36*
X474725Y66119D02*
X474725Y66119D01*
X474079Y66292D01*
X473500Y66627D01*
X473027Y67100D01*
X472692Y67679D01*
X472519Y68325D01*
X472519Y73153D01*
X479553Y73153D01*
X479553Y66119D01*
X474725Y66119D01*
G37*
%LPD*%
%LPC*%
G36*
X614425Y218519D02*
X614425Y218519D01*
X613779Y218692D01*
X613200Y219027D01*
X612727Y219500D01*
X612392Y220079D01*
X612219Y220725D01*
X612219Y225553D01*
X619253Y225553D01*
X619253Y218519D01*
X614425Y218519D01*
G37*
%LPD*%
%LPC*%
G36*
X335025Y66119D02*
X335025Y66119D01*
X334379Y66292D01*
X333800Y66627D01*
X333327Y67100D01*
X332992Y67679D01*
X332819Y68325D01*
X332819Y73153D01*
X339853Y73153D01*
X339853Y66119D01*
X335025Y66119D01*
G37*
%LPD*%
%LPC*%
G36*
X652525Y434419D02*
X652525Y434419D01*
X651879Y434592D01*
X651300Y434927D01*
X650827Y435400D01*
X650492Y435979D01*
X650319Y436625D01*
X650319Y441453D01*
X657353Y441453D01*
X657353Y434419D01*
X652525Y434419D01*
G37*
%LPD*%
%LPC*%
G36*
X195325Y66119D02*
X195325Y66119D01*
X194679Y66292D01*
X194100Y66627D01*
X193627Y67100D01*
X193292Y67679D01*
X193119Y68325D01*
X193119Y73153D01*
X200153Y73153D01*
X200153Y66119D01*
X195325Y66119D01*
G37*
%LPD*%
%LPC*%
G36*
X474725Y218519D02*
X474725Y218519D01*
X474079Y218692D01*
X473500Y219027D01*
X473027Y219500D01*
X472692Y220079D01*
X472519Y220725D01*
X472519Y225553D01*
X479553Y225553D01*
X479553Y218519D01*
X474725Y218519D01*
G37*
%LPD*%
%LPC*%
G36*
X68325Y66119D02*
X68325Y66119D01*
X67679Y66292D01*
X67100Y66627D01*
X66627Y67100D01*
X66292Y67679D01*
X66119Y68325D01*
X66119Y73153D01*
X73153Y73153D01*
X73153Y66119D01*
X68325Y66119D01*
G37*
%LPD*%
D10*
X66294Y431546D02*
X86106Y431546D01*
X86106Y381508D02*
X66294Y381508D01*
D11*
X195660Y101600D02*
X210740Y101600D01*
X210740Y126600D02*
X195660Y126600D01*
D12*
X203200Y76200D03*
D11*
X210740Y254000D02*
X195660Y254000D01*
X195660Y279000D02*
X210740Y279000D01*
D12*
X203200Y228600D03*
D11*
X335360Y254000D02*
X350440Y254000D01*
X350440Y279000D02*
X335360Y279000D01*
D12*
X342900Y228600D03*
D11*
X350440Y101600D02*
X335360Y101600D01*
X335360Y126600D02*
X350440Y126600D01*
D12*
X342900Y76200D03*
D11*
X475060Y101600D02*
X490140Y101600D01*
X490140Y126600D02*
X475060Y126600D01*
D12*
X482600Y76200D03*
D11*
X490140Y254000D02*
X475060Y254000D01*
X475060Y279000D02*
X490140Y279000D01*
D12*
X482600Y228600D03*
D11*
X614760Y254000D02*
X629840Y254000D01*
X629840Y279000D02*
X614760Y279000D01*
D12*
X622300Y228600D03*
D11*
X629840Y101600D02*
X614760Y101600D01*
X614760Y126600D02*
X629840Y126600D01*
D12*
X622300Y76200D03*
D11*
X754460Y101600D02*
X769540Y101600D01*
X769540Y126600D02*
X754460Y126600D01*
D12*
X762000Y76200D03*
D11*
X769540Y266700D02*
X754460Y266700D01*
X754460Y291700D02*
X769540Y291700D01*
D12*
X762000Y241300D03*
D11*
X856060Y279400D02*
X871140Y279400D01*
X871140Y254400D02*
X856060Y254400D01*
D12*
X863600Y304800D03*
D11*
X794940Y469900D02*
X779860Y469900D01*
X779860Y494900D02*
X794940Y494900D01*
D12*
X787400Y444500D03*
D11*
X794940Y622300D02*
X779860Y622300D01*
X779860Y647300D02*
X794940Y647300D01*
D12*
X787400Y596900D03*
D11*
X667940Y622300D02*
X652860Y622300D01*
X652860Y647300D02*
X667940Y647300D01*
D12*
X660400Y596900D03*
D11*
X667940Y469900D02*
X652860Y469900D01*
X652860Y494900D02*
X667940Y494900D01*
D12*
X660400Y444500D03*
D11*
X528240Y469900D02*
X513160Y469900D01*
X513160Y494900D02*
X528240Y494900D01*
D12*
X520700Y444500D03*
D11*
X528240Y622300D02*
X513160Y622300D01*
X513160Y647300D02*
X528240Y647300D01*
D12*
X520700Y596900D03*
D11*
X388540Y622300D02*
X373460Y622300D01*
X373460Y647300D02*
X388540Y647300D01*
D12*
X381000Y596900D03*
D11*
X388540Y469900D02*
X373460Y469900D01*
X373460Y494900D02*
X388540Y494900D01*
D12*
X381000Y444500D03*
D11*
X248840Y469900D02*
X233760Y469900D01*
X233760Y494900D02*
X248840Y494900D01*
D12*
X241300Y444500D03*
D11*
X248840Y622300D02*
X233760Y622300D01*
X233760Y647300D02*
X248840Y647300D01*
D12*
X241300Y596900D03*
D11*
X88900Y678260D02*
X88900Y693340D01*
X113900Y693340D02*
X113900Y678260D01*
D12*
X63500Y685800D03*
D11*
X88900Y591740D02*
X88900Y576660D01*
X113900Y576660D02*
X113900Y591740D01*
D12*
X63500Y584200D03*
D11*
X68660Y254000D02*
X83740Y254000D01*
X83740Y279000D02*
X68660Y279000D01*
D12*
X76200Y228600D03*
D11*
X83740Y101600D02*
X68660Y101600D01*
X68660Y126600D02*
X83740Y126600D01*
D12*
X76200Y76200D03*
D13*
X89408Y368300D02*
X76200Y381508D01*
X660400Y368300D02*
X787400Y368300D01*
X635000Y368300D02*
X546100Y368300D01*
X635000Y368300D02*
X660400Y368300D01*
X546100Y368300D02*
X508000Y368300D01*
X393700Y368300D01*
X368300Y368300D01*
X266700Y368300D01*
X228600Y368300D02*
X152400Y368300D01*
X228600Y368300D02*
X266700Y368300D01*
X101600Y368300D02*
X89408Y368300D01*
X101600Y368300D02*
X152400Y368300D01*
D14*
X787400Y266700D02*
X812800Y292100D01*
X812800Y114300D02*
X800100Y101600D01*
X812800Y114300D02*
X812800Y292100D01*
X292100Y609600D02*
X279400Y622300D01*
X292100Y609600D02*
X292100Y457200D01*
X279400Y469900D01*
X419100Y622300D02*
X431800Y609600D01*
X431800Y457200D01*
X571500Y609600D02*
X558800Y622300D01*
X571500Y609600D02*
X571500Y457200D01*
X558800Y469900D01*
X711200Y457200D02*
X711200Y609600D01*
X698500Y622300D01*
X698500Y469900D02*
X711200Y457200D01*
X850900Y596900D02*
X825500Y622300D01*
X850900Y596900D02*
X850900Y457200D01*
X850900Y431800D01*
X292100Y457200D02*
X292100Y393700D01*
X571500Y406400D02*
X571500Y457200D01*
X571500Y406400D02*
X546100Y381000D01*
X711200Y406400D02*
X711200Y457200D01*
X787400Y368300D02*
X812800Y342900D01*
X812800Y292100D01*
X787400Y368300D02*
X850900Y431800D01*
X292100Y393700D02*
X266700Y368300D01*
X546100Y368300D02*
X546100Y381000D01*
X673100Y368300D02*
X711200Y406400D01*
X673100Y368300D02*
X660400Y368300D01*
X431800Y457200D02*
X419100Y469900D01*
X431800Y457200D02*
X431800Y406400D01*
X393700Y368300D01*
X762000Y101600D02*
X800100Y101600D01*
X787400Y266700D02*
X762000Y266700D01*
X787400Y469900D02*
X838200Y469900D01*
X850900Y457200D01*
X698500Y469900D02*
X660400Y469900D01*
X787400Y622300D02*
X825500Y622300D01*
X698500Y622300D02*
X660400Y622300D01*
X558800Y622300D02*
X520700Y622300D01*
X520700Y469900D02*
X558800Y469900D01*
X419100Y469900D02*
X381000Y469900D01*
X381000Y622300D02*
X419100Y622300D01*
X279400Y622300D02*
X241300Y622300D01*
X241300Y469900D02*
X279400Y469900D01*
X88900Y520700D02*
X88900Y584200D01*
X88900Y520700D02*
X127000Y482600D01*
X127000Y393700D01*
X88900Y584200D02*
X88900Y685800D01*
X152400Y368300D02*
X127000Y342900D01*
X127000Y266700D01*
X127000Y114300D01*
X114300Y101600D01*
X76200Y101600D01*
X76200Y254000D02*
X114300Y254000D01*
X127000Y266700D01*
X342900Y254000D02*
X381000Y254000D01*
X393700Y266700D01*
X393700Y342900D01*
X368300Y368300D01*
X393700Y266700D02*
X393700Y114300D01*
X381000Y101600D01*
X342900Y101600D01*
X482600Y254000D02*
X508000Y254000D01*
X533400Y279400D01*
X533400Y342900D02*
X508000Y368300D01*
X533400Y342900D02*
X533400Y279400D01*
X533400Y127000D01*
X508000Y101600D01*
X482600Y101600D01*
X622300Y254000D02*
X647700Y254000D01*
X673100Y279400D01*
X673100Y330200D01*
X635000Y368300D01*
X673100Y279400D02*
X673100Y127000D01*
X647700Y101600D01*
X622300Y101600D01*
X254000Y266700D02*
X241300Y254000D01*
X254000Y266700D02*
X254000Y342900D01*
X228600Y368300D01*
X241300Y254000D02*
X203200Y254000D01*
X254000Y266700D02*
X254000Y114300D01*
X241300Y101600D01*
X203200Y101600D01*
D15*
X850900Y279400D02*
X863600Y279400D01*
X850900Y279400D02*
X838200Y292100D01*
X838200Y355600D01*
X825500Y368300D01*
X787400Y368300D01*
D14*
X127000Y393700D02*
X101600Y368300D01*
D15*
X76200Y279000D02*
X25000Y279000D01*
X12700Y266700D01*
X12700Y139700D01*
X12700Y50800D01*
X38100Y25400D01*
X165100Y25400D01*
X304800Y25400D01*
X444500Y25400D01*
X584200Y25400D01*
X723900Y25400D01*
X850900Y25400D01*
X863600Y38100D01*
X863600Y254400D01*
X76200Y126600D02*
X25800Y126600D01*
X12700Y139700D01*
X152400Y101600D02*
X152400Y254000D01*
X177800Y279400D01*
X202800Y279400D01*
X203200Y279000D01*
X203200Y126600D02*
X177400Y126600D01*
X152400Y101600D01*
X152400Y38100D01*
X165100Y25400D01*
X304400Y279000D02*
X342900Y279000D01*
X304400Y279000D02*
X292100Y266700D01*
X292100Y139700D01*
X305200Y126600D01*
X342900Y126600D01*
X292100Y139700D02*
X292100Y38100D01*
X304800Y25400D01*
X444100Y279000D02*
X482600Y279000D01*
X444100Y279000D02*
X431800Y266700D01*
X431800Y139700D01*
X444900Y126600D01*
X482600Y126600D01*
X431800Y139700D02*
X431800Y38100D01*
X444500Y25400D01*
X583800Y279000D02*
X622300Y279000D01*
X583800Y279000D02*
X571500Y266700D01*
X571500Y139700D01*
X584600Y126600D01*
X622300Y126600D01*
X571500Y139700D02*
X571500Y38100D01*
X584200Y25400D01*
X723500Y291700D02*
X762000Y291700D01*
X723500Y291700D02*
X711200Y279400D01*
X711200Y139700D01*
X724300Y126600D01*
X762000Y126600D01*
X711200Y139700D02*
X711200Y38100D01*
X723900Y25400D01*
X762400Y494900D02*
X787400Y494900D01*
X736600Y520700D02*
X736600Y635000D01*
X749300Y647700D01*
X736600Y520700D02*
X762400Y494900D01*
X863600Y254400D02*
X889400Y254400D01*
X901700Y266700D01*
X660400Y647300D02*
X621900Y647300D01*
X609600Y635000D01*
X609600Y508000D01*
X622700Y494900D01*
X660400Y494900D01*
X621900Y647300D02*
X520700Y647300D01*
X482200Y647300D01*
X469900Y635000D01*
X469900Y508000D01*
X483000Y494900D02*
X520700Y494900D01*
X483000Y494900D02*
X469900Y508000D01*
X482200Y647300D02*
X381000Y647300D01*
X342500Y647300D01*
X330200Y635000D01*
X330200Y508000D01*
X343300Y494900D02*
X381000Y494900D01*
X343300Y494900D02*
X330200Y508000D01*
X342500Y647300D02*
X241300Y647300D01*
X202800Y685800D01*
X113900Y685800D01*
X113900Y584200D01*
X901700Y571500D02*
X901700Y266700D01*
X901700Y571500D02*
X825500Y647700D01*
X787800Y647700D01*
X787400Y647300D01*
X787800Y647700D02*
X749300Y647700D01*
X241300Y494900D02*
X152800Y494900D01*
X113900Y533800D02*
X113900Y584200D01*
X113900Y533800D02*
X152800Y494900D01*
X660800Y647700D02*
X749300Y647700D01*
X660800Y647700D02*
X660400Y647300D01*
M02*
