M48
;GenerationSoftware,Autodesk,EAGLE,9.6.2*%
;CreationDate,2022-10-06T15:04:53Z*%
FMAT,2
ICI,OFF
METRIC,TZ,000.000
T2C1.000
T1C1.321
%
G90
M71
T1
X7620Y43155
X7620Y38151
T2
X20320Y10160
X20320Y12660
X20320Y7620
X20320Y25400
X20320Y27900
X20320Y22860
X34290Y25400
X34290Y27900
X34290Y22860
X34290Y10160
X34290Y12660
X34290Y7620
X48260Y10160
X48260Y12660
X48260Y7620
X48260Y25400
X48260Y27900
X48260Y22860
X62230Y25400
X62230Y27900
X62230Y22860
X62230Y10160
X62230Y12660
X62230Y7620
X76200Y10160
X76200Y12660
X76200Y7620
X76200Y26670
X76200Y29170
X76200Y24130
X86360Y27940
X86360Y25440
X86360Y30480
X78740Y46990
X78740Y49490
X78740Y44450
X78740Y62230
X78740Y64730
X78740Y59690
X66040Y62230
X66040Y64730
X66040Y59690
X66040Y46990
X66040Y49490
X66040Y44450
X52070Y46990
X52070Y49490
X52070Y44450
X52070Y62230
X52070Y64730
X52070Y59690
X38100Y62230
X38100Y64730
X38100Y59690
X38100Y46990
X38100Y49490
X38100Y44450
X24130Y46990
X24130Y49490
X24130Y44450
X24130Y62230
X24130Y64730
X24130Y59690
X8890Y68580
X11390Y68580
X6350Y68580
X8890Y58420
X11390Y58420
X6350Y58420
X7620Y25400
X7620Y27900
X7620Y22860
X7620Y10160
X7620Y12660
X7620Y7620
M30